<mxfile host="65bd71144e">
    <diagram id="qIIPJfSHgSMwhy71KvYk" name="Page-1">
        <mxGraphModel dx="2942" dy="2568" grid="1" gridSize="10" guides="1" tooltips="1" connect="1" arrows="1" fold="1" page="1" pageScale="1" pageWidth="850" pageHeight="1100" math="0" shadow="0">
            <root>
                <mxCell id="0"/>
                <mxCell id="1" parent="0"/>
                <mxCell id="2" value="Tt" style="text;strokeColor=none;align=center;fillColor=none;html=1;verticalAlign=middle;whiteSpace=wrap;rounded=0;" vertex="1" parent="1">
                    <mxGeometry x="-320" y="550" width="60" height="30" as="geometry"/>
                </mxCell>
                <mxCell id="3" value="" style="strokeWidth=1;shadow=0;dashed=0;align=center;html=1;shape=mxgraph.mockup.containers.browserWindow;rSize=0;strokeColor=#666666;strokeColor2=#008cff;strokeColor3=#c4c4c4;mainText=,;recursiveResize=0;" vertex="1" parent="1">
                    <mxGeometry x="-690" y="-770" width="1480" height="870" as="geometry"/>
                </mxCell>
                <mxCell id="4" value="Page 1" style="strokeWidth=1;shadow=0;dashed=0;align=center;html=1;shape=mxgraph.mockup.containers.anchor;fontSize=17;fontColor=#666666;align=left;whiteSpace=wrap;" vertex="1" parent="3">
                    <mxGeometry x="60" y="12" width="110" height="26" as="geometry"/>
                </mxCell>
                <mxCell id="5" value="https://www.draw.io" style="strokeWidth=1;shadow=0;dashed=0;align=center;html=1;shape=mxgraph.mockup.containers.anchor;rSize=0;fontSize=17;fontColor=#666666;align=left;" vertex="1" parent="3">
                    <mxGeometry x="130" y="60" width="250" height="26" as="geometry"/>
                </mxCell>
                <mxCell id="6" value="" style="rounded=0;whiteSpace=wrap;html=1;rotation=90;" vertex="1" parent="3">
                    <mxGeometry x="-282.5" y="392.5" width="745" height="180" as="geometry"/>
                </mxCell>
                <mxCell id="15" value="Dashboard&lt;div&gt;&lt;font size=&quot;1&quot;&gt;-Daily Stats, Recent activity&lt;/font&gt;&lt;/div&gt;" style="shape=partialRectangle;whiteSpace=wrap;html=1;left=0;right=0;fillColor=none;rounded=1;strokeColor=default;align=center;verticalAlign=middle;fontFamily=Helvetica;fontSize=12;fontColor=default;" vertex="1" parent="3">
                    <mxGeometry y="160" width="180" height="40" as="geometry"/>
                </mxCell>
                <mxCell id="16" value="Daily Logs" style="shape=partialRectangle;whiteSpace=wrap;html=1;left=0;right=0;fillColor=none;rounded=1;strokeColor=default;align=center;verticalAlign=middle;fontFamily=Helvetica;fontSize=12;fontColor=default;" vertex="1" parent="3">
                    <mxGeometry y="200" width="180" height="40" as="geometry"/>
                </mxCell>
                <mxCell id="17" value="Weekly Summary" style="shape=partialRectangle;whiteSpace=wrap;html=1;left=0;right=0;fillColor=none;rounded=1;strokeColor=default;align=center;verticalAlign=middle;fontFamily=Helvetica;fontSize=12;fontColor=default;" vertex="1" parent="3">
                    <mxGeometry y="240" width="180" height="40" as="geometry"/>
                </mxCell>
                <mxCell id="18" value="Bi-Weekly Summary" style="shape=partialRectangle;whiteSpace=wrap;html=1;left=0;right=0;fillColor=none;rounded=1;strokeColor=default;align=center;verticalAlign=middle;fontFamily=Helvetica;fontSize=12;fontColor=default;" vertex="1" parent="3">
                    <mxGeometry y="280" width="180" height="40" as="geometry"/>
                </mxCell>
                <mxCell id="19" value="Yearly Summary" style="shape=partialRectangle;whiteSpace=wrap;html=1;left=0;right=0;fillColor=none;rounded=1;strokeColor=default;align=center;verticalAlign=middle;fontFamily=Helvetica;fontSize=12;fontColor=default;" vertex="1" parent="3">
                    <mxGeometry y="320" width="180" height="40" as="geometry"/>
                </mxCell>
                <mxCell id="20" value="Custom Range" style="shape=partialRectangle;whiteSpace=wrap;html=1;left=0;right=0;fillColor=none;rounded=1;strokeColor=default;align=center;verticalAlign=middle;fontFamily=Helvetica;fontSize=12;fontColor=default;" vertex="1" parent="3">
                    <mxGeometry y="360" width="180" height="40" as="geometry"/>
                </mxCell>
                <mxCell id="21" value="Download Summary" style="shape=partialRectangle;whiteSpace=wrap;html=1;left=0;right=0;fillColor=none;rounded=1;strokeColor=default;align=center;verticalAlign=middle;fontFamily=Helvetica;fontSize=12;fontColor=default;" vertex="1" parent="3">
                    <mxGeometry y="400" width="180" height="40" as="geometry"/>
                </mxCell>
                <mxCell id="22" value="Settings" style="shape=partialRectangle;whiteSpace=wrap;html=1;left=0;right=0;fillColor=none;rounded=1;strokeColor=default;align=center;verticalAlign=middle;fontFamily=Helvetica;fontSize=12;fontColor=default;fontStyle=1" vertex="1" parent="3">
                    <mxGeometry y="440" width="180" height="40" as="geometry"/>
                </mxCell>
                <mxCell id="23" value="Link Google Cal" style="shape=partialRectangle;whiteSpace=wrap;html=1;left=0;right=0;fillColor=none;rounded=1;strokeColor=default;align=center;verticalAlign=middle;fontFamily=Helvetica;fontSize=12;fontColor=default;" vertex="1" parent="3">
                    <mxGeometry y="480" width="180" height="40" as="geometry"/>
                </mxCell>
                <mxCell id="24" value="Search?" style="shape=partialRectangle;whiteSpace=wrap;html=1;left=0;right=0;fillColor=none;rounded=1;strokeColor=default;align=center;verticalAlign=middle;fontFamily=Helvetica;fontSize=12;fontColor=default;" vertex="1" parent="3">
                    <mxGeometry y="520" width="180" height="40" as="geometry"/>
                </mxCell>
                <mxCell id="26" value="" style="shape=image;imageAspect=0;aspect=fixed;verticalLabelPosition=bottom;verticalAlign=top;rounded=1;strokeColor=default;align=center;fontFamily=Helvetica;fontSize=12;fontColor=default;fillColor=default;image=data:image/png,iVBORw0KGgoAAAANSUhEUgAAAQIAAAE2CAYAAACKpJzrAAAABHNCSVQICAgIfAhkiAAAAJJ6VFh0UmF3IHByb2ZpbGUgdHlwZSBBUFAxAAAImVVOSQ6EMAy79xU8wVlIyXNQVRDSaED8/zCh7RxwlNpyUitpr996H2W67nM7PjVNDW5JXZ1XAAs6GBACPYw8LOtsvmRoCBp+xQuabYvKVmz+ZwHec7TvCISjQnib0/C1vLOenehZ1mCJl0U5LhMLTc0Xib/pB62wLnM7enezAAAgAElEQVR4nOy9aXBc13Uu+q29zzk9Yp5ngJhBgPNMSdRkeZJjV26lXurFceUmqXpJblVuJf+Sqtx6r1Llm5QqZSflipNc27IkS6Ysy9ZAmSLNQTRFUZQ4jyAAAiCIGWhM3UAP5+y9349zTqMBApzEQaT6q+oCus+0z+nea6/hW2sR0vhC4r9efHFNb3d3w9jYsF/TPCPNDQ0df/3Xf33lQY8rjQcD/qAHkMb9xy9+/es1e/fs2fHBB4ee+/jjo6s7Oy6XR+eiwT/+4z9mBw8eHHjQ40vj/iMtCL5geOmll9Ye/fCjZ8+cOv3locHBzfF4bIVSqiwWjRbMzs5qf/4nf27tO7Dv2oMeZxr3F2lB8AXC7t27G997b/f2Y8c+eb6r60rbzMx0PjHySikzJkKhgsnJyQxN09Sf/fn/E9279/3BBz3eNO4f0oLgC4Q1a9Y89tFHR54bGLj2WDxh5gFgTNMJxBgj5iHGMxJm3B8OT4f/9m//dmbXrl3jD3rMadwfaA96AGncH7z88sub9x04sPXKlSsrx8fHsw2Pj3s8HggoAgBucLIsK6urq6t1ZGRktLq6ehRA+wMedhr3CWmN4AuAnS/vbN27f+/jFy9eeG40NFlnSRnQuUYAiEiCoMDAAIAsSC8Y6UpIfOMb34h9+umnPQ94+GncB6QFwSOOiycvVu0/dPDJN99682tX+/rWS4VsTdMYAxEAgJT9xxEEYCAhLP/QwKD/8uXL4u/+7u/iBw8eTDsPH3GkBcEjjP3791e985t3Nh375OjXe3uvrbFMUagxzhgRCQaAEaQEQAyKCBKAIiIF0pVlZZum6dMMQ/zlX/xFeO/evcMP+HbSuIdIC4JHGE1NTdtffPHH37hy5coTiYRVzm0QAMczABAcxYAIRAQQQESkLEszTdM3OTXhu3TxUvgf/uEfwu+//37ogd1MGvcU7EEPII17g5dfe23HyTPnvjI2FtoYjcbKGGOcMUaSAEm2ReBYBQAAppyXbR2AcZ003ZMbicy29Q8Obu3s7Gx6cHeTxr1GWhA8gvjJT36y7qWXX9528tTJLYlEohIAY4wRY9d/3YwxWxNIARFB0zQYhkFKqdxodLa1s7Nnw7/8y7+svU+3kMZ9Rto0eATRWN/4tQOHfvfVqanp9UKYAa5xxrkGpRSESABKAmQLAKYAJ3wApRQsYcKyTGjcAGMcUlmkoAyP4eWzs7Nz/+N//FV49+7daX7BI4Y0j+ARww9/+MMv733//c3jY+N1jDGfpmnkrvqWZcG0TDDGoDFtgSYgpSSllDJNE1JKMKVB13XSNE0xxrIHBwdax8fHpnJzs0NI8wseOaQ1gkcIP/rRj5743eHDX+no7np8ZHiwmjPomqYRAAgh4fF44M3OhOb1AqaAEpLIlgYkpQQA8gS8CAQDACkkrDg4acS5RvF4PDA7O+v1eAzvt7/9bfnhhx9efqA3m8ZdRVoQPCLYt2/fqv0H9z+z/8CBL0+EJpqklD7OORERhBAwExZyc3NRXVcLn8+H2ekZxGIxcrWCRCIBzjlKykpQWlqq4rE4pqeniYHBiTQQY8w7NxsJ9vX14Tvf+Y48evRoOm35EUHaNHgEsG/fvhUff/TRtvZzl3b09/c16LruN3Q/SSmRUBa8fh+MsgCyK8qR31wHOToKfu0azLAJTdk/AUtZ8OpeBKrzUFJZiRg3MS1nFZ9TlEgk7PCiRr6pmen64dERUVxcih/+8Ifxv/zLv/zgwd59GncDaY3gEUBFRcVX3tu16/n+/v610Xg0n3POiDiEEIhbCVRVVaF14zo0NTWhqLwcsVgMoe4+CofDMDQDAGAJC4FAAE0b2tDa2govN2AYOkTUQigUIiICY4yUlEwI4Y9FY4GrV/vov//3P0n87ne/63vAjyCNz4i0RvCQ45VXXvlvr7zyyu+dOHVqo2EYJZphMAAQEGA6g8o0kFNbjKIdrcjIzoYHjMSUBqZxKAKUUkmnoaZp0Ap8lFmVh0KfUGaBpuS0oJ7uXsUIxABIBXBigZGRocahoQEzOzsztGvXrvHnn3/+0oN8Dml8NqQFwUOMf/qnf/rySy+99FxHR8dGIiolIub4BChumiguLlalVXlobGxEbV0dAFAkNAnLsuA4B5NQymYXSSnBOaeysjLk5uYicW4SumFACYVEIgHigK7rJITwmaZZPzo6uv3o0aNDANKC4CFGmlD0kGLPnj2tR44c2bxv376t165dq2JM4wADpCJhWpDSREZ+FkrWNyKvrQZ51fnkyfeCQ0FZ5nXnI6agICChQJzBV5SFksYqyqurRFZ1KXzBABLCglIKuq5D0zTinGeOj4+3nDx5cvM//uM/Pnn/n0IadwtpQfCQ4syZM21jY2OrAVRpmsY1TYNSikzThBACAFBaWop169ahoqKCACypCbhwTQSllPsizjlaWlro93//99HS0qKca0ApBc45DMNgs7OzFZ2dnZvPnDv3+Isvvrjmvj2ANO4q0qbBQ4gf/OAHTxz56Mjm8YlQI9N4gOsaNK6TaZqIWxZ0Q4fI0lVWbQmqNjYhEAiAFIFMCa44mJyX/9JOQQKBQ9lvoJRCnCz4DCLvxnzVtCqDQpFRJfrOwJgSsAjQoKBxTnOxqGfy6lStx+N7vLK8auLtt9+OfvOb30xzDB4ypAXBQ4Zf/vKXa3ft2vXYufPnts7MzFTouk6MMSilXPsera2tqmJLM1pbW8E5J6VUMsvQ9QUshxSNwF35yePxqKamJvrSl76E4bM96OzshGWa0DQNjDEyDCN7ampq5ccfH522rHgIQFoQPGRIC4KHCAcOHGg8fPjwE6dPn37qwoWLjV6vN6gZBkkpSZKE5Aoik1TJhnps/ZPn4fV6SdN0KAVIUsnU41SwRXKBFAMpBiUJUgDQCZqhU+7qSrW21IezinBuoAN8EiBF4HaCEpuamigaHh5cF4nMTP/7v//79F/91V/tvi8PJY27grSP4CHB4cOHV+zbt2/z4cOHnw6FQk2GYQQZY6SUIiEEiAh1dXVq29NPo7GxET6fD5pmy/kbaQGp21J9BO57KSWklPD5fFRYWIi6ujqsXbsW5eXlYIzBsix3f0ZEJaOjoxt37979pbTz8OFCWiN4SNDV1bXmt7/97ZfPnj27gTFWpOs6IyKYSsKSAgkPVHFrDRqf34ac8nJ4An5SSkFIC4xYUuITJOxaRDYkyQUCwOUUMMVBkoFghxT1LD9y8rNoprVaVYppaCZhcHoMYs5OYlIEEGee0fGx2t173jd7e3sjP/nJT6J/+qd/euz+P600bhdpjeAhwA9+8IOv7dmz5+tDQ0PrhBBFRMQAOwrAGENJSYlqam1FXV0dKioqkJGRQakr++3APWbxsVJKWJaF7OxsamxsRG1tLQoLCxEIBJz0ZgHGGHHOfVLK+qmpqR3nzp177P333195Fx5BGvcYaY3gc46f//znm//1X/916/nz57fG4/FKlzSklCLLsiACXOXVlKJwWwty19Qht6o4qQm4UMopOgCAgxb5BRiSGwFAaVCSQxGHBIOSEgQGS0pYUkIvDKK8oJaiozPKf+0y4uEoIqEQmCXg8XgguSIpZWB2drbp9OnT44ZhDAG4cB8eVRqfAWmN4HOOU6dObR4cHHxibm6uHoCPMQYhBCmloGmaysrKQk1NDZqbm1FQUAC3ClGq5999fzMsjhi4cM0FpRQYY9B1HSUlJbRhwwY0NTUhGAwmoxZEBF3XmWVZef39/atPnz792A9+8INn7v6TSeNuIi0IPsf4X//r//vGmTNn1kcikUrijGmGDs45SSkRFxY0rwdGcT4KGmtV5ZoGGMWZMIUJCWkXIQKDAqAASOdlkYLkS4QPFkGR82IEAQWAQMQgIGEpAWNFARqe3oiqTa1QhUFYULCgAMWgcQNSERscHClub29fd+nSpc2/+tWvVt/bp5XGZ0HaNPic4kc/+tH2d97ZtaO3t3ezZVllnHObLyAklFLw+fyqoaEBhetWqoqKCvL7/ZBSkmsSMMcB6Gr9t+MvuBWugdfrhWEYJGpq1Jo1azAifBgdHUU0EiUnWqGEFL7p6emGc+fO7dB1Pfz222/H0mSjzyfSguBziLd+85uW/Xt2P3b+4rkto+PjFUJJrmseQIEsCJhKKqMkiJrtq1Ttcxvgzc2BUJIUFGgRWcBd2aFshx8Us1+3CEW2RuFWPHZPbxk2jdnXkE8rvZtUTkYQI4cOwZqeBuMA55w0nUEomXXpcvvKsbGxaE5OzlR7e3uiqakp3T3pc4a0IPicYdeuXSt+d/jw5vMXLjwRmpiojcfjXrfcmBPPV6WlpShoqUVdXR1KSkuJcw4rmUOgkn9SaxK6ocHFFYtvhlTtIFXDAOzzZ2Zmorq6GsExC/39/Rielmp2dpYSiQQcngOmp6eLo7NzG06dOhXPy8uLA0gLgs8Z0oLgc4Zz586t3rt799OjY6E1wpT5BjeIQLAAJCyhtEIv6resRvH2lfDWFpH0eiABsveYX7mTE17aXgJFBOX0NJBLMQydlyIAjOZ9BI6JwZ1zumKBJAAoCL8GjzeTgg3lqjzSCk0wXL58WZl9YdI0DRr3EiONWVIUHT95Yv3Vq1dnvve974X/5m/+Js08/Bwh7Sz8HOHHP37pqydPnvx6V1fX+vHx8SIA3GX36bpu1xysrkZzczMaGhqQk5MDxlhyWi+27Zez9W+mFUgpF0QblqpdkMo+1HUdOTk5VF9fj8bGRhQUFMDr9SonwgGnMCIfGhqqOn369LZTp059ee/evTtu9/mkce+QFgSfE/zwhz98+sUf/59nTpw8vdUSssKd4KY0KW7FgTwDlWvrUL6lFRnNFfDmZUH6dFIyAYIFpQhEfH4lT05k+0WKOS2OpLucO7B1ATeqAEgQzQsBBoATQcLOVXD6Iya3C4fZKDI15NaWUPGaOuQ0VyCnuBDkNVTCjEFBgDMdjDQOoOrcuXPbXnvttSd27ty57v483TRuhrRp8DnA4cOH17/805ef/ejoR08xTW/QNI0REUkpiYhgGAbl5+er5uZmFDY1oKCgAEYgYBOKlGMSEHP8AEtfI5U+fDfhageapiE7OxvBckX19fXKPziHRCKBucmwe21ijCnGmL+3t7d+YmJiW2Fh4SCAk3d9UGncNtIawQPGa+++2/TKm29sOX3h7FZJqpKIuJtMZJomlF9DVmm+ym6uQMGqFcipLYGVqcEUCUgIuCt6amERYD5asLjHIbDIAUgSilJzD5jzcvwJQDIzYQHZyIk+uOcXTMIigXiujpJ19ah7fB2MqnxIKZUdrVBgRGR4PUhYZsbk5GRTd3f3updffvnpe/qA07glpAXBA8aZUydW7d3z2x3dV7rbiCjX8eyTy+0PBAKqqqoKdXV1qrKyEvn5+TDs1ONlfQK3wya8G3A1DSeqgaqqKmppaUFVVVXSXyCEAOfcrXfIZmdni3p7e9d+8vEnW1977bVV92WgaSyLtCB4gNi5c+eW3kuXNk0ND62MxxI5hu4llzmoIKAgYFTmou6xNap0TR1ZuQYsKUhCIVUTcKGUSq7Q7su17d3ti3kEizWGpSjGS4GcF1MMdotl+9oWkxBcwSoJouaJtVj3e19CsKkKCSuuhLKSZc50j+EZGh6uPXL0yOMnTpzYtH//kdq79mDTuG2kfQQPCL/4xS/ajh079kRvT++W6ZmZSl3zkLvSCyGgaRo8Ho8qLy9HW1sb/LWldv9Cpx6hG9B3qxMBzsq8SBugRQzDewmlFMjps5iRkUGtra2qyVOKmZkZTF/oBtleSCIi0nUd46HxvKHBwVU5OTmh+vqmCQDpzkkPCGmN4AHg0KFDNadOndp0+PDhpwYHhxsN3evXdZ2ICFJZsEQC/qZSte5bT6Pm8dUQJQFKaApxvgQDQAqQksnXUliqHfqtw2EYuJqEo0IIAgTZ9QwkSTDFwMGhlIRSEnFDgGUZhMogijbWouXJDQjUFCAejyu7uKokzolphl5w9Vrfmnffffupf/7nf37qMww0jc+AtEbwANDR0bHp+PHjXzl+/Pgq3fDmGoaxYIITkaqqqsLTTz8NT0sx/H4/LCK6XZvfJgA5BUfu0tivZyjSdeaJvQ+D1+tFRp4HTU1NKIsayjRNGr/Y52gpZHdl1hjv7++v6u7q3qYUwrt37za/+tWvfniXhpvGLSItCO4zvv/97z//m9/85stXr/Wt0wy9iHEQSNqhQCEQqCtXFRUVKNnSAqrOBQ96IDQiJm2rnCs32u9i0WpPtulA0ByTYGnhIV0jfxkoMNgsArHgc4IGKEDNcwxBxJImyXwXPZuIFPVI8pVkKW6uoOzpIVU5OE5TU1MqFgq7bdQAwA+Ghs6ujsSrr75q/cd//If4i7/4i6M3fpJp3E2kBcF9xL59B5/9t3/73td27969jWm8yik3Ri57LxGPo760FNu3b0fGygrk5+dD+hi5dQFvhwdwLyIG9vWvP2+qxjE/xvn6BHl5eRQwCtTo6CgZ3ROqs7OTrg1PKM45aZrm+g4CnV2djT3d3dbExETo0KFDUzt27Eh3T7pPSAuC+4RXXnnlyddff+1rXV1d24QQlYx7GJRGpkxAKQVPXhaKcqpV7uoqZLWWw1+UA9MAmMMYhJR2/UCX9eec9zqOgDslU4sOKWWb+Cmf8cUEw+Tx7rkllBL2cXA1kJunJ9PiEmckAQXMeRXl1BYr7Yn1NIhZ8Mt9kJZUFplEABmarqSUWZZltYyOjm45dfx4P9Jt1O4b0s7C+4AjBw+2/upXv9r8+uuvP97V1VVLRF7AXj2FEDBNE3l5eaqpqQn19fWoqalBdnY2iIiEEPeMFXgzuNd0fQI3y15cbpurnZSXl9PmzZtRXl6erJBsWTYz0jAM0jSNGGOZoVCo+cTJk2v/8wf/maYg3yekBcF9wMnz55uHhobWh8PhBiERYFwHYyApLehCwUccvroCVG9vRV5NMSw/AYxoSWag4oDi18f/k0xC5rwWbl9u/+VhRwvmj3NzEFK5hvO4PqvRPp5JDiY5LCYBgyGRq1PR6hXY8K2nUbiuDprBIZQFRQDTODTdw+bmYpUX29u3fnr6082//vWv0/yC+4C0aXCP8fLLL284ePDg2lAoVE9EAU3Tkt2HLMsCc5qKlpWVYf369ZjN4VBKkZQp3IBFWM7+T+1odDfh5jDcSuWiefNhPrqQymMgIjQ3N1Orr1zt27cPH3cNKMuySCmlnExGmp2by+zq6mpRSm0rLy8fQppfcM+R1gjuId57772Gjz/5ZNOly5e2zIRnK7lmEGmcFJtXsxURhFJIeIlkUAfpjESK8a6UQOoKvGxqsQLYDYWAvZIzReB38LUru1DBstuZcrsmaUhdX9zxMtjswwQX8OUG4WssRfaqGlRuakWgtkQR5zCFAEhCQbBoPJY/Mja65sSJE09997vfTacs32OkBcE9xNmzZ9eePHXiyY7LHSvn5uayDMOgVDubMZbsJGSaJqLRKLk2s4vFVYaWw51wDD4rlvIZLOVLWJAM5WhAgUCA6urqsG3bNtTX14NzjtToiKZpPBwOV3366adb9+zZ88yPf/zS1s884DSWRVoQ3CO88MILXz9x4sRzg/0Dq8KRSK4pBQNnRMQBMChG9osTTCWQ6J/AyLkrCI9OwxAaOLHlKAAO3JpCC4XA/Mrs2vKOra7sV+pxi8+TisU2//KOQvs6dmEjAlMSLIXhyBRAUiVzEoRSAGOwfAxGbgD+qmKwouwkVdoVBIwBphkPjE+Emjq7u57+6KMPv/Tzn/98w42eSBp3jrQguAd46aVXn92/f/+XP/nkk23hSKRS13WeSvNNzQNwV8uBgQGcOHECAwMDAG6NFny/IwlLZTsupYnc7DNXCwIRGYYBh0sAzOcy2W/sDwOTE5ON+w8ceOqVV159YufOnemy6PcAaWfhXcavf/3uk/v27fvGhQvtTwwNj9QahsEZ02BJ6bQhs5l6jGmOIFAgUhD9MxhKdCGrsgRyxRxEngeMCMKVB3Lx5LIgpbI5BgCIFJSSkMSdLMPr+QTA9T4H+//rBYqrWbgVjiRuHMJMHR0RLavNuJoBWQqR0AymOq9RbCDktkxLuQYjAIpzTqZp5l7r612ViEcj69evnQBwZtmBpHFHSGsEdxFvvvnmutde+9mWAwd+u31qeqqKMcbdSkOWZSGRSMA0TZimCeFkEWqaBl3XEQ6HcfXqVQwMDGB0dBSRSOSm/IHbiSjc6Jj7CSKCZVmIx+Po6enBoUOH0N7eDtM0wTlfwF1gjNkFUO0qztlzc3Mrz58/v+3f/u3fnnugN/EIIq0R3EWcO3du00cfffjs8PBwC+e6x6ktQIwxkB/w6V6wYACcc6iJOcRiMejQwTlDYi6OSDyCSMcghgs6kIFaZNVkwMoElFSgpMx2V/OFMtz26t9gxU56/VNDfDeHpJvtfeO1RNL8eIkIGjSEZyNgg2FMtl/F0KkOROfm4NE80JgGJZ0RutEGTsQ5V1LXKGGZRV3dV9ZxXR94+eWXJ77zne8cv+UbSeOGSAuCu4Tvfe973/rggw8em5ubqyUij9uLwLQs+Hw+FBbmoKSkBKV1tfB6vbjw4XFcuHABXGPgnDuZeBp6enowNzeHBiOK4uJi6Jm+W8oeTPXMf16wmD/AOYdGGoaGhjB0vB29vb0wTXOBI9KyrGQVZSKCTtzVDBQReYeHh+uEZW2tqaoaAJAWBHcJadPgLuCnr/70iUOHDj3Z0dGxJZaIl4MREWNQAJkyBu5lCNSXqPJNLarymbWofGYt8laUAZkegAOmNJMTJdo7iu6jZzBysQdiNAwrZoFJBjABRdYSUYFbVfcd7/6y+y6MHrhRgyRjMckqvDEEs1+KkRN1cBiKkqAsBTZrYrJvGAPHziN+ZRhKCHsPIigpYSEB0hW0XB/0PD+YpkHYzVeJiGh6ejrj6tW+5gsXLjz+wgsvfOMWbjyNW0BaEHxGHDp0qP7C2UtbOjo6toRCoUrGGNd13WEH2q1HMjMzVWNjI9asXo3y8nLk5OSgqqoKDY2NyMrKQiKRgJTSrekHIkIkEkF/fz/Gx8eXcKTdOm6l7NjdRmovhNT6BeFwGENDQ7h27Rp6enowNTWV1IZcTYAxhpKSEmzbtk1t27ZN5ebmKtM03fsgTdMIhILOzs41u3btevz73//+E/f15h5RpE2Dz4iPP/1004UL57b2XO2tEkJwwzDAGKOEJcA4A4I+FSgvRN7qWuSvrSfyapibm0N2czEKY5WQkSiGRwbAGYeh63Z5ckaQo2GELvdBZXtQ7M2F8tidjQVz6g0s6l9oawlu5+LlsWxi0KJqxhwKTMkULkHq9a6/hiSAnNyIBZsZAYzAYkB4fBrmpUFE2gcQ6hsGADhCE5Ywoes6ZJ6OjNp8VD29CkSEoYlhWNMDSk/AjiLYYVVPX19fXU9PT6y6ujq6e/fu6Fe/+tVPb3jjadwQaUHwGfC9733v67vee+/pa/3X1jDG8uGEvoUQkFKiqKhIVa1rRGtrK3JLSpIZd5xzlJaWIh6Pw2wfR5dzPmWrwDAMA6Ojozh27BiqMkwUFRUhkK0DWOgOXMovcDd8BZ8lspB6bbdFmhACIi5w6dIlXNnzMfr7+69jIAohUF5ejqotDWhpaUFxdTWEEIitXg3GGMY7BtXY2BhI08AYI8aYT0pZd+rUqR2JRGLmxz/+ceLP/uzP0mHFO0RaENwh9u7du+NnP9v55UMffLCZc15uGAbjXIOlCBIMQo+rYHkuap7bgJrWVmhZPlKcQSlb/fVXFaI4yHHl6HnAR1CWgCAzqSqbgyH09A7BU5gFrNwEFGZD13UIbV7VT510wo3zM8fN7/IOFANAN22PvnjyJ0lP7gqf3CwBOExBh+fgVk9WSjlVjeB0VAKYULZpMxHD8PlunNt92A6ZegxbMMLpr+glZFYUYsWzW7CipQXePD9Fo1FVEmvEeCCBxOQchsYGoUmHg8EZSLHsC5cutp49dzaWkZEx3d7ePpPutHxnSAuCO8BLL7209Wc/e+2ZixcvbOWcVzp8Abu2gFTIz89XOTVFaGtrUyUlJeTz+aA0zZkoKtkvMBgMora2FkMbNiDcO4KhoSFopEHT5r+WcDiM3t5e5OVzFBUVQTd0u/LPolqB7kReUNEYKRXEFu13u7gRp2Fx9eTU1V5KgdHRUcx0DGN8fHzBdiklTCGQk5ODjNI81NfXo7CwEH6/H8rp8FRcXKyi0ShQNYFQKARzZhbRaBSM2VmcAHKEZbV1d3fPvPvuuzNId1q+I6SdhbeJK1euNHz8ySebX331lafOnTvbyHUtwHUNYAShJEw5h2BBBqoeb1MV21dSTlUxtNwAMZ1BOPX/iAjw6PBkBpHVVo0VT65HfmkxLGEmnWzupJMTYYSu9GHm2jC02QSIM6dbsXQdAwvg1g9I1htI6XW41ES+XcEgQVApnZCSPRRcIpCdXAAlCYw06AmGiWtjGDrdBWtg2mmGYG8Tlu0b8GdloHBNPfJX1SKrNB880wsiDl33IKu6lEpa6pDbUA5/ZT50jw+JhEWO49ClIRd2dLSve++9t5944YUX0p2T7gBpQXCbeP31X26+eP7SU0KIRqVUgDFGUkokEgn4/X4UV1aitrYWK1asQHFxMQzDwOKuRK5X3annh9raWuTm5ia3JWPouo7p6WlcvHgR7e3tCIVCiMfjCzzywM0rA6W+vxv2/61UKwKAeDyOyclJ9PT04Pz585iYmIDh8diEKncsSiEnJwcNDQ2oqKiAYRgLIh1O9yRqamrC5s2bUVJSkhyL+wwNj4fPzs5W9fX1b+3o6Ni8e/fuxju+yS8o0qbBbeD//d//+7nX3/zlYwMDQ21glEuckSKCJSUSiSiy83OQ1ViOvJXVKGypIX9BAUxlkRAmuOM4g+PMk0pAQcFXlo2SXA+6irIBHZAWIJQC5+mH3BIAACAASURBVAy6xiHHZ3B1ZBIsGIBZsxaqvAjc0ACP6wNwcwXcSbmQyUfKzgy8V9Ri6RQsSVVOiAg8ASTm4pCDM5i42IfeE2cc34AHdhdlu5cTdAVfYQYKV1Uio6IAysNhSsu5HQVBJrSAjuwNNVRT6lGDPX3AZaWkZTeCYaRB0xnm5mJ8ZiZSdfny5fVnzpzpAXD5ntzwI4q0RnCLeO+999q6Ozu3DQwMbZ6bm6twawsIIZJ5A4WFhVi1ahVqa2sRCARctXXBCqcW2dKcc3g8HlRXV6Nlq13PLzUO72oboVAIXV1duHLlCubm5u6IV3CrEYUb7XOza7qaQjQaxeXLl3Hs2DH09fXBNM0F92SaJgoLC9G8aT2ampqQlZUFwzAWjDG1boPH40Fubi6tWrUKa3c8hoqKigX1C5zchKzh4eHWDz/88IkXXnjh2Vt9LmmkNYJbwv79+6uOfHxkc8+Vzs3TofFKTdOYoXvtwqIJASYAoQEZZfmo3NaK3IoKKA+nuEgAsH/QkpxuxUlvPgACJCeQriF71QqsCihcff8TXB0fhCdG0Nh8/QAxNo2Bc5chsjhWZBSCF+ZAKQvgdqiSOfOTwZ4U4haJRMmJtHwLhOv2T47fGV1qsiPAwBgHn0rg6sl2dL9/FLFQCFxxMOlEGoSAhRgKagpR+/wmFNbXw5uVAYvPazbzZowtPCydw8gKoOSxlbS2PKgu/vIQevq7QYqDEQPTOIgzNjAyUjk8PrbVMIyZN954Y+4P/uAPPrr5XaWRFgS3gBMnTmz65NgnzwwPj7YAyCQbtoorBEpLS5FZV4iVK1ciPz8fHo8HcZpvDLKw5t9C7z6cH3xeXh4YY4h8emV+slgWiBE0zSYhXbt2DfGrAdTX14PN2cU8OHdrAtKi6y26Dm6NZXij8OJ1DVcXVSECAEsIhMNhREbsKMjo6Cgsy4LmRE0SiQS8Xi+8wQDKy8tRV1eHwsJCMG1heTNyx5uS/sw5R25urp3B2DCE4eFhxMZmMDk5Ce5kK5qW6YlGzbqurq7owYMHoz/72c/Mb3/722my0U2QFgQ3wc6dO5974403nj127ONNiUSi1OPx2EKA2Sw+U0ugsLUSrX/wNEqrKqFn+pDgktwVM+lNd8J9yRxCNyrgOLyQ60VmViF8hVlQHkCFBSxLgWk27ZjFLExeG4LRkYG5ujEkKksQDAahgrbq7J7fnaDXOfYgwZZY8m+eyixtxiAxhy/gjNetKER21yOmbP6DMRtHaGgSU10DMIemEJ+NQNM0cEOHaZpIWDFkF+TAU1+EzPpyZFaXQMvIsIlHSoAr9/m4AkEDgSDd62Z74PflUP76WtXgiWLgwwsYnhyBR2hgjIEBpHPu6+vrq9+1a1csHJ6a3Ldv3+yzzz578W78Hh5VpAXBDfD6668/ceTIka91d3dvnZqaquCcc0P3w+5YLJGXlwe9oBxNTU2oq6tFVlYWLI3T4pVzKaTatm4dP4/Hg9LSUjS1tWGuYxijo6OQDttQmBZM08T4+Di6uroQKfGhtrYWWZk5dlTiusIldxc3ilCkah+RcBhdXV0YungRoVAo1X63d5YKBQUFqGxtRUVFBfx+PzRNg+X0b1juuu7/5PgLSktLAQDatYgaGBiAmomRaZoAAMYYi0ajudPT020XLlycO378k+ihQ4eiO3bsSHMMlkFaECyDgwcPrnn11Ve37T90aNv09FQV1z2cMZsLkLASMLmF+tpmFD3VprKbGkjPz4BlaEnn4HUdiNxwmPsBs1dSV3MQJCAhEWytxLrAs+jbewL9H02CT8cBzGf/yZEp9H56FjEuUOPJAa8oAJGERaZzYlsZYUDSV5CKpRiES05uzMch7JVfgBzWon0vrulj2/1M2AQhMTSNq59ewNUPT8CKRsF1HSCar4GoA3nVJah9fBUyioqSBVzhmANu/QJXdyJFSVIUEcGUwr5eeRYVFHjVZP8Y8iYHkLg8ooaGhojBLvbi0JBzBoeHVu757Z7Q3FxsFGmy0bJIC4IlcPDgwdYjR448d/LkyWd6erqbDMMIaJpGrurt9/vBsryoqalRdatWUUFBAVyTIanq36at7WbeuT4G1hHC5cuXEYtPJHkIjDHEYjEMDQ0h1hvA2NgYfLPltuqts6RXPvXciyf6jTSUGyFp4izBYGSMIRFNYHJyEiN9fejr68PI8DAMjyfpG5BSIjMzE8jNQ2VlZVIbEMB1414OqT4Oj8cDr9eLqspKamtrU4MzDCMjI0pa1rzbkjEWiUTK29svb84IZI3s3Llz5A//8A8/vqWLfcGQDh8uwtGjR5vffPPNzW+++eZTvb29jQwIcCLiUoNKAHGYyCnOQ8nGZpW3uhZ5K8qg5QWTiUaQaon6gktMIMVtj7dT7x9SQQkJlaXDV5KFQGUBMmuK4c/JQhwSQihomgGd6YjPxREfnsJs/zgigyFgJn7dqk6p+QaYZxoulaSUOi7mCDGmAA5KZg8SFBjBrje4oLwxBzENcmIWgxev2JGNsWn7eOdSlmUhjjiKq4pR96UNyFhVAS3LD+HltrawQFgtrIuwXEcmCwKmssioL0D9M+uR31itEkE9hWhkMxOlBJ+ZiZRcu3Zt/fnz59fu2bOn5ma/gS8i0hrBIrS3tzceO3bsydOnT28iomymcQIAKSU5fAFVUlKiKtvaUFVVhezsbEgpyRSJBZWEllv5l5uIcCappmnweDwoLCxEbW0tRiYEpqenIWKmXfKbANM0MTMzg56eHkQ7gmhoaEB+vt/eLpZfXW8UEVgqyrDk8SmagDvphBCYnJxEV1cXRq5cQSQSSfoE3MgKNLvOQO2aNSgrK4Ou29mUi1mSt4JUTSc7OxvZ2dmIruhHzYoVau7qMMLhMClhP0uhLCQSicDY2Fjj2bNntwcCgWGkTYTrkNYIUvDWW2+1nTl3bs3k1FQziGdpuocMzQMlQGYiBiUtSC9DflUJqreuhF6ZTaYyyUJKUxInIL+Ucy31xy6ZtF9Q8wWHiSAkYAkFVpGHsk2tKG6ogsowoAgQTr8AzjkwFUP3yYu49NuPEesagSYZuEgp+QWCIDa/vioGKLbA9geWWHHtEAEEAZJRUrMgwUCCQZJ07HgGxjSwqEB0fAaz3cMYv9CDie5B8LAJw/ACYFCmBRIS0gAChdkoXFkDVpQBoaR9PxJgYDZBUlGyAlNynIs0LFIEUvNCK6FLMg1Fmesqaf3/9QzqNq9WiQxdCSmTjlZd19lsdK7o3IUL6w4fOfLkf/3Xf+2409/Io4q0RuBg/5H9tfvf/2DzhQsXtkRmIxWcc3JSgpPdh7KyspSvIhfV1dWoqakhIQQSUiQ1gaV8A4uTiG4EW1DYQiQ7OxsejwdGZwh5eXkITyeS52KMIR6P4+rVqxjW5rB69WoUzs3ZTjKD3zTV+EZ8guWiA0s5FYnsSkrXrl3DQHc3BgcHMRMKwTAMGFxPdjrOyMiAXpyFkpISFBUV2VqEI9QI834Vmw9x08e05K2VlpaqnJwcdIxJ1dvbi9nYOOyeinb9h3g8zvr7r1UJIbZWV1eG33rrrdi3vvWtY3d0tUcQaUHgoP1E++rTx48/1dnZsSoWi+Xpuk6MMZIQdtWg/ICq37gGJU+2Idi0ghKwoJiieZsfjhBYONlSVeRUZyKT12sKBEAxAQUJ4QV0jxfemjwUr62FX2oYHByEFbYnvE4MCgQeFYgMTyDUPYL8/HxopUH7pCmJTkopcKYANU9yckHu6ut0YHJXYu7Y+FLZHAU43n3l3A93OifFesZw4YOPEfr4EtTAJHTOwYngPjczg6NxVRMKHmuGv60CRHYlZVKu9rJQwAhXPi0TdXGbvDJpH2cx+zmLAIh8HmQ0V6AhtkmFPr2Mrq4uiKk4aZoGRhpxBm8kEq4/evTjWHg6PPnWW2/Nfetb3zp3mz+VRxJpQQBg586dXz24f//XLpy/sHZgZKjQLTIC2EQav9+vAgUFWLNmDVY+vQOapiGhFC2c7LdG1rmRZkBEUI5GoOsGOLdrEDQ0NGB4RGB8fBxxEXbDY3YBE9PEyMgI9O5u6LqOorIM5zwLsZyP4ma4nvvvCDRh5wsMDw/j9OnTiFy8Aq5p0FN6E3DO4QkG0dTUhJbHH0dGRgbEDfgCt5M7sdjk0jSNNE1DRUUFiAh9M1AjIyOYno4CjnTWNI2i0WjmuXPnWkaGhmdrampi7e3tiaampi98gtIXXhC88cYbj7/33ns7zp47tzUSm6vkuoeBcSipyDRNsAKvqq+vR/6mRgRay2AGCBZJcu1UAncSABeF6haruinZh8AisZHyGSlbtbfILuaJPD+KWmpgDoUhey4Bo86k4ToYV2BRiYFL3YgqC+UUhKwrccblqN0pbcqVkilVkJ1P541xABIctp0+X2dAJs9CBOgEMEaITs7ajVh6h6BPx8BBMJgdBTBNE+T3ID+/EP6WUmTUlUEvzIQ0DDDX0edoUPMNmWh+PKmPxmUaMtf0csbtto1XBALBIgUhLTLzDQR9RSgI1aBoegAG4wiFQrDCyQYqBCA7HA637t+/Pz49PR3et2+f+eyzz3bfzu/mUcMXWhBcvHhx3S9+8Ysv//a3v31qZGy0wTAMrmk6YPvwAUAFg0G0traqFds2UkFBAbiuk9u7bymb+UbvbxVENqVWSomMjAybt1A5hYyMDESdrEMppa2ZWCZ6e3vRMzuGuro6lMTbYHcHYtdFLW7n+kvdiyvoGGMIh8Po6enB8OAg4vH4/DHu2IhQUlKC4sZGlJeXIzc3F6ZpJv0Gn0UDSEXqeaSU8Pv9lJmZiWBNHKFQSF2bEpiZmVExc45sLYoAgEUikZIjR45suHTp0mRZWdkEgC+0IPjCRg327NnT+tOf/nTLBx8c3haJRCsJnBM4IC0SZhwy6FEljStQuqUFWW1V8JbnQOQYEMr29NtVggBGCnQL9f5vHc7KrGw72NIB6WHwlOeiZlMrVqxuBs/2J1NwNRC4Aow5ifC1MVw91Yn4UBiM6wBxKNsdv4AQtCBZKCXrcHEW4oJjIMEZAJOQmDURvTKCq0fPYfBSN7RZC1wznOsJKCWAoIHCFeUo2dAAlGUgYSVgyZToivP8XCyOXiR5D4s+d6MYtp7iRBCkXRuRCQULFhIyQVZhgIrWNlBp8wqwHD+gFIRlQZgSGtOhewzGNF4khFjb1dW1Yffu3avu2lf4EOILqxGcPHmy7cUXX3xmPDS5jjGW4Za9soSAaZoIGgZqampQ1taEmpoayi4shGmalEj5MTPGktmDS2kId4rU1dvtgFRYWIjVq1djKMIxPT2N2aEpO/tQszUEy7IwPDwM1dkJn8+H7NoiO86/FBvnNuBqAq7T0xIC0WgU/f39OH36NBK9Y9B1HYbuknls1d/r9dq9G1pakn0LAIDR9a3cb/WZ3MzH4X4PQghkZ2dTVlYWggNz6tixY5iUEpZlJXtHaBqHUoolEomKjo6OTUeOHBnav3//7DPPPHPlDh/VQ40vpCB44403nnznnXe2x2KxJsaRoWmMCESmaYJrDBkZGSpYnYfStmoUtNRA5vmRkBZZSiyoz+fGtxcnEH1WpJ5LSgEiwMzxILiiGJn9IcgLPoAkFAQAzW4lphhCA8NIHCOs8OYh1lJjj9P5hkkyMMVveN3UsSc1A3KyG8l2AkZ7hnH58mWMnO2CPhGDqexYg1LK1lJy/agub0DuhloY9QWAwex+y+p6c+OGz0At8d7xKRARlLAFr9ul2fUxkFP3IcYsEBGx2lysfH478nMK0dHRgVjfuGP0MWjcIGIia2Cof+VHRz6azMnJGQeQFgRfBPz6179e/8477zx28eLFLYlEosLpq0fCsn/Imm4gIyMDpWVlaGhoQEF9PZRSlHB69C3GndrhqVhKgKSy56SU8Hq9KC4uBhWH4PP5ktuVUnYNQCIMDQ3hangEK1asQFkkAo/HA1278eRfbuzJ9GWyayPYq6iG4eFhHDt2DDOXexGNRufHL20GYdDvR2trK8o3taGsrAyapsH1qaRe51aYjDcaq6uhsEXRA2ILn2VxcTHt2LFDjRnlmJ6eRu/VseRz1TQNCor19/eXDvUPbayoqJh4++23J775zW8evO1BPeT4wvkIzp4/v+nchfNPjoyONxLTAow0h3UnoKQFVpqpara2oWLbSlBlFiRXJJicZ9ilcPjtH9w8N/5OBcHSx9nndW1kyxBQPkArz0blphbUblgNrSB7XuUGACmBiImpq8Po/eQCYn0hSBDA+HXXIeILjO/FE9NlPCoCuK4hEU5gYmgCkd4RhHuGEZmcBpeAxhikZUFyhUB2EIHKAuTUlSG3rgTI9VxXuHWpa93RM1vMiHS/G0uBSYJSEkpJJAIcPD8If30+KrY0onbTSujFGTCtOKSyoIhDgjFTitJLHe0bd+3a9firr766/o4H9pDiC6UR/PSnP/1vv9mz+4n29kv1woLfqYtPLmcegMrLy8PGjRtRsKEJgUCAXNt/qdyBxbhbPoIbITc3F2vXrkVFLIDDhw+jf2A06UcAAAiBgYEBRE+dgmEYqGuyU31dps6CSbjMeFNXb7c2YiQyjbGxMQwODtq+iMisfU0iJBIJeDwGMjMzUVRSgvLychQV2T4KsSiz8G4IgaWOp8XbaH78Xq+XfEVFauPGjRhWWThy5AiuXhuDYRjQOIemaQQpfe3t7fVXOrt2BIPB8UuXLoWbm5s7PtMgHyJ8YQTBiy+++KWDBw8+c6Wja6OVsEol4wQnm86yBIzSHFVVUoLi7U3wNRbByAuSRQRyVXTY9F/pFAect2Fdtt7dFQKk7Bx9d9kjaa/qiSwNGTWFoJEwvO1BeLgOEgpCSTBwaASExydhnunCbH4VYmvmoAWDgG7bz1DC5gUoAUAmef0u3B6I5Nj+UtqB1LnL/eg4dQpDl3vBIiYUAE4EAUclz/WjrLUOBWvrwEozoHRumwTCqR8gASUliLNFmskiAevyCu5QTswf7wgcpqBIwcrRKcgKVH40jpzJq4hOTCMSiUBE7NAn55xisVh2OJ5oPXPmzMzbb78bAZAWBI8Sjhw5svH1119/eu/evdvi8XgV55wTs8kljpdZFRUV4YknnlB5m2upoKAA4AvV6bvtELwVpDIE3WsahoHc3Fz4C8PIzMyEx+OBaZowTdOmHms6ZmZmMBqbwuDgIAomJsAYQ0aWf2HY8Ba0AfevUgpXrlzB/v37wUbmIISAYUdZksdlZ2ejtbUVRatakJWVlTQJUjWA5Xwhd4rl8iIW7yOlhK7ryM3Lo8xKppqampAxZqGzsxMjEwOk67pLNoJSKu/kyZOru7v7Jv7+7/8+9N3vfve9Ox7gQ4RH3kewd+/eNQcPHnzqzNmz20fGRqvC0RhXXANJRcoS4DmGKqwrQfbaapWzroYyV5TAyvY44WnbTpZ2CU0oLFXtd3E+393BvA3s+CCcjkWKw04sKslCbusKlK5pACvOTE5gjTRIUwKTUUxcGUDfR2cx1zEIy5J2z0Bw2yfiIFk5yLkOZ06+gc6hOCEemsNo9xBmeoYxd3UU8ek5GI52YlkWkOFDXnU5MldWwt9YimBZHpDlsdOhZcpEZaksx5ubUYt5BEvxDMBS0qeX4Bu435NSChZTgMGBwiDlNlWibE0jvBX50LkGUoAwLZACabqHzYRnK3p7u7dcau94/P33399021/eQ4hHWhB0dXXV/e53v9v86quvPnup/VIz5zzT8TYnuxPl5eVh7dq1aG1tRXFxMYLBYLITDzC/kqUmDz1IuCt0MBhEW1sbtm3bhpKSkuvHRYTe3l588MEH6OjogGnaFFt35bvRRHT345xjfHwcFy5cwOjoqO2MxHy83jRNBINBNDc3o6WlBUVFRfD5fPP1CVPG7B63+LP7CSEEDMNAZWUlrVy5EqWlpfD7/crN2QDsykeapnEQlQ8ODW48cuTIhi9CMZNH2jQ4+smJjWfOnHmuvb19Fde1XNc5KIQAfBy+TK/yNRahZHMjcpuqieUHwTROQohkd1974Ul1cCXrEN/Xe0ly7p1VVWRpyF5RBM2U8A51IHDlKizLgoybYKSgc4bZ6SmY7WFEaoYwF5qFrut23J3PT1Qtyaa2GY06NHDJoFkEMZtAvHMQgx+fw+TgGLjkYBxQEFBCQloClO9DUUsVClqqwAr8yerGuEWC1Z3yna6rCbnMeZK+Aue5xQwFzesHr82nvFVVqnJ4HFevXlVzXSPEuQ7GGHHOlaaz4NjYSOPx48e3B4PBR76YySOrEfzgP370zFvv/Prxjo6ONQDyiYg0TUtqAhkZGaiurkZ9fX2yC6+maeRmx6X6BFLj4C5uxim41+CcIxgMIj8/HxUVFaisrITf70csFoNSCh6PHbozo1FMTk5iaGgI09PTydqIS/kLXM2Hcw7TNBGJRNDb24uTJ09idHQ0mfWY+jwCgQCqqqpQVlYGr9d7nW8gFQ9am0odk8/nQ1tbG33pS19CTU3NghoNnHMyDIOmpqaKzp49u+7EiROPv/LKK48/qHHfDzySguDgRx81nT13ZvPxT09uGR4dqSTOGIdBymIgYUGZCfDiDFW2ph55rTUwqvLhzwqQtBPwF9iW14cM7ZXzdsKHbrbdrXnCFRbmJkqkah8MACkFQRLco4EKgsiuK0NRaz2oMGu+EAozQMwA4oTpoUmMnOpE+PIAonMJKMmS4xUECEq5X6ZgKQvxgQmMXOhGqGMAc1eGEZ2KwlBGkmCELD9yqsuQXVeKQFUBArkZgIcBUi74US3OXVjO5r8VpB5/3Ta18HX9dicnQRFIAnE/Q1Z1MQq2NFD2+hrKry8Dz/fDEgmAJDSNUSw2x0dGxysvd17Zcvz48Wd37ty58fZG/PDgkTQNzhz/ZFNXZ9eWsbGxKkiTG4ZBymEOCmmH+0pKSrBhwwbo1UXQdd2tRwjg+gl9K97pGyE1ffZuQggBNwe/oI0wPDyMEDoXXFfTdTv2/7vfobGxEQ3rViGRSFyn4STHCSAWi6G7sxtXrlzB2NWrSb5BKoOwvKQEa9euRf76BmRlZd39m1sCd0ujUEqBOcxCTzCIlpYWFD/nwZkzZ9B5/JxTD4I7moHmHRkerj9w4EAskUiMHjx4MPzUU0+135WBfI7wyAmC//zP//zWh0eOPDvYf3VlPBrOYpoBTdMhrQSEFFB5fgT9fmSvLEf+6mpQro8EJCBpWZX2drBcHDy5irGlw4/z+yd3dP7KZfaTdr0Bg5BVlItgC0egqxDevCzbS56QACN4oGFmYhKJ8RCyYhryMvMRn5yBZdmVfh0dI2kCJSbnMNk/hrEzneg9exbxiTl7NWUKQllQnEHzeuCtK0TV9jZktpVBZnk+96pl8vk7lY0kKXCNw8piyGuoRLYvG91iEsaVbpimCWW3rQTXiKZnJnNGxwbbvAHvTHNz8yyAR04Q3BoR/SHBm2+++eyBDz54/tPjnz4ZCoWqLMvijGtkJ6nYK37z+lV49tlnVeW6RhQVFZHyuI/gLoUA3dMso0XIJT53NYaFgih5ohteh2Db9H6pIRKJwD+nYJompsYnbY3AcQwKxiCEwMjMJIaHhxGfmLHzFJjmDNcm/sxpdiWkga4ejIyMQCWkk2VpZzhmZGWguLgYVeua0dbWBm9xls3Zp+uHt2R04i4/5ts9gOb/sf8ouyFKNg9gbm4Onjm7u3Vkcsat+UBKKQhheSzL8o6Njut/9Ed/pA4fPvxICYNHRiM4cODA9sOHD3/l9KnT2y63d1bpus41zSDhTCSZoUHTNORsrMHK39tOMtsL08OdCbgs2/aOoRbP5+QG588iso2CQ/FLCoobU3OVmwXJAc44KNuLgrpysKkohlUYsrPb7qZEPhBn8AlgbiKMmbExO1vR8ELnml0xCAqS60gkLExfHMasNo5YJAxrLgHlMWAYHlixKCwzAZXnR35jFXLqS+Apy4KWE7QrEpmO+eDUEJyvfHRnVlHST3Ob38tyGtlS75WUEIyg+zzQyw3kNlfAjMQwoifA+obtVu4CgGLEyOCjIxOVw4MfIBqNTr382svT3/m/v3PgDm7tc4nPu0Z3Szh06FDbnj17Nh84cGD76OhYlaZpnDmlaNzGI9XV1Xj66afR0NCAQCAAwzDuS1w7NUtwuQzDxZTb5Tzui/cDkMy/JyLk5+ejtrY22THYPc6NBmiaZvPrF7ECASSjBZZlIR6326w5MfUF+xUVFWH16tWoqqqCYRjX1SBc/P/tZmfez8hCKlPUsizk5+dj5cqVqK6uRnZ2NgzDsIWBUw1K0zTGGKsIhUKbT3x6YsuvfvWr5vs22HuMh14j6OnpqT548OBjBw4ceO7kyZMt5NEzNEMjpux4tslMeDweZK6pQeOObfDX5kPl+KBBOj9i+zx3ugLdDLeaZJPcz32/zO6pK15y5QWQ0BQyinLBND88F/IBnwGLCFwJAATO7NCfgGfB9aStwydrCggRd0KMGrjHgJQWlBKwPBxKM2DU5qB0cz28FXkwdQCmCY6UnIGkpkMLxpd6zZvB5m/coWP2lr9Ph+8gJECEGCxk5GciI7cIuaM9yKwoxgxZEMMhAIDH8NmUdGHy6enpqlOfnlhvMK0HwKU7GujnDA+1j+DUqVPV77777ua9e/d+vaOjY1UkEilgumaXIbdsQkt+SQFqa2tRu2kVWltbwbO9bh66MzkdldY96WcUBGoZGm1qfn/qazksngjJ1cs9r2MaSHeb4/DzCo5IJIKsmM0gDE9OA7ArAxERcJPrAq4GYR9vWXadwdKKcjQ3N6Nm80rU1dVBy/Q553NMGacZqnvqpNy7gxChfT8Lj18cubnZaW/2fc7LZUdwkX1uXdjJUhVGDoQQmBoes1mZzNaiuE1r9iQSCUNKGf3r//k/Z3fv3t13e3f5+cNDrRF0dnZWvfrqq9vPnDmzBUAJ55w0xYkEISHi8GgeeKsKULKywEFMnAAAIABJREFUAYWt1cisK0ZMmEgkEiCp7rhsViqW6icILLH6qUVW2P/P3pvFVpacZ4JfRJzt7ht5uW9JZpK5VFZmLSrL6pIsWW13W90zMMbGGBhj4AYM69kPBgaD8YPhhtGYhv3UPSMb3dMPNgaG4EZZPbAsWWXZtahUparKyn3jvlxeLnffzz3nRMxDnHPuQjKTzGJmZTb8AwTJu5wTESfiX7///8mjkYn9EQz/ILhRB+8d5kt26dSzowoG5ycQaDPk3n8fYnkNXAgomtzIhLqqvOh/9ByST7hl3LnrPLEd2KYJdSaJc195FYmL06CpEKjqNjDhHjipc1CPSjA6CT2pZnbc7xHhIR9dpupWUGqwNobmxhAYmcC6UQe7dQd2swbVTWmmqkIsx2ZbmeyYZYvXJ6ent/7qr/5q/9d+7ddeaOfhC80Irl+/eaVWq11ljI1QSiljjHjxcc45dF3H1NQUrly5AjYwAMuy4BzS5OPz0FGb/bihyJMcGEKIH3U4MAb3OkIIxGIxDExruHPnjo8S9LMKyeOhv3JMvAdBmEgkMDMzA5ZK+qHG3rl2jQWfj7keOr+ee33OEK+LIzj0Pq4/RXNrVmrf+AYePHiA7cV1NBoNMEUyDEVRDNNszd68efMNzvkWXvCQ4gvLCP7tv/t3//qjn3x4tVqrToISwhSNUErh2LbE3DMBEdAQWxjH9JdfQkPlMG0LgIt8OwW8wOM2e8+mfYQGcGh6bpfXHej4BPpHTXwgonzPIQ4iiQjCoQGon0ZhKQK244C54VNClb4Lu8VYhRdG9PoOCNiWBYsJQABqOoyhhUlYCQ0c0uMOwK/P0NW/WKb+9jsjj5x953vugDqvPAEzOQ5683CAl/QZEE7AKINlUAzNTSKlhVBLMeQzOyhVS9CYBkYpYYqCRrOZunnz5uVcLrf27//o36//3v/+ez898YCfE3ohGcFbb7115S//8ruvLa8sf8lst0cZY6Q7OzAUCmF4bhILCwuYnJx0veTWU5NST4t67tEF030ceRGA6elp0DffxNraGnZXs9IJKGSHpKPG7zElLxIxdeYMJicnMXPuHFRVheWP63D05VOBUJ4i+SbWIc4D0qVVcSHrROqpFGIxFyvh1jagVLaBE0JQq90eq9frc/v5/TMAXlhG8EKGDzc3s2M3b16fWl9bmTQtizFVJYISOBCwhI1gNITpn38Zr/yrr2N0ehwWcVzAzOEgn5Oqm8dhAo9zBp7kel4+P2inS7FXJ6G7mzIAcCLAiUBdtTA0P4GX/sevI/HqWUAlaAtLViTiQmoCxJaaQJe/gIKDCAeWsMGpQOSVabz6G7+EsYuzaBmd+gUepp8JASYEqFuroXOd3p8noR5n62NyCQ5Sf84GhRDEn6+QBQ06n3YrNnXqTzhQNQYjEYUWC4MqTDqCHQAO4MgcTCIIDMuxzxSKpTPf/e53LzzhVL9weiE1gkqlEK/X63HTNA2ma6420MHDt1otbG1t4cGDBxiNziGRSACsN5TXrY6f1LElvfdfjOTrSLQj3ut6IxaLYWjKwOrqKvKDg8jlcuBt1+5X+KF1AyzbAqUUsVgM8Xgc09PTmJ6ehhmnPY7AL4Ke5r09LamjEXFsb28j9zCDmzdvolarAehhToRIyUKazebQgwf3L4ZDwXsA7j6VAT5leiEZQb3STNm2nUTXtpf9/AgEGJrVBjbfuw6s5aFEDFwaPQceYqCUok2snmt5/gLnhKq+F3c/ykvd2bSPu26v5tDPkPqZVIflHY5RIDIsDps40EMGAlMRBKcHERkfQsFpwc4WZHlyYoCCodOUmUII7gOEjJEExufmkJgbgTEWB5gDi3P/+ugLk0opetBkeDx51/FKpPUyp+5w4ckYdl/4VXDp16BuMVrPr+I6PoUbFVCFAsdxEK0BN66v4sZf/gDb6+uolqpQBAEYBRh1QaBy0zUajdSNW9dfLpTyD//sz/5s6Xd+53eun3ARvnB64RjB9773N6/97d/87RjnfAx9T9tD0HHOUS2XsQlAvXkTwWAQqflxTE5O+p87zBN92nZ/tzf9uNQvdfvH9UjsQR9DYYxBpSoGBwdx8eJFcM6RydfQaDQeGe1QFAVjY2O4dOkSgsPDsg4B6UVI0q5x+RDpp0D9WsBpagTdFaoJkenV3BbY2tpC7eE2PvvsM6ytrKBcLoMIegBlCYBQSoUQgtXr9Ym9vb2pUqk0DuCfGMHTpu3tzPl8Kbdg2XxQ9PUTIISAqRSEA4pJYVbr2P/Rx7h+fwfn/pd/iXND03B0t3WXW33Y8R3Ioo+tHI6I6YkWHGNP9p+34+zj/gN9FOS4m6gbD+/xF3COJuVIjA0j/KaCLKsju7gKy2xAgQOQjgVPuAPCOSwqoBkqAgujGP/KSxCDOpq8Dd5nmHM3i0+QXmDWycnTao72JHQjDb0KTbTv/04HqiOiD0Kq/5wCDudg7kJxKrs7G46BVrsFrdhG5uMHuPu9f8T29jbq1YasDq3pYExqUEII2TWaUAhVJZRSYbedgBBk0LbtwSdciC+UXihG8Hd/93dX3vre/3duc3PznGmaQdJ1Qrx6AtT1BXi4+f39fTQaDTj3pjE2NobAWAwDAwNPRQM4DvUj5J6U+n0cRwlkx3EQDocRmQwik8mgPDkpEYP1plwzN/wnXG/44MAQxsbGMDk5iaGhIVQMWbvgqHPaMU8+13ROTJ/HX0CpFBaUUggm27jXG3VsbW2hupTFrVu3sHj/PtqtFpggfmUmGU0QPp5DdleWC8NlslWi2WwmTnOez4peqKjB1tbW+M9+9uHE0vLDyXa7Tb2efJwDttOGZZtwbCEr9aoEzFAAoqLZslH7ZAUPvvcedh5uwmgz34wAPA8/cPhpOg3/dzf1AQQOeLdPcKVDIhOe997rpgxiQ9UIREJHbGYIU69dxMD5aVBFgWlZEmvvcJi2CUVXMHj1DBa++TpSZ0fRCgoQlcEhoqtyU+943fQCiZx8hFQ/bXIIYB+6bv3rK8mrbERcjIQgAGEUmqPCrlqwNgpY+ckNfPAX/w27P70DYgloVIOmB0CZ6odU23YTbbvZESKCyv0GThzHStabzeRnn3125WnO/WnQC6URFIvF0Nr6WriQzxuMqoQx5meGhQIRAIDZkig6qkgOLqiUHtlsFu12G7XpEMbHx0EHDIRCoS9MM3hW5DvBVBXJZBJsZgbFYhElbd1HDnp+FcYYhoeHcfbsWSiJxKFrc5h/5VnN47T8A3IOgGmaaDQa2NjYQPXeNm7fvo3lu3cBIaC7zWW9e3v9J1MJiaxsVlpotVqeMCEABOc8XKmUIju5nfCpDPQZ0gvFCBoNOwzBw5RSoqjSy23bDiKREIbmJkAIQWZ5A6VSCYYtzQPOVACAXamj2LKQu7aEJR5G9LU5zM/Pwwo4EFy4Tuvujeb97UFzHz2242YvHr2X+w/Uk216fsDXITeyiTaIQUFHw8B2EIqm+p2EO2MjEEEFJKyBKgQcjt/xyGshJuUtkbYyREcLeEzuxFF0XEbiuBqbp3P06x7EnXZP7wMhuxyByFwCyUwYKGVQTIHyXgGtpV2sfPYZNj64jVqhAI1IvABTZCEXx5ZRFIc4GB4ewcI3ZFvExR9fR2l9HQZ0fw055+FivjiwsbIx8ESL8QXSC8MIVla2p/7Lf/lPCSGQ8NR6r9ZAIBDA5OQkDMOA4jIAu15Hu90GdSvwWJaJVquF9fV1AMBESko/hWlgjPWVLP/vj7woQigUgq7rvrTz3gPgYeihaRqo19uhG418rHDoycZ04s+eUCvoRgt6ocJ2uw273MT6+jpyd5Zx69YtbN++A6IoMFwzwPsuIQSBQABGLIRz587h9ddfR7PZxN6nq+CO4yd7AQDnPLC/vz97//792e9///uzv/Irv/LCtFh/YRhBpbI31GhU0uAiLZk8c/doC4GQIfS5OEbHxoi+MITQ5iay797G6vIyNE5kS2+hgVEBvlPBbmUZwXgUuzSO0MUJ2SAk1HE4dlN/xRvi4RXczEXeFX0AHu9FeFqgmI4kFO645AvMV+U78fju0B/vGrc3diEEuAPX9u1dE+GFN30NqFcT6J5fv2P0uGHQw0jxogtHvG9T+S6Fh2uQn/XwJZTItmYoN7C7lUH9ziZW79zB9q0VtAsFGIomnX+EwHYcWI7bQi6qY27+HNK/cAnz8/OInJtAeWsLYS0IFQqozT3EKuGcs5W11cmW2bowPz9/D8A/MYLTplwuF6vXG3HHcXpL5hICXdcxODiIubk5zDINo6OjuLZWQTabBWvLMBpz8+vr9TpKxSKcpQiCwSCGIzJbTzP0JxrXk/gYnjU6rzuq0F9R6DDinPcUquie4+fVmJ4Us+Ezk0NYgZxfr99CuK97wB/HcWCaJpr5PJaXl7F74x7u3r2Lwv1NUFVFSNV6NAdKKSKRCCLpBC5cuIDzb76JqakpiJCKcrmMeDyOSCQCq9GSFZ1UAiEEyWazg/t7e7O7u7szn2ednjW9MIwgk9kZLVcroxwiLLozRigAlQHBIJRoBHaYIaKnMfELV1FIUJQ/WcLG+joCkAVJVMZANQ18q4iNxi04BBhHBMZ8GqlUCo7hbiTH7Q8gOjeSqrL3QrekFH5c+3FEiC93AaAL2efexb18f9yeHjtB39UE3ApNYL1xdUUQsEPMea97gn8Q3EPkqdMHnIR9JoN3iIDD0ZHe65+XAXqIzh7glehoDB2cAdyQBgUlFM5+FevLy6jcWMPW0hL2FjeAcgMqU8GIZHuO48B0bESjUahDYczOzWHgjXMYnJ2FMhhDTRXQAARjMSRemcIQ30fp9jqq2Sx0GpA+qXaLQiBdr9eHNjc3L09MTNz8XBN+RvRCMIK33333wgfvvj9RyBcmHMeh3ZsOkJ1pdF1DMBgED6vQNA2Rl1UEAgHczjaxubnpO4u8nn7FYhH7u7uoxBUkEgmkYxzhcBhqwDi05j9wOjbyF4XVP0kSFIADh/pREvxx0v20/S4nmYfXo7G4t4dbt24h++EdbG1twdwtQVFV6Jrmj9EbZzweR3pmAq+88grmvvElRKNRmEqHKRqGgdnZWTQaDdzdKiO7ve1jVxxZKzPWarWilUoleqoTf4r0QjCCrZWV8ffffWdyeWV10mo7VHAiHTVcWoKUUiCggesKLMFljvxwAAk2itGdi5gx2jDv72J7exsGZ9IhRhmYqoFvFrD0zidomi2kzQCMsymEw2HwAPMx6JL6NYTPe5i977sHzf2Xi97XO3Q40vFocisOid6DY1MKuy/ZiBACr9uyl15oEQGrRyv5Yp2oHmaAdDNS0msqSKSj/JvainQMPtjGjRs3UPpsBYXNTdR381BrNriiQmFy+9u2DZtbSKfTYNNRzC0sIP3KeYTGx+GEdTQ1ApmZyCGIANEIMBAATYdADc13rnQxvEiz3owUi8XI01+Z06EXghGsr69H3n3v/Uir1Yp0RwyEEACVfQA1TZNVZ2GCEIJ4PI5gMIjgSw4YY1gsfIzM2hocRevp9ru/v4/dTAb7ho10Oo3htCKjD1RFv+ZxWvRFZvA9jrrt5NO85mnRUTkY/Z8RQlYm3tzcxNtvv438h/dcXtbZK97YHMeBwx0MDg5i7KVzuHLlCiZ//io0TUOTer0cvbWR+y0SiUjfknudboCaEEJvNuvJYj6fPLWJP2V6IRiBbduMgCuMgjJFJULI/nyxeAzaTFIMXZxBIBokNpGYACEE2twGp4AyHUfaOINGoYIsqhCbZeTzeahEFu/QQeEwFWKjgId//xFK1RKCr7yCwPwIdF0HVJcZHBEmlxGMgynNHcH+6Di7Z/t7tu3jk+2Ppxn40Y4+pN2R+fx9yEAmOBQItNGJw/fe/9mS5+rwhnGACVAqowSWbHHeuLOJu3fvYvej2xArednJmVJAcX+7YCpbBUZnxqGdHcTU+fMYevUslJERmJqAzWwIwV3Nw01MggBRGGg8ACUZgqprcn24AyLLNQnOOd3L5YZu3bkz9A//8A/TX//619ee4VI9Eb0QjMBxnKAQIsgYg+oWzRQWRywWw9TCAs6elb0KPPK4PKUUQ0NDSCQSCG630Wg0kK0/wG42C6qovlZAKcX+/j52dnYwgjIGBwcxMhqWjUB01hNWPEpaHgDmPEeVeqST88VAUB4Waux+/TCwlPc+pRS2KfsyLC0t4Qc/+AGqt1YA2waD3DtQZPQIru9AMIaJiQnMfeVVnD17FsnL0yCEoO02uu1/3h5SUwsEEA6HD2QkCiGIEILu7e1N3Lt3b2J2dnYMwNqpLtJToBeCETTMRgRABOhUyAHl0EK60CdSoMMRMFWBI2SFGVACwgnAgTZzIFQKY34Ik4GXQG2OrFMG3WuiXq/L+DmlUDlAHAFnNY+lH3+CSr2Bl156CcGFtJucwv2wFMhhUvUISX2EJtAfY/c1g+OV3zk2dbz7HlLgcCz+UeT3TziiZ6NPXBxA9j0JHYdZ9XzGa/HeaqPRaqF+O4uHDx8i+9F9sM0SFAsgRAVVVYAwEC7TjZ0QxfiZWRgXRzBy6RISV8+AJ2OwNDcaYfc1lHFbYvlhSUWFEQojOpJCaDwNJWfCNE0PlEXy+Xzy7t27U6+99toUgJ98vlV5+vTcM4L3P/54/s//n/8UE0JEgV7vt67rSCaTiMViRFGkc0iQPm83l79HR0cxODiI2J6NYrGIYnsL5XJZRh9VCUNmjCGXy+GDDz5Aqp2XFXpmpB3IlGOU33yObf/PQ1623VHkQY+fxn07N+ncq/u+XlfjullFPp/H0u3bePvtt2Gv5GFZFnRVhaIo4KJTi9G2bahKEOfPn8fcP38dY2NjCJ5JAwAsWxZzZeII7cTdf4wyGIaBdDqNsbExVBs7qNVqMkStqiSfzxu5XG5oZ2cn/RSW5tTpuWcExZ2dZL1eTwhBkgAB4TIXHARQNBVGNAg9EgBhDI63IQVkqj2EjzOxdQKiqzAujmJSvYIA1bHbroAUGrI+P+SDV9scdqOB9oNtrEc+RctqYX5+HsbckNwY1PbH1nvwOwUuepF38renFzyWnRzoJvr5NISOl91FChBH/hxBVHBQ4VUL6vZ1HDFcj+EeMeyjNITj5GYIIQ7UHfC/DwZKCXjFRLlRQunmGpaWlrDzyUNgowzRMKEzBkIYbLtT4l5EVUxNTCN4ZQKDVxcQmR+FiIQhVBklou6DoqDoru/g3V048i+LclBNRXAijURuAvZeFc6eA4XoAGGwuUXappmuVqvpxcXFV86ePXvt6Jl+8fTcM4K9/N5EvVafBOBrBN7mU1UV4XBY4gfY0U2bvOwxABgfH8fAwAAe7gHZbBY1cxeFQsG/nodlz+VyeO+99xCtZ6BpGs7NDIAxdrAOAB4Dq32Er+BZaw//PWkrnm8nV9lHJpPB8rVr+PDDD8GydViWBVVV3eiSGxVwo0zxcAKvvfYapn/pVQwODoIORGR9BlcYdMOsD1svL1OTQ2a9Dg0NYWpqCubtrYPfIyRcr9cjxWLxuc9GfK4ZwXf/+q8v/OhHPzq3vp09x7kdksUhCITwNQKiBA2wgA7BAA7eo0J60FM3CgwAIBEFRiyKyOUJTIsr2PvJPezfqYKUWuCEylx+QgHTQqNRgHaXYTd1E6GggvHxcbAzw64t7PYJENTlHUeDkKRk6yUOF/d/+svWQyc1V/wqxfDzLntyFY6+UW905EhJ736uk6Pw6CgI92sZejgBmQzVzlVRq9WQ+3QZG4uLyN9YhbNeBG/bUBUFoAQ2d2THY8cCSQYxOTGB6KszSPzcWUTOjQCGAaKrUhNwtQZKu6I+nnqJTtREwKvMxEEVAjUZQnAoDjUYBKh0WBIie0mCi3Cr1QrlcrnQIVN7rui5ZgRLDx9O/+jtt88UC4VJzjn1kF2e1KWUwjAMaJoGTu0eFJyHMe8nz06cnp5GIpHA3TLDysoKGoUG2u02FCq9y9JJZqFcLuOTTz7BkpPDL/7iL2J2duSRePmT5Ov7zkc8XWndn0V4XHrcmJ5FFOJA4RVXIu/t72N5eRmZT+/ixo0bUPJNP3vSG5tlWeC2ZNiDAwN48803MfYLlzEwMAAEZO/G7ojQ4c/OrdHolcVz3/PqOATc6IHnZ+p8DwCgtlqtSKFQeO4Rhs81Iyjm8wObGxuDQogIoQoRILBEUxhBg5B4WgSHUkQJaYBOQRwKzr2HKlt29YT0+uPQgwFEBwNIXp3BROESqtfXkc1m4dQsUMFBiArGKEjLQWlzD7ZwkE/OIDo8gmQyCXUkCi44uNspyJcYxzwch2kIh9LndMMLQnxzBwCIQ0D5o/SQ/opMx6wz4Er4/k8fuNOBKErv/Pp9Kdz9PBWqPLR7VRSLReQ/foDsvXso3N2AuboHTmTxFQG45doZjHAIJGUglUohdWUWAz93DomLkwBjIG7BGsof97xIT9JWh4T0UYQ1qPEgVF0B3H4IhPrHiubz++MPH94f/+EPfzjzy7/8y6uPudkXRs81I2i322HHssJMVYmu67BtG227jVgsJlLzM5icnEQgEDgUAfgoaSY1Bvn+3NwcgsEgVgOf4sc//jFK1T2f23uRCMdxUC6Xce/ePezEKa5evYrp0Rg8U0Ve9PB7PU8VkE6aQfgoTeJZzak7G7DVamF7fR3379/H/qf38fDhQ2glW6aZo1OJ2LIsBAMGBgYGMHJxGpcvX0bi8gyGhoZgeV2eRO8+OGxej91Dbq2CUCjk+pfke109I1k2m5389NNPz42Ojs8B+CdGcFJaWlqa+5M/+ZMoHDvKFEYYc4E9QiAQCSMyPwZ9ZhBMVeEcwggObFPeOZSMMt/2JBMxjIxF0Kq3MFDZgsI0FItFiIYtN6Didv2tOthb2YFJBCoshvJwWpY6i8sl9CQXOWADH48Z+BLwyZbrGHSymotPetBP0+dBCAGzFdi2DXO/gNzuLgofP8TOzdsormyjmcnDVmTDUg8fIAyGYDSA4FQaw2fOYPD1eQxduYzI5ABswDcZCYfPBDxfUrcvRPaUFJ3irt2RTJcJEEIgNAUsaEBPRKEMJqDULVi2BVBBmEpRKBUHHyw9nH8lk5kH8KNTXJ5TpeeWEezt7UVarZYPJOqmYDCIdDqNWCzm24zd6bIedafPUj+N2FUdPd+WmzU2NTWFX/qlX0ImeAcffPAB8tWsdPww6aHmAEqlEsobJpLJJPIDGubm5jCenDrWoTkKMdftzOvPq39e6WlqA/5adP1fqVSwfP02bt++jca9DLa3t6FULYnvcJ+j7Ta/TQ6mMT09jZHLZ3H+/Hno54YRi8X8FOv+e/nowSPGc5SG4D03zjk0TcPY2BgWFhZQXN5EJpOBxmSlJ9M02d7O3lCpVBp68ODBy/Pz8zdOaalOlZ5bRpDPl2PNphkHEOs5KBRQAzrCAzEY8RCowiSi0D9Q7oPjFBRUSmpC/PPl+wpc0eso8trqVBKTwyEQAUQqG2i13OKUTQeUMhAhYLUs8O02dvUN2JRhrB2AOTIIXdchDG+TnEymC0LcZsbi0CjC6WkIXsWBI5yoBAdqDJwq9Vc47vcV+FEHOTbFUdBsNiF2Ksivr2P//TvYuXETrXwVzWoVqqpD0zQI4YA7AgipCKhBBBZGkX5pHgOvnkVq4Ry0eEhqCm742BuFJ/H7Z3k0voG6kQvR9T8BmICiMRiTKQyUptDOlYHNLRCFQVV1mKZJTLORqlaryUaj8dyWOn9uGUGxuB9pNOoRAKH+jauqKkKhEAzD6Onf53l5gYOmrb+xPRWwC/wDSG+0ruuYmJjAm2++iR0tjevXryO3nvXr2jPGAMqRy+Wwd6+FcDiM6rCKsbExJKeGpM/A9UIfJ2znjaP7/2cRRTgO9XvP+3Mp+j/zeak7l8CrIZDNZnH/nY9x69YtWA8l3kOzidQEulKIHcfB2OQk5ubmMHB1DgsLC1CmktA07VgVmU5C/WvhaZ3xeBwjIyOoRlb9zdeFgg00Go1AoVAInNpATpmeW0awvrlzplitnwFgeK95oCBVVaHEQiBhA5QSN+9ewmB9351vs7tf9p4dBSih4FyCjJhbMchWAcZUKNNJTCVfgq7quF/PQikWpfPQ4qBMIs7q5QqsUgm7WhzU0DBwWQNJJaDpOiyN+OOUKqcLdDok58ArpXUYPS248uPCmXA1FNL3+VMbz4F1EP7rQgjotoZ6vQ6RraN4ZwOZH15D5vp1EEiHodAM6KoumabDIYIKVKYjeGEcE2+8jMTlaSSnp0F0GWWwiQMBAfWYvODoII27n0i35kcgCAFVGNhgCMFmEkY07OeidIFCtVarFdnb23tuw4jPJSP4zne+89Xv/e0PZjOZzAQ8WEfXRlQUBYFAQKYJU9dD6+6voxxzndc6TqHuzwrIUlWKoiAcDmNiYgKvv/46dkQES0tL2N/IQFEUH9GmEIrd3V1kr5mglKKZllWRQ+mY9Cnwjo55mHQ9jlTt1xieJT1tDcC7noxuupmDto16vY61tTWs/uQW7ty5g2Y2CzAGlcpMUeL6hLwK1lPzs5ifn8fAK7I8PR+QLiVPEzjtLNADPh639ZthGLLEWReeoItovV5P7e/vP7f1CZ5LRrC8sTH92bXr09VKZRSEuPUHOBGUCCgUNKQhENCh6yrawuoxCeRzIo+w9Xpf6HBtaS86GoEWCEKdG8Z0wEFQ07FuFcCzO7ApgeKCVhQAxf0crOw2dmkI4VQU8ZaGYDQCxdD8NFaJ7e+63wkP9rNOZBJwXKktf04a/vRxAP11GA6JolBK/WrDqs3QrDVBMjXkbq5h+fsfYvPBAzBCoVIFiiIhwx5OwNSlBhe6Mo35X/xnCJ4ZRGRoCIJBphdzie84ribQ2S+PRjp2yMvklGukhAwE4pFOoRIBWW6KC0EESLVaHd/c3Jx+6623vvSrv/qrPzveqJ4dPZeMoFmrxaqVSoxzTnVdB+ecWJaFRCKBwNg4RkdHoetwCw/WAAAgAElEQVS6/6ROK/vNs9E551AVBalUCuEzDvL5PAZaGra2tlDc2fPrGCiKAq4S7OzsYO+nP4VpmphLMqTTaWjhoNQMRK+D7qTS9YvIR3jaGIHutWCUotlsolauYGVlBds/e4AHDx6gWSyCqSpUQn3vvOM44EJAVVWcP7+AhYUFJF6bw8jICOyQLj8jeI85g0PW+6i8kCeZh3A1TE3TEAgEJCNgBILLCklCCEIIoZlMJv3++++fi8ViZwH8EyN4HN29e/fsH//xH4cblWJE0zQoARWmacKxWgglIxh4aQ6B6SEwQ4ND0V9236f+fgS81ymN/si9Vx0XEBCOg3aAIhiJQzeCGFdMMDBsixramW0olEAhiqsZKCju5NDa2MKYGcDw6AiGnBDIjApNYWi4mgrzsepPmQ5UROoKl5CDeIvDvk/AXKCUXOCTaCX0mP0PiaCgYDCEhma9BqyWsP+zRdx96x+wnclAV3QYigrC5IHjTQeObcMyHAhDQeznpvHqv/omnMEQtFgMCuewHBuA1MCooL6t3guMcpmE6wvxhAj153dypkApBVFVqKGArFikKoDpOjIFAMKwvb0TzmSy0zMzM1M3btyYf/nllx+c+EZPkZ47RpDP56OmacYAREln9wkQgkgkgtHRUSQSCeLhB05Leh0W3/eqHA0PDyN+nqNarSJSdlAoFFApFH2tgBAComnY2dlB6Z13UCwWMWNcRDqdBgJqT2TjsHs9Szruge73EfRjND4vKYqCcrmMnWINi4uL2Pt4ESsrK2i1WlA1DQrtRAU4l41ag8EgJq6ew4ULF5B8+SwikQgamnIgMnDU+nbjBg6b50mJdDETr3fk1NQUrrz2GsorWZHJZAiRuSvEsW3qOE7KcZxUq9V67nwFzx0jKJTL0UarERGgURAGEFVKN2IhFAkiPjUMbTDqZXd11MCjoLB9mkGH+CM/J7h0BNlBgXgkBR4KY1hU0G60kb97F+2dXSiaBqpoAFUQIgx7mxm0NteQKDpIj45BYYNwhglUTYVDLXcT9qrfj1PFyQmksfzCYVh+AuH++NWK+6ijTnvf6X39qDEcqLNAHu1XIEKGYYNCRa7UQP3mGrY/uYGHb3+CUqkETVGgq6oPF27bbXDLATSAJqNIf+MlvPGtb8GOMQjDgMpdhg23gxOnXdLdxUf0zOUIH9ET8INuTUMuG4G6MIIJXBXEEljd2RSaIERTVVjg4NwOta12qNFuPHfZiM8fIygUAq2mGQQQ8Li3t6lUVUUkEjmAH/DoaYbcNE3D5OQkUldlAYuNkolarYZareFiDDo4he3tbTTeew/FYhGTX16QmgHt9Mg7bnbi055XN3WDtrptaC/t9iTUrT30IycJCPb397G6W8Ti4iJynz7E2toaWq2W/xkhpH3tdRuKxWJIzoxjdnYWw+fPIxAIoKnwHiZFcPg6PcucCAAIhUJIp9OkGAoJObQuMBygm2ZbL5fK2jMZ1Ano+WME+dJwvWUOE3CDgPfEY1VdhxELQglpACVujYGOrf8kh+UoTYK7kg3CDUUFgPTZEYhkAlu0hEaxiMbGBpxiEURRAGqAURUGB/Jbu9jZ2UMoU0NqeACGMQgzIm1ix6sO1GfLP04z+LzMwFvHxx0MQWWnY6/MC5UlfI/0bfRXFwZ6tQcK4obYGCihCDsa1jbz2P3pXWzcuYPNT+/BNE0IwaBpQYA4fschjWnQ0hGk585g7l++gatXrwIxDaYmYzy24KCuUHbEQVzGsZisL9FFZ76HvE/EwWyQbic1d7NdSVSFPhCCFtQJqFshi/rX1Kx2O1UpVlKPHdgzpueKEfz5n//5K3//znuzuVxuAgDpseeE1AiCwaCE9D5l7/Zh6ruiKFADAczMzGDgddlcdXG3AsuyYFtuhRsm4+GWZWNjYwPtDz5AtVrF6OUzGBoa6pKwx69b8Czpcfb1kxAhsgLQ7u4uKhs53L9/H8XbS9je3pYwYiGgKDL+blkWdF1HPJlAOp1G+sIU5ubmkJiZQTQaRUPplJXriQ48IovwWZJhGIjH4zAMw0exdo2F1mq1dCaTSb/zzjszX/va11a/kEEeQs8VI1hcXJm/du3awu7u7oQgsrAv4QKES7avaCrUcJDQgN6pOHQEXuBo30AvHfa+EG5dRBDZeUgAhErNwDEEBs+OIZ0cxDqtIrq6hkKhADtXkyYCkc5BZlIUNndRe+sdBJYKCEcimImOohYQoIT6iDfmyl4BRzII3vF5HC/U+DmM3COvJyA1LOE7w46sWXgkNFKG/bw6DcFKG3s317D89z/D1tYWCivbEsDlVvQRRBYVbQsbwWAUgYURjJ8/j7F/dhFTZ84AQRV1lXd6H3rGv7tOCnGdx6e1Cgf2z+HIUG/dCTgoEUBYR4BFoAYNgBHALXHJBSEClNQa9Ymt7e2FrZ2tc3iO0pKfdqWsY9PDhw/P7Odz49vbmYlmsxlSFMW3FYPBIKIjQ4jH49B13S8H9bToKDvT+20YstjF3Nwc3njjDUxOTvrIODd2DEWR6bOVfAFra2u4dUsi5YrF4oFrn7YP4KnkAJyAPF8I5xyNRgP379/Hu+++i2vXrmFxcRG7u7toNptwHMe/vm3bCAQCGBkbw/z8PF5++WVcvHgR4+PjPR2FjoI8H9Wv8lmR51tRFNkpKxwOw0gkYBiGH9WglJJSqRS/e/fOuZWllXP37t2b/kIH3UXPjUbQbDbjtUolUS2VE4QQoiqyEInJTQwkBqEvDEOfSIGpsh4dHIlJ63S+8Zxc/T0Ke+komdFJKutTgYnsIehd35GRTNQMB+kLU0gPDGLVMIF7y+B2G5bZllBkRQMIAbcdVHMlZH78MeK7DUz9D29iPDaMBpMMgLvtjz1n16ME++EMg7jzcoffN5/uvgZCEJn78KhY/xFRhX7T4FFViKVGpcCyLSjZGlbeuYaH33sftVoNjVoNjBAoquF+n7rP2UI8NojUq7OYvngRw68tIDk8DBJkaMDqwCFcyc8I7dFSTov1+d2U/Qse9UB6V1y4RQ6FykAZg56KIDExBHutgEKhAMLl/ikUCsbNmzfPjI+OnanVas9N85PnhhFUKpVos9mMtdvtmKZpxJOoEALxeBxD09NIpVIyA7CLngUSrtum7z6IsVgMUT2F8+fPQ30tj9XVVRQyO3AcBwzwMxbb7TYymQxUVYW1NIJoNAp9IIRoNAp+FCLqGdOj/BV+EY5jrrNt22hW68hkMijeXMXt27eRXV0FCIHiYi/8BqSOg3A4jIH4EObm5jD60nmcPXsWwRG5Tk2YvrT3xnDY75PM8ziff9TnjopOeK9RSpFMJjEzM4N8BSgUChASEUna7TYajUYyl8slqtVq/NgD/5z0k5/85FKxWBwkhBS/9a1vXe9/32cE//Pv/M5sLZebrBaLkcmpqfbMxETmD//wD289q4GWy+WQaZpBAMGeNxhHOBVFam4CajrmQrgP37SHxondTex4qmOfqnBAcxBUBtO9WnnwJI98nbjoPNu16au6jbGX55CMxNB+/31U//o9mOUyqOP4gCMAcCoWips5hD64j62KgoGvLCAdHkBNacv78qMZQncI6qjD+LRsPC8XgHICCOpHU6SW1KWmCwkSgkVgNS3whzksvfczbPzjNTRzOSigUJgCqsmUbkEILMtCGy0MD48h/ZVLmFpYwMClSRgDA6CGgoZo+XWV+mHk0kUgIcQnEQOPYwJ+1ODIzwn3LbnivmbkXV/I56iNxTF25Szs/SqczWUoTbi5EhQAVMuyAvV6/ZmkJf+ff/Inb/7n//yfv7S0tDQjBNn96le/kX733R//XfdnFAD4vd/7P87+5ff+66vlcvHna8V8bHxjrb09NbP127/921+enp7Op9NpKxaLmZFIpKZpWvab3/zmymkPtlisqKbZ1gBoXRufgBAEg0GRTqcRDsvy8Jxz91D2eo4fxcGPS48Nrx0CsEmn04gEh1Aul0Ee5LC+vo5ariydYaqsjOTYNqrVKtbW1kApxdR4AIlEAohr0sN8CmM7LepH3h12326JLOswcJimiXqpgUwmg9KdNdy5cwe7i4sglELz+kwyicOwHRuRSARqfBBnz57F1OXLmJ6ehj4i7eo2t3qcf8865+JJSDIruSbRaBTj4+Mox1cAl3EC/jyobduRarV6am3TP/zww7P1en2w2WwGK42KUivVtHw+zzLZbPz9d9+9/ODevTcWFxfPAHQXEOP/4l98y/jBD/7mv3nfVwBgcfHexVJ29xc4d76hMS1SKVbovca93a2trd1Pr13LGYZh6ZpmKopSZaqa+V//zb95cPXy5bu/+7u/e2oMoVKvBNrtdoCAUwgHgOK5Y6EYOjFSESCkgrt566xvb1K3s9GBasVeKaLHIA87xPv+453XSedC3kGwqWyzVoswpC7N4Iqiwv7kE6z94GcoFgoA18GYAkWR/RjamRz2mhyBWAS7rQCCV8aQnJpCk8hNTx5x6B5FXocewQ4/uFR0272PIC/XgFAIQkGE4+bZOR0h6V7fg9VSSsEbHOViBZXb67j38cfY/2QJdj4PQ9VAKQWlissQBRyHw6QmpqdmMfaNlzEzN4fU+SmwaARQCNrcAhEcFAc1vC+K/CK1fp1D93VXM/I1CbcHJAlpCKSi0EIBQJHVoF1cChFCkHa7PVAqlQZu3rx55vLly5/rHP3RH/3RV/7D//Ufrub281O2bYVt21HbpqlZlsVq9VqiXm9MlKq1cShqRMjWgcadO3eMN974efWjjz74rwCg/O7v/m9nPvro/dlqtXJZ1bRJTVNYq9kitUo5tbe3tyCI1A6JQAtAjQOZkeGhe5Vyef73f//3N9Mj6Wp6KG2lYikzkUg0AoFA7sKFC+snmcgPf/jDmfd/+tFYs9kYg4eJRUcy6bouvbCGAeGq+p09+cX1G+zWDrychBljAKZpAvf3AADtugnbtsGYbMxRr8tOPPbyMiilGB8EBgYGwHWpWhMcLpEfp/H0Q5cPo9NeJy/fwzRN1PJlbGxsYOfuPdy6dQuVh5vSg+6aRn4GIecIhUIIxxKYn5/H/KuvYmRkBHQoCkqprwnQ56ibNPBozeiw13RdRywWk9peny+DEEKazebw/v7+2O7u7iiARzKCpaWlS7Vabaxerxv1el1UKhVRrVaRzWZJZieT+PE//uOlGzdvvJrb358hhIQBqERAg+ytSwEQwlTKGCNCCEMIMbu9ndE3Nzf2v/3tb2//6Z/+6U8VPazGqEITBDzJIJighBLCiMICEEJQdMwfTQgRgeMMlauNiVs3byxktjY3g4FgNRAIWLphtIOhQD01kNr7g3/7Bxuz07MPf/M3f/NYPoaltbWzi8uL53Ll0gSHIBwCgnNfACu6l+evgwunR0Z0Njd1IbGeaHR/fe69f/gFFFcFdFyJ4BALRBVox1UMXJjCxX/9JvitOLI/uYP9/X3oXDILTVFBQdBY2Uam0oYeM1AiMagzAxgaGkKTtmV9PSLABQdzyxl4ACpBmDvbPs2FeCHV3tdJVyDiJKaFj+j0BF3f+5RIW98q1lHY20Px2ioe3LyJ3J1V0HwdQcWFgVMZAuZuWNVSLcxfegmj37yC8TNnEJgZgBXSwOC4WoD36Drr3i1xP//zfBz1d3bym6DJUfUxBMUtPCOoh7eQcowGA9ANHaqh+8hCr5iKEAKVWjWxtLJyZmh09AyA9w8bydtvv30hm82e/4u/+IuLDx8+nGi324ZlWaLdbot220GjUSO1RitZKhXHm/XWhKroETBKCSGgrkuFuzKz2+ErhCAcfNwRGCOEjAKAEgyptqYpNgCbEEK6Y/TuhP0Lcc4JIYSabXNobX19cGV19SoRaAOwBIGpKEp9ZGR4f3R0ZOPKlav3v/Od73wpOThYSKXiSMaSZigUyp87d+6j7sl+eufTue/+v391ZWlx6Uq1UhmklPqIQkVRZDpwMIhgMAhFUWDy1uGP7xkjyfrv59nKqqpiZGQEE69KCceXcqjX64Al/H4JQgiUSiXUajXYDyMIBoMYCpxDKpUCV3jfPTo738t2e5Z02Lp6CUGWZaGQy2FpaQm7dx/gxo0baK3tQdU0BBRVhkcFdzc/EAgEEEjEceHCBVz+6lcRiUTgxCWi0PYySY+IWHScck9/BeSBOfy9fp/UAe3N/dvtiiy1n0gEolHvwRPUarXg8vLSuWQy/gvf//739TNnz+41m000mzVSKBTU4m4u/NFPfzq+srZ24fr165euXbs2TggJwEV8uU5HAoBQSqmiKJRSSqiiEEqpbwbyPsbpMiLpChciqihKFACUocRQIxwMNwRIQ7je0M7cOhLGm7DbCJRCUaibXKK5g5Ne9GptZmN980KrYV5cXlzOGAGtEAwGhaYabV3X9//gD//g0vyF+c9+43/6jWsAsJfZm1pdXZ/JbGSmzIbJFKZBCIEWbyOdTiNxJoXAaBKCKbDdOr/SS+1muflOmF6E3RPDYY+pSXSQZ27pMSGjCxa1QAwCPhxF7PwUZn/xNbSGAyjfWEMul4NGVDCmQBeyxHrrfhbLeRsOEZjUEuDDYcTjcVjMAYTT2fjCrYjjj6szX0KIO/CDzEmuzROAglyfAvHXW2oihEmTwNotI5vNovjZMtZv30bp/iYCBROCqWCgEMJxU4gBRhUgoeDilZcR+/pFpGZnIRIBtDQKcJlc5EUGDqyzsN3ZHt3k9iTUDx3vzr+Q69Qr+Ts9Lt35dw9RCP+g+R4EF6PBKYMNAn1qEOOvXUDz9hY2NzeBlgBVFDSbTbK+vj7earV+bnMzM5KMx/MeIK3ZbKoNsxmplCtj5XJ5JJ/PJ6imMomg7JhaAFxcC/HNU1B5JixXkWF9qhznXILeHAACQcdxggCgfPvb317+9V//9QaAhpyb8KVWP3mve1pD1wL6UrzRaJBisRjNbmcvADgviPTWEUHaAPYvXLp0/2tfe3PmP/7f//HyxNhEdWVl9efWN9df3t3dTamqShhjstSUEEgmkxicm/PxA/3c93mgw+LJiqLACAUwMTGBQVMWMLmzVZXAEnfLeMjJnZ0dZLNZtMZDGBwcREybQDQa7dmcj2Nqx4Min3xe3QAn7x6cywOey+Xw4MED7Ny8i5s3b0JkK9A0Daqq+uqvlJoUoVAIkeEErl69ivPf+ueSkQSoG4Z1S82J3nl4Erdz32fvC5IS/ng+l25fjhB+dSJEIhHMzs5iZ6eF7e1tOJCdmk3TJPV6PZjJZOavXbs256G54Up5AUFACCWEEDfaQhhjUKnq3dcNavcye895iSPG5jECBiJU3RCapgnAjRpomlYFeFVupEOLffjOO0/lcGz5OYebrg3nckzCYOhB7zuCEkLl57jCOZ/Y39uLf/TRz8ZWl1c3o9FotVqvTexmspNMUylhzJ+YUCiMaBjhsTRYMgKuSq2RQjIEwh0/fi0n3ivK+7dMv4TvP2A+TuyEe827reMdGE7ABdCiJmAQqFNJDGAGk8USanEK8+Eu8vk8VGaAMQUasQECNO9kcKf0HsZqVzBMI3CGZLl2rtjuIZApwZ223Y9mALzTzhdcEDhEuJmF8sdflwPMVf54IB4KJg+D20mktbInS7ZdW0bm7l2UN3YRqDqwVNVn1rZtgyoM0YEklMkUZmdnkbgyDX12Fi3dASHcRzfSroIB/c+DAFC5m4vxuKSRfhKuJuNu2E4tRffgCH8RD10L737E3zhSA6We449q3gXl5ywBx3ZgN1oym7JhodVqIfdgFcWlDdTzJTCLA2AgnIAqGhhhRJA24ZwTAa/Vu+JeloIQQjiRHbdUItvvmXZTjo8TIjVBaW5SxRCUUhDBIbg8p57PSPhHXUicA7fF0PBoLZ1OZ0dHR3e8d8EYawEwj1jSgwE21+bzerw5jnT0AICqabK6MFwcgByFsKTaQwvFQnRvf+88uFgAAKowomkaU1XZIcRT+QklCAaDSCaT8PoeUkr9B9EzwMdw7gMTespoRO8waJqG0EAYlFJES3J9VnZb2NvbAyPcBxwJIbC1tYXNpSUspFVMTU0hEBqCruu+yif6VLxHScejbNzjzLkbvNT9muP6N3Z3d/HZZ58h98lDLD18CFKT2YJe9V5vPyiaioGBAaTPncWXv/xlTH31MoQQaDLbFSC8J/pz4P6PHenJqft+j7r+Yfupm+l2IwiFG862bRutVgvNahXlchmNfAWlUgn55WVsbm7CKpX8Og3yABO3XwZg2zYRQtZiZEyuo5eMxt1y+9Rt6WbbbvalKxA9RqBQ7vryRN9Yeyfi+mFEMjmwf/78hfWhoaF1wGUEiqLYALHkRz1e7Dsjei5iCwFCCZjGEA2FRGRSth4rZ7LY39+H07DQaDUI6+0BSAgkoASMgioaI16WHSWEMAbmjpdTAqoq0AnF9toWnL+xUEjeRSAdl0VLZ4cRiURAI7oMJ4bkJqTEc+L0aQreg+yz/fv/Py4yzzuP/TgG1odX4K5UbTALCKrQzg1jUGuhVW2iGOBwNguoVqtQqJSkBhdwWACtW1u4Xn8bQ199GbGrV4HRgGQWbiEO7hqlR45XHG7WdX0A/b4EeT1pL1MhoBACCgYKBttlmuXPlrGysoLCzRUUFhdR3ykgZCuwFUjcv1dcNKRjaGwIxlwa0wsLGLgyA4wlUdXk9iLSCgB7DPjLm5/TpQkcj4G777s5Ip35QWoAwkP4dZx+QNe+cOT+poT5B50QAt6WKjVvNtFqtUCqtnT2bpdRKBRglRqo1+toN6VG0G7Iz9XyFbQLJbSappT2VDrwKGGuma2AMQJhOxC2gG3J9u6OuwIeBJ1DQtojg4MikUggOJCSyMx8DeVymTSyOZhmC4z1l8ajruPDw4jKy0Wjoc3x8dHN3/qt3/oU6GgE3avoL18/cs+zMSiVjSdTqRQuXLmCyclJsfjZDXDOUbTypFoqCUu4jIR4TUkMKQEZI4QQ0RXekFySe7aOaz8TYH19HStrDyRaSAPmr17F7Ndew+joKCLDSSQSCegBaTMx5mW8iR7koVdFuFvCCXE6VY8fR92awfj4OAKBACI7bbTbbWyX76GYz4Oosuuy1zNhfX0da8vLWIhwTE5OIpwalIzOjdk/jvol11EH53GOxO5wE+ccS0tL+NGPfgRzeRflfB7Ukp2APU1AcI52uw09GsTk5CTGX7mAy5cvI3l5CpxztIRXkOWkq3hwzE9C3lw8PMNR5Pm/CKVu70vqS2HTNNFyJX5rr4psNovsjSWsrq6ivleCWS77Pv0OP3L7YLgMv9v/5pli0qSCW9fCU8z7i9AC0WhUDJ2ZxJkzZzAyewb1eh3FjV0sLi5idV9GoYjLwLrXjHR7QSW1YrFYdnx8fMd7QQEAwzAEACHjjxQEskpNNxPoX1Cz2UK9WkOxWcIQGUbi1TnxxuUplPf3kc/nYdctyRnzDVQqFViFCmq1GhHtNiilxOmKa0iVzZ2A4nJywaAyDczmEI4AmkBzdR9ZcQuN2AYCkTACgQCUkGwsoY+EEI/HgVQI4XAYJKDJ1FW1o35Lch1ZffUM/IU7cC56oxGPyu6Tr/OuT3e+bRIbNKgi/NI4RoIm0LRRECZIoY5mswnV3SS6RWFZBObNddzlP0bszfN46aWXwEbCACiYm+vA4dnY3oDc6A584EGvzfuYQ+T1PiSEglIGOEC72Ubu0/u4d+8e9q4twVnch1NvQBUURFEBUHAuKwqxuI7Js+MwLk5i9Px5DFyaBh+OoK3I2Lm3n49ev97Xu8d1FB0WvvOcip3cwM5z9pEBlEJA6bKhBYgjGZnVasM0TbC6hISLXB3lchlmsSrBYE0TzWYTVq2FSqWC6nYRtFCHalrgFgOHZCTecxGUuYKOw3EsOEd1zdZVxFMpsIEgIpEIWDwkNE0DNZjs9hxSMTg4iIHhIcmAqYFCaRs7q6skn8nAcjiYqrk+Bhm18dYE8PYJgav2N3VdL0WjUT8n3nMWykGJTjXWbonS/duLITebTZTLZVIqlUS73cbCy+fJ3NwcaoUCyuUyqrkKisWiyK3uYGNjg+wuraFarQrTNEn3Qng2MCUy7urbcK4NRZju+yL29vawUdgDoVRuEEoBhSA5OIj0wiimpqaQPDuB4eFhBJMxt/OM23+Ad+LZT8PLfhh138dxHOi6jqmpKVmHL2OhXC6j0NpApVwG1bROFyVFwdraGra2tjCtVTA2NobEoOEnMB333t2ShxJ64P3+v71n4UnNZrOJa9eu4QdvvQVW4nAsCwqVvQcJpCZm2w7a7TYGQklcunQJ6S9fwuzsLEIzgxBCuCXGgeNa/QciVu7XjvusDtNwCCFdUQkXl+ACsCil0qRxcyValSoqlQrauaosoLK4hUwmg/xmFo16XdZEEwLMkedAa8uzoqhUOnf7GLTjAs+4JXEX3A2H9jOCQEDH8PAw0vMTGB0dRXxiGOFwGIFYEKFQCFo8CMMwoIeCKBaLqGzto1qtEq++gwpN+hxIb13M7ghD1/91XddrqVSq7r3eYxoI99te2EgyBnkdYVuuCs6guDh0btkorWyTdRIAS4SRSg2IdgDEiKTgRDXwmgExEADORBE9N4zY3hmY9YYwTROiZRPTNMELbVnhp9iUDiTTdOO7bssq5jo/qALBOZS2AyEcd6EdcMJhWwXUbYHdbAuN1Txq8TgCoaAEsGg6gsEgyHgCAwMDsGLygcFzcDFPI+nFS3RsR/eQ9Ekwz4njf6+v9iDxbfHOgyGEwDYo1EQI4ZcnMW40obVt7BT3QBzAblsAJaAMUE0HVq0F69oqVpX3UPzyednSazTsSnynZxwHuigT7j9DELi5Ax0T74DDVUAmDtXayO8U0Lq9hFwuh/2fLQFZEwCBShkolVqjEDZsx4GajmJ8aAiRqzNIXD6P2PwoMBACVwDH4TIqcAgdJemdfq/oMXk1lU2v/f4VCukNcaPN0bbaEKaFdrsNUrdQq+ORLSIAACAASURBVNUgcnXUajU0i1W0Wi20mzYajQasag2FQgHVnQLMUgmoNKBaNhzfh8HAiOz/QAiFcARs7kC4rjbHrdAk3L4QNKgjEYwBqaDUWMPSqc50eYCNaAgjIyOIjQ4gHo8jnIoSwzCgBVQohgElGITpOEKYJtY21rH/7l2yc3cRrXILzGYAFaCMglsym5UxzW2950BwAdFxIgoAtqqqtvQNuusFAJRSadkIIXz7SdrcghBCbNuGY1m+RsCYVFdsW9blK5fLpD5oiFAoRJLTaYyOjhKVMgSDQaRTaeE4DkhTSg6z3kC1WkWzVEOlUkFxdV+qnmYGtVpNOmII6QJmyP7zqq750hLo5riO3zl3Z2cHfFnaYoTJWgAaUxAKhTD+xiVcunQJ6kgYyWQSRizmc1DGGCAOSp0n0RiO+k4nHs6hqirm5uYQj8dx40EO9+7dAxo2TNOEqstYvHCkL2ZjYwOFQgHjTl7iKkbD/vVOEgXo/vuw73r+jFqthu3tbdz7+FPcunULRk5uLA8p1+0lt20bg4kEvvSlLyH1xjwmJibAhsK+lH0SX0y3V/6wuRwXU0FdG9/DNNiOg0ajgVZF7rvmvsyNKC1vI5vNorC955owMjuSWXJ+rCXPAyMEuq5LVzohfqER4ZpgtmVKiY+DxWmFEBgYSGJsbAzx2VGMjY0hlI4jGo0iFIsiGAxCDRmyzXtQQre56mpHlMs9TwgajQYp5au4c+cObv/4H7C/vw+1RTyQn+wiLU1vqKrUIC2LC8dxpEOyIwAsxpgdCoV6GUEoFGoODA42TNNsts1mhICBEtcJxCDC0RAJRIbAOUetUIBpmqCKKrlMw0bLrqJwfZWstHTUv7yAmBoBDzNoAR2ghDD3ASoAaKsB0gpDr7egNRpQx5JoThiIbY1LBlEtS0BR00K9Xgcr/v+8vVdvZEmW5/kzu8I1hVM4VSgyGFqkqMrKrGqFQc9U9QLd+9K7WKA/Qb8P9mGABfqx0a8D7FfYh8Vge7DTu4Oa6u7aEt1ZWVmRIiJDMYJBrUkXdHWV2T7YvdcFyajMEmMA4aTT/V4zu2bHjvif//HpdDqoVjd23gwWmZTaqGiWZ1R/1Wqlp3gAEDngtqhar9g6jrDLOeojJissl8uRmTAmhBjPksvlIB9rChkZlzaLT1GV+rHjBx0lK8+8XLA+Ey5CgVlgCIW0BIy5FDLjjH/nJouiTuuzdTZevUoTlISI790MaTVOaD9Z42jmKcoWVCoVxFQR0Cjlx6qvTO8nZcypMNT6nWTDAsKyHJSC5soWmycd6s83UJsnBNi4lp0utGQj2pVRFmZmmPjoBqPvLTG6XEGM5rAybhpOTv0kb9ncw+1tnzOhr2SDJUVNEvU+NASynRDf96FhbHld7Rjv/mmHdruN3zav3WqLo/19GnuHdGo1/NopWus0mhHGJ3rCv6CFjVIaLUIQMZclpILBKmbIOkVE2Zz4Khfb9hkH27YZnZmiUqlQnJlgbGKCwpgRANmCRTaXw3JysQlnxmUljk0sAqWwWiHbrzY5/WSF4y9e0tyqIboR2nIAAVGEbVm402VKpRLFGIRXXVs3uS7SQUqp470RubYdZTKZlATDBhgfH69fvXKluru7V91vNwuAJaSdeh8nJib00s0botvt8vzLL2m1WthJddo4v3x1dZWjoyNulkImJibIz4wyOTlpJq0PaWbbNvl8nmK2wPj4OHMTcywuLkLLqGTdZoN6vU7r2EBYG6v7bG1tsVfdiM0S68xikVJixd5rJxFg8YK1PMOgu76+zt7eHkEujkrYZqOXL89x+fJlxq/NMDMzQ3F6glKpRMbKxd564gcu0oX3myzs1GPd53NxHIf79+9TqVT4rP3f2Hj9GoHpry0dg5/wwfd9Dg8P+fTTT5nK+Xz44YeUp0vnbpzzTs3zsAHDTrZEw3v9+jVra2tYbR/HdXFjp1oSw058Ldfnb/Inf/InlN6/yszMDIxlU03gojn4fbSUBarrxRu8Sb1ep7F1yPb2NvX1ffb39+lWT40gDI1zU3QVQRAguwbZmPjJEkHQH6dXShEFxumpCFJNAIwgcByHkeI4U1NTlJfmmZ+fJ1MuGid2qUChUMAq5owPIW80Vpx4/9jhUEQoZsOmZ7L7vk946vP06VOe/L8/4uTkBCuMUp9SFEWEQUA2m6UyN8fCwgKT8/MA+nHDRDecwYhFx3Xdzlgu10nmMREE+9euXdvret3dvYOdOYUBViul8EVEbiRP+d4VwjDkuFmlKUI47RIEAXZ8cd1oc9rsUv/iDeuMMPH+MuNWkbAo43CgQqNRUiDimoEA0YjGlQWzMTyPfLuM22ySr7fQB+OULldovsgQSVMyW9U8g5wS8SnV50xKHpx5kKYFtpGw6jSk3eiCUASAjr9oHXsc7nbwtk9Q00cUymPGSVPIGhtuLM/o6CiqbApcRq6hMce2Ygk+aG+fVV0vAKYIhbQF0XyB8ekFptZuMNPaQr8+4eDgABEqpGWBLZHYiHrA4co2sligXpjFyripJqO1RseAqyT+PJCdqBQIh4RZuL8fye9pWK3exo8iLMvBth20NoVHo8jgBNxL41QqFSa/d5fRD24wcrWMzOcRlmWEQOKtPjP+31YYJDiTIUHjK4IooPNin421NboHNVqtFq3tY47392nsHnN6ckK31Y2BPHGUACuNLhhgz2D2qta9Vykl5CxyrouYyBofU9bY9tq1TFh4aoLJyUlGr8wwUamQHYmdfCWjaSb3ULFDXmDWisSOGbf8gWeitEBFEban2XuzSefLHaofr9B4tQdhCNJBCkEUeea6BYfR2Qmmv32dmcuXcYSkXq+jLBMZURHo2L+DtjzLcbq3Hj58k9zPBvirv/qr1f/wH/63nYODw10ppQc4WmtTjjzydSaT4dKlSzqTyQhZ7RgP/usNWq0W0nVTqQywurrKwcEB9zIek5OTZOyScY4MnVSJlqBkT2W1LAsra2yb0cIoU1NT2FdDyuUyx26Z58+fs3ayYibS6mkGSilC309V76QJIWK0lpVCZNMwmzL9aTabrK+vo453DCIyYz5vxfH9fGWc27dvM3X7quGrHy9SLBbJWLl43PJcB9yv8xUkGkJi392/f5+JiQme/pef8+Mf/zg9eZOMxjAMOTk5of3mDaVSiUo+4Pbt24xPFtJTOHEMDjdjKry9X0l/EkyDiNOdozBKk1S01ly/fp0//uM/JvfgCrOzs6hcL8owEF16y71+29bvB2g3jLPv1ZMn/OQnP8E/ahjz6tRAfG2vF7Ex+AA9aGJg1k+S36KJw51JkpNQKSvxzMwMkzfmqVQquCPmxHdLZsNbBXPiBwXb1N1wRFwtm1SjShiXtNZpWbbhNZMIZWLNMOh4PH78mMf/1084OTmBOKpnSSN4gzCIaymMcvXqVd59/31mZmZYe/U6rSWZXLu3RlXXcZwBJHEaj7p8ef74yZOxIyllVylVFFJrFUUQBUgJasylMDnBZOsqM04Hv9Wh1m2hA0WoFHasQwcHDY52qxw8es1mZpqRh5cpXLuGLloYhcdsxCih1EkAecKUw8IRuI6LKggyMo8rLcZ1HdkJeFXfR30JQRRhWxKlQIkQx7FxJieMeuvEtfAavnE8BoowirDEkDpvxXZ0ENHptBE1k0+dchXG/SpOjHB0rNAnHfyxMbJjI7QKBTIjxsdgl4ymoIuWESSFGPyT7rzeghpczAmGXiFtC2dxktmFEU4Ojpmob6LWTmg0GshAGxUwigh8n2CnyoG1Cq7NFWuMzEjOULxnDVZCpMk5Q4CUmJ34PKaifiGdglHiXA4tNXbGRs6OMzo6yuRHN5n+3m0ysyPg2D1zJwlXMSyLfrdmQezWRmgLHWqi10fsvXnDwccvqD16Q9Q0yDzieQikcXLKVGAPpnnLWGgJYSDt0XjsrM0lqrtFsVgkPzFKZXaWyeVLTE9Pkxk3eBU3nyGXyyFsJ9bIjFCUcfq1iDe/SDH/8YyoIVMteQ4YeLjd0Rzt7OM/2+PoF6/Y/9Vrsw7iFIdIBUQqQqmAQqlM+cEV5t6/yeSdKzi5HNEXXer7R3jNNihQMiRSCAPK0dq27YFVkAqCcnm6WShkm0KI/oR/AeggCGi32ziOw9LSEq7r4u526HQ6nB4aqKzoQ8cJIVhdXaVer3OT7zA+Pk4+M4Ibaw/nnRTD7yXAkDAMyWQy5hr5/MCJqrXGCz3K5TKL79wzlYSyEs/zqK/vmzTZ3QOOj4/PQlqlndpYruueAeYQqhQv8erVK55Xd40dmXVTZ+LExASl6bKplnxp0rxmp8wc8Os93P1h2mTubty4YRCGP/2CX/7yl/idttEc+jSD7e1tTnKKYrFIZUxx6dIlJovTpgDLOTa61gY22zttODOPvUXZqz0YRRGFEbPgl779Hu+++y7ZWzOMjo4SJBsrGUffNX6f+IxEaIWhibI8e/aMf/7nf4b1OkAvzyXBDYg+j3pfHD/RCASkOR+XLl1i6vZlwyxULhpfUT5nuDBKRvDrMWMy6pxlBEYs5xMNTol4fZ+DaB34/S1j1FrTarV59OgRL/6ff2Vvb6+Ht5G9VOJEk56amuKDjz7i4cOH5CYmqFarnJyccHBwILrdbuKn00EQoCOlAV9r7fffMxUEY2PjQTabC4HQ2FBOEuwVURTpbqeFQJFdGGcir5neX6JMA/nLgEatFsepFUgTV/W3T9hY22esPMrxyALeXQP0ESXDd9ADFg6VDE/ZgwGl0BhHljVWQOadvslUBtWmI6ysS26xQmV5GTVlEpRyryYJNkeQbwr4u1lkaGi2iYEddst4l+0YAirSegbxSW1JEx/2FbXDOmr/OO5f8iAtvHKZYmUcsbCAd2OO4lKE62axR0bQhSSOPIgk6+f6SZxOSimEbTZS9sYMV+aKdNttstV17DUTpbFCk/5NENHtnKJfw6H7CjI2M2EBb3TcCDbH2LUiyTlIp0unVZR6895HQpP4WqK4v/kMGcsitzhLZW6OmT+4z5UPv0VUEoRSYuvEpNMJc83FK/ucdqaK8oW+hMH3hRaoSKHW6xzv7XH46Sv2P3mJGxqBjj2Yr5/QoylH4uQKRPkYqBazKdvSePftYobKzRtMP1xifHyc3OQIpVKJXKlozIpMHK1SJmkqqcStkieswrSbAmN6JiZSb6SC/udv5j0WoNoCBE474Pj4mODpHkc//4o3P/0sNgVsREwZZchfA3LFAsyNMv3OMlPfWqJ4Yw7Xstk7aOMdNujs1wg7XVO1KzIiO5PLdrLZ7Gk+nz/t70cqCAoFN3QcJxRCBsNeXhXjyLvdLtLPUCgUuHv3LrZt83izyfb2dmoDWY452ZQwC/f169d0u12W2t/iD//wDynlRwcqFb3t8EgQYY7jkIlrHp7ngU5487Q27LHFYpErhWkWFxeJ7sdIsWaXdrtNq9ag0WhwsLLB69evDbjknGsmfg/bceJTM1Hle2GsbrdLa3+fVqtFdLRGo9FgLutz9epVxi9PDVS5eVszWpJZIK7rMjo6yvLyMr7vs5t7wdOnT/Hap6lGlXA2vHnzhm2nSzab5dJkhomJCUYnC+ZkigWHHjJJ3tYXpRRRHL6cnJxkfn6e+Xducvv2bcS1CRzHISKM5+OtQxq43+8yaqCUotvt8tUXX/Czn/2M8LmBy6drSgzEy1NNIJcvsbi4yPjlKUZHR8mPlsjlcuSzsWmVdxgdHYXZkjnp8zHSNRYsYRjG+BaVCgLg3KPd+CJ6vpP+uQB9RkvoRwE2m00++eQT1v7br9jY2EjfdxzHaHxhLwPx6tWr3Pt33+Pu3bvkpwySM4oiPM+j0TDRt0yo0vUlhNAzs5WDS5eubFQqla3+PqeCwHEKgW3bvo4I0BJEaH60RIWa0PMJPR9f+RQKBbK35pgrabafvyZztIY8aNNsNpG2lT4YKSWdtQNevN7Fzjncn7gE8hLj4+OExThqEOd5p0w/se2UnlDC1Dy0ikWIy50NLGalUUFIq9nE63YZLdiMzZZhFka0JgygEkV0aw2azSaN/SrVapWwaLMpT1GnxvkpQrNopGeEngy1UQ6EsSO1itNshUIKgUQRBB3Co5CTozrhhma342DbLpVulsJ4ibyVRVmDMO3h7Mc01h4vWplzsYVD7uYcV8oOKox4Vt9Cej6B1tiR8RloP6K2e4Db6XDsTpAv5igvgx4txtGBEK0Nqqw/265v4hjQTrQynIE5l2wuR/7WAnN37zL7wU0W7t3DEyGB6qEv1QWbYPgE10L04St77Wz25NuFhdAxOKjqc3pU5egXL9j8rx9j45KxLHCkSWBLwrQJkMgyjmW5MMrUw0Wm3lkyJt3EqLH9i8bHY2XdFHjU7zQEiHREUsR6mJGop9rG1O7CTEFiMiW2P32bPR5QrDHGOAQfOp0W3qsjNv/lKc/+8ZfmY5Y01b0ss5n9yCeXz9GdzFB5b5nlH3zAzOXLaNtUadIRhH6E32yjGi1C6WI5NqEOQIhoYnxi4+by8sZf//Vff9I/v30aQdFzXdeXlvAS7TD5XxjGMf5ul4w2XHwokxb54YcfMjY2xvMff8rnn32WMrNIrLj+n7Gd3rx5wz/8wz9wpXaP7373u4wWK2ZB9LEeDZ8eyd+O45CLkVf9/4tnlk6nw/6+iRePdOfM84ltNuIwUT6fN/Fep8Dk5CRXCxPcvXuXqNE2yVEtz5TkOm5wcHBA4+DYJJt04lBrAtiRxp6XllExrUws+CxT0eb488+xbZsbiyM4joNdMFDPc2poDrT+Ewwgn88zMzODvbxMvV7nSKyysbGB12imoaikGtSrV6/YsEyc/FolHy/wzAAAKGkXaVRB4JHJZJi/dInLly8z8+073Lp1C2ZKse2rLoxK/L5afzRCCIHnebx+9ownT55QW18HSOdB9fk/dByiC4KA3FjBYPjvLXP//n3Kd64a0yBjTIJ+MhWtNSoNQw/iLC6Kgpz1AfSS2vrXc+9zQ5GluN+tVssgbP/1Gbu7u4DxXTiuPTAutGZxcZGlP36Pu3fvUi6XsSyLMIYyJ3iP5FnFc6fj187Y2Njm/Pz8gDYAfYLg7t3rr/79v/9fOwjVxTDIGEobrdBhQNjsoNoeKJOrHloGX1D4o7uIW1Oc1Kqw8wKrIfB9n6xtvK6RNgnYnZV9nrzcI4g070zfpDBqSkdHuZ70BGMzGR9FDytu2zbZooObt5EZB9XtqX9SQ9Dp0tk8oj1+SND2cbDp6i5KRQhhWGqsvI0tHMR4gREh4NY8l6Sk2zbIs261Tb1ep7a2j7+6inqdo7YF4aEyjMoxI5MMBZEEV1jGLM4Zb30ORaveoHN0yL49yuzSVZQeI1os4uZyRHE+eOLESpZD7/yMTY8ortuQdyiN5PDuXmLBNXjy9XYV3WoTCcNgY0mJ6Cr2V7eQh4ecuNNMzlQozc0hr2cRQqZHr0WcEXdObUOlFDquTJy9PsXCe7eZ/uAWleVlWnRphz4yrkj967IHEzxh8rnftAJTTK6JJQ1gze4qgpMWp49WWf/Jp3g7VaP5SPOTpKGnEjdSqCBE5DJMLswxfe8alfuLjN2YMU5DP4hxBJpQhchw0MlqcCaiZ1ol586FJtFQVAjznCUxfH3YRIsPKCuMQ4tbdXY+fcGbf/mMzv4hWmCiSXbGqPvKx3ItKGSZerjEnf/xD5iZncXKuQRSoaNYo/QF2ldoLTRIISUIQ3yGkKJdLBZr8/Pzg5V4Gap9mMvl20LKhLswfcSe54l6va7r9TrFIDD2WOIEE4JSqcQHH3xALpfjzb8+5csvvjgTB9eR8XTu7u7y05/+lIXomDt37jB+afJMbH24SSkRSlAsFpmenjbRgnrbLBDbJooiqtUqR0dHdLvd1HPeL41TQZPeo6eyZ7NZMqMOuVyOaXeUmZkZwuVTarUaQa1Jq9Wi22hSq9U4Pa5zeHhI/eDInMx2Au2Nr2tZ7O7uUvvxj6nVatwYecjCwsJAf5IxDWMP+j+TMP0Ui0Vj2x4Z+/FIuRwdHeE1u2nMX2tNqBQvXrxgzWny4Ycfcmv23bh/1hk79CKEoW3blEolJiYmUlaoKIa8/q5t/fPaMNYkwVn4vs/+xh6vX79mc22N4+NjXD/EdpwY8yDSMnjndbE/o7KnKfaiNkbDvUBzSl6/QSQkWV/mexd/zrIsmrUG6+vrHDxaYWVlherhIb7vD2grUWSc4jdu3GDh2ze5f/8+Y2Nj5tkTC4A4WhFng+oBbAnpc2/mcrnm+Ph4c7gvA4Igk7E7AtFO/k6cYoEX4h22CE+6WoWRkBgbXmmNcCUZO8fsH90j92CBbrfLl69+hfIdQjS2sLEdSUAAkSZYP+L5yS/ohj43S/PI6SkTf7UjE3Lj/AWhXZfs6CgjC1McB028RhOlQ1yZRUWa8LBG96BKdNrGCRSBBShToh5ifpbYRjdx3BhhZgkydgaRFeRFEeYFU5YFygA2vGbbAHl2q2xtbVF/tkH1iYe/sY3MCuw4ezFCgrTJKcHJziHB9jblasTCnUXccYtu1jibkpSFft4AhsbcHyKzRzPMTM4jIsGkPkH5HnvhKUHjFLTRDGzbRoYhmy9eEbxZZdmaILp7l2zBQU2Y6EeSVCW0xBJ239yaDe5rDVLijhcoVsaRGZdARTFzUdrpVJu4KHvwrAbwdmThcBiTWKWWwtDSOaFNqxXRfrbP7qOXHL7cINyrIdwc2Wy+569I12wCNIs3glAIK4YOK2V8CFoTJTwFF5psg9moSffPagRn4x8DoxdJhaOEL8J8zsVGKok8aLH3+QpbP39M/fUGjf0TstkstmsQowEhkVRoJ2T63lUe/s9/anAMo3m0iSX2eqIUkecRBkEfOY/JWxE6whIyzOVy4ejoaDjczwFBIITw0Pj9NlNig+/u7jI3N8e0d2NwGhKSS2nYah8+fIjWmt3PVnn+/DlRXNwz0QyiKKLVarG5ucmnn37KrDzl2rVrjM+Mp7ZV3Jf0NXl/dHSUa9eu0Wq12No+MZjxviMgiiLDG9fpEMWAkPMkuTndeqejEXjJQ+9JjkTjKJVKFCMH13Xp6Dzb29vsDl0vscdkCrWFWq3G06dPsW2byeszjI+PE+gotXsHxtfXz/7fk5hxsVjk5s2bVBomWnHQxiTRdE0ZdiFFCgZ69uwZ2/8p4t1332Xpw9tmYQkzH+GQkE360K8pqHjD/Pdo59ndxtFs4Xke1aMTNjc3WX/2jJWVFfTpKXYmk1ZTTnwB/QVnh6+V/K8/G/G8NnwA/bbtvGebaDnNWpO9vT2OHpt9UtvaotvtDnCDRJFJs79+/TpTd6/w8OHDlMMz+cwwfiMIAnw/FgRD/gmttW/btpfL5QYwBDAkCLTWEUJEURTpOA4qLCy6rS7h+r6oT+7jd7uxdDU/OkbiaFeSyeSY+d4dvvfgEv+i/4HHbx4jOuBKgYN5EJEK6LRaiJfbvOpIfL/LkjuBPTtlimGQEDfEkMh4EIEOKI2XmLl1hfX6HvKxi8I3TEpmtGbTdDz8VgecLK5tE3H+YusVRNKDr0rFvoUIIQVkNPlsDjlSIjMzSpgvkXv2We8yfQedMQ0EwrbAEzSOqxx9+pKTME9peoxsOUNIGxIKOXomxfBiSZ1TyhCHOuUMVycXObRdXnYP6Bw1ON3ZQdVPEWSQbgZLaLJByNoXTwmefMXl/8nm+u1lcsJG5ZXxlSAGkIVCGJqshKFICcOVb6vIoOMss9gSSPY3tw6+/he0NhWDpBS42qXb7dJdPeDw6Wt2PnvG0dMVMnaWXCafzlc38tChjxZZLGHHjEQ69YVIR2BnLIQjU3aggXv2nfTnOgN/rVy4yAuiBs6g5D6W0FgS5FGbgyer7Hz8hIMvX1Lf2MdxHGNGa00oNL4KUVmf6XtXefd/+b4ptjtlKqknAi3GRaKF4XJQQUjk+6gwipeZTMlShBCRbbtRLpc7gzobEAQTExPe9aWl7s7uTrd6Us9prdMcAlOFpYMfY/rT07SPBFJrU/NNSsn9+/fpdDocPltjbW2NwAtSe86yLMIw5PDwEP/VK5Nn77YMM8vU+ADnYBIXVtrk8Y+MjJDL5VIEY3+L4pzzdruNW/z6bD797SL7GWK66dh26x/zcEgz0X5832dra4tCoYC6aexuZywmXY1ibkVx9j4X2eNCCEZHR7l//z5zdcfwMOxXjac4xkOkGYBhyLNnz9j7z/+Z+/fvc+O9G2nfhqtZnYcIPKuyJxrD70dTSPohpEGTNloNNjc3WX38mK+++gqvWkX2JQclKMq5uTlmZ2c5Pjhmb2/PwMl7HJzpmJP18rYTf/j/vyvtQGudciC2my1qtRqHz9dM9GN1lU6nM5D4FEURwrFYXFxkdLnC3bt3qVQqFAqFt/pqEjyN53mxVnpmXfmO4wTvv//+q+HvDguC05s37jTCUDXq9Xo2ipSwbAutI8JuQLfTwQsCQqVQVhSnDhhpEyXOw5yFW3Qpf2eZ966N8uzvf8yz/VXwApQU2NrGdm3wFPXWCX4U8irM0gpDKt8ZwZ00mkGgjE0dEmIcezFybLyIXcpiUu4jwOmp9mFE0AzwGh5iLAIt0SJE06uenFROHOYaTI7oHhYsCWcmSEiFdCTatdFWLId17wH0VGuFZQlskSX0QlqvdziIXMavztJ1JxA3K2SyI3Tt0IB+0n7p2MuskFL0aQzJQ4xh4lN5rozfpigsPtl7SvBMEWgfK4hMuNLOEIYKgoDVL58Svllh+s9DFhcXybpZOrJlOAnPWawDJkmsHcRF/c5wMH7dilBfp/X7RhztEHoBau+U+soOWz9/ytZXT8likXdyaKFQOqKjPIhCssvz3ProI1Z/8Tlrh9s4noclepwVAgvL5OIPCLco3lD9bNQXCYFvZjIMah1RrLFmtIMtbORRlZNXOxz+8gV7v3hKY/MgPjiMoAo0+CpCZUKm71zh2v/wAeWrVynNd1xPZQAAIABJREFUTcZagDEtB2pBChCY3JugE+C3/QHTwDSJEBa2fb4GMyAISqXS3uWrCzt7e7s7q5Y1qZSS6Qmje7HZIAgMJfNZttT091KpZLyet25Rq9XYf7nF/v4+UTdMpbMQgm63a/LGn0tKpRKtUkS5XGZ0fOwMKst1Xdy4KnL/vZP7BkFAo9GgVqvpidkSUpqUkt9Esg8vChGfiJZtD9z77HcGvfNCCOr1Ok+fPgXgavEBuVyOyI0zD9X5bEGCs979REOzLItKpcIHH3zAlU6elZUV9jZ3SeLnSf5EFEWoU5/19XUyjx4xOTnJmHDPV4GHogm/z3auKRSbdoEK2NvbY/PRc7766iuqh4eoKDKOMUgjQtPT05TLZZZu3WJxcZHaysa5eSyJljRcneubtN9UM+jXBLpt47vaWV3l888/p/HytaFK67t2GIZIx2V+fp6RxVlu3brF3LVrjI2NDUS9Bl7pzV+SG5NU3GZIfRNC+Nls9tz6JQOC4M/+7M9e/Mf/+L/vr5Rf7dvSUqEOtDDNnLiRQvkRkReiLRspLYLY7rK0hVYaZWljYxcd8qUxSt+6zvKkTeYfP2Pz50eoVhNhGfSc67ooP+RkaxfP89hReYQFI/fuYU9NGlhnLFIjIizXwi2N4OTySGlj+OLih6s0oR8QHjbx9xuE1zxsBGHiALvA6zsc300foE6EWmyDSW1Cca5EWSb6EKLQYThkpiRsxhJLCFxb0Gl1aX/ygsKhz/jsDM7EIqoscaRFYJnkEVsl8eakg4OoLhGHh1KOxMuj3Bj9gKm5Gd783x309i4+Cpmkqdo2BAFR0OV4bZf1H36CvbSEe2cZQgnaNj9nmhr6iedheI5+C5lx7mZVEhUqnNOI0zeHrP3wl2w8e4bwNXmrl6wWxOHr/LUKy/fvM/qtJTK3Z8l/OkLkgIxzKJL5U0IhbHHGlEzrHJzREBPn72C0Y3jd9DSiwShK4mtITmorMYXrDao7Oxx/usLGTz+ntXFgeur0isAGoUKPaqZvXWL6D+9TvrvMxNUYIBf6cb+H+2sOH4lAhRFRs6vD0w6RH/Q5wJN5RjmOc26c5MxKmJycPCgUi/tSyi4wwAuWZHz5vo+VPV/6CtFn7wmR1i0s7HSpVqvU3E1OTk5QnkpPVqUUzWaTtbU1TkqKTCZDMOFQLBbJFrLpSWdZFpmMYe5JcPf9eAXP89ja2mJkZITs3cqAZ/686MF57dfZkFJKisUiE5OT+L5PxwsGTv/h6ySSuuuZ2nd8/jkAM+9e48qVK2+1+d7WHMehXC4zckXw8OFDZo4stra2ON49BMCOeRgsHJrNJm/evKHb7bLZaXB0dESn0zmzOf57aQTDLdF2Dg4O2P9qnS+//JLdrS1ap6dkrWxMwmmcY8VikdHRUZaWlrh//z7BbDn1PZ3X+jWC5F6/675f5M8RwoDrfN9n+80bo+G8eEW1WkUEQeoXCEODiRgbG6N0bYpbt24xfeuW4eOIcTJaJf6o84vBCmF8K9VqlePjYzzPAxCxz0FrrTXIQIikkNFgOyMIRsqF00Ih05QGWFTqR6RrrVFdn6jjIYoJ3DcxZhOVxXihVZKlNeowOjKJ9/4i13JdDrI5Dj//HG+nSiaTwY4da/gRRxvbNDtN9iji5nNcu3aNkZsjJskiZopxchncfJaMW8Sx86iwY3LKhY3f8QmfrXEY2KL+3Vva0gItDQb7IjbdiyY1sa90Qh2lLZPXYNsUxscZvzrP/v4+7BwBGvociMaJGrPXxlWMXW3TqTbZ/MdPsVePEfkfcHv2Ok1TgxIlkoo2RvZKMRjqNaXgzFiEEKbWopSomQLX/+hdZssVjv/xH/G3t03ZLG3IWBzp0Ol08NY7rO9WyT5dNeW5Oj4ZS6bOWBEfgiKykMpw45ufb7pxkqNycMH22J4HP53Ussx5Nsev93j+n/6JtZcvCWpdMso2Nq3SBEHXOGvnppi4epXxby0z8cFNPDz8qHOOTZzcQCCsniBIxzkIDxjsf1+0SnJ+jkgvCzXRGOLniIkE2cII4uiwTev4hPonr3n1449p75zgBCHKttFCEEQRQRhijWaYvL7A5AfLTL97k5nb15BSJio+QssBmHOqr8TgJaklkR8R7Nbwd6oEnS6oHhmx0iFKhKFt22fz1DlPEORHWplMriWEaA3/L/ER+L6PSGL4Q86WYRsmwYIniMDysaZWq3ES2LTbbaJY1QNTSaZTrfL69WtORuKZnszEGoCRnkIbhOHCggEvnRztmnTiGGHXbhmocLfbJQxDrezhCvFfvyX4gP6/pRCMjIxQqVRMNqM6OGPvKqUg6lF2JZGFKIpoHB+zLiUj6+usr6/jzpgTDvSAT+SiNnyCZzIZKpUKtl9kZ2cHd/3U5KMfVVN/QhTFDNKeyaeQUmIn6rYQZ+77uz413zYWgaBWq7G7VePly5esra1RPTwkQzatR5F40rPZLAsLCzx8+JDxS5colUpoT9Nut9NI0/AYfhMfgRHkw3+//Xvp/eJ7JXO+vbnJ8+fPOXrxgoODA2TbH4hgWJZFoVBgdKFicCJ3bjE7O0s2l0sjI0k4+byoTbrnBHS7XY6Pjzk8PCT0zX2S3IlCoaCmJqc6xWKxfbb35wiCTCbTdSyrIxDdYbtIKUXo+cb+iFTs8U4IKgxkr/ed+H2piKIQxrKUC3NEXsi83SJjO6ysrODtGcITRzo4tqmVsP9mg1qjzozvUigVqFQqZK9OIYQkEIrixChT786zZ5/Q+OUh3aDbU821INTKRCk6HuQMqcfwg7xIQUiq5Paq4fY+rzAnQ65UZHRuEut4N42/J8w5ShgcAnGqKHZSSMOckEEgCFtd6l+us+U8YeJ7y8yOTdHWPlqDFWsgb+0fmFqRWhMJsLMZolm49NFdSsUiH3/8McEPd9HCxbKySCnIuFYanzYaT+KPEEPXFwgt0nElZ1w/tdfAmkiedh9993ntbEUjiRSSvHB5s3vE1j99xv7jp3RqLVMmzBUIC7PeoohIhIisTfnhFZb/zXuIcp6u7hp8g4pL5g3AhI0um4SrtS2JEoBk3wk/HAVJet+Lkpyv+g+PJ4mrCGmQDFHLsHBXP3nFV//0E4KdKtm2QksHKQyeJgwCrHKBicuzlN+7zvwHd5l+ZwmRyaCCEHRc1Tjpj9aouKOJhpswYdkIgk6Xxu4xjd1jbE/j2BmC0MOWUk9PTzeXlhar5XK5dt7zOSMISqVSK5PJtKSQLRg8gZJc5263S+ZCttqzEiuKImzbMQi32VmDjKsavsDjdswcE+dNCyE4PT2l6rdZWVmhUba5e/culycMCaS0ZaoR7O7ucpxZMwxJST9jSet5htU2tN2Ux+A3Oen6v5doBEmV5lwud8YvECmTH1AujhAEAUc1Qyxi91UxiqKI3d1dvvrqK5au5pmfn0dlEuTlr9cKknslwk9KSbZQYGFhgUuMcHJygl45NoU7Wl1z8iQ2ciLgUiDTmesOesl+D00IU3mp2+3SatZZX19n5flzdnZ2CGPtLq1ApAx+ZGp2lqWlJZaWlpibm6PpRGk+xq97rskc/Sb9TLWlC2ajX/MAUkTuzvY2a2tr7Dx7xtbaGpm2Ya1OrimEyXEZnZxkeXmZmbt3WFhYID82ZnAhfajZ8/wQ6Zhjn1wYGqKddrtN0G4j6FXOEkLocrl8cuXy1eOxsbGT88ZxRhDcvn177W/+5m8aSBpaACrGJcVxer/lab/lEUVRHE0wJ4apuKMZZODpSUpFRBAp9ESW6dwVrBBmZBtbW2xvb+MfNoyvQNjYlsSJBPuvtjmp1yi3JIVyienpadwph2w+QzA1RqZcQliYKi+Jwy4EIkXQ8kS30UbkFFbWMVmQ/S2mQhv0vpLahmcmPOVaBDvnkB0bQ+bz6WcijBDwlM9CZZKlP/qAer1O8yefcLq/j4yMc8ixLITWeFuHHLQjxq5O0xhbQF4eZWJiAm0nEOUhstXhE5UeA5FSCk+CM5JDXHOY69zC1pInT55w+ovnMQNSXGK9F4c433+auAaG+ApS86bvY/2vKokeDQvctNYfA+PICpfDo32aTzc5/mKV+usdouMGljAwbRXzMAdWRKE8xsIP3ued73yHkaU52o6K2bDiKEpaYLV/QGYgOq6ubXIq+ky4dCMNeuH7r9CvDZyHMNRagyUGkn5sT9BqtTn9+XMe//jHdLdr5HwHYUU9kyHwkcUck5OTjNy/wtxHd6m8ex1dKhAqP75vj0otvVdfR7VOirXG6ce+IvIVWoXmuVnScBiEGsuydHlsfPvSwsL2n//5n39ydiTnCAIA27ZblmWd8RGEoaEUbzZbjCR12lMJd96VeoNIpJrruqauwRVoNpsc1Ixv4KhhGIZUvOCEEIZApLHHi8lJvEsFfN/nasnYjiMjIxQKhQF8eTJZCX9Cs9kkW7bO+DKSfn+T1r+4XdelUCiklYAHPhNFjIyMsLy8TLPZJNg4MKpto21CX5YZW6vVMr6N1VXGxsaYziyZeLEYPKmTiMjb+pWMxXVdMlaWK1eucCksmUzMVaMZBF74jSMU/dGWVDP6NV/Xw58/55pRFNHyWuzs7LD51Vesrq5Sq1bxfZ+cY3wXQWRO0EJ5imvXrvHgwQPeeecdWvn4lLZ6zzDNHzhHiCda09dBFn6d8Q2PM83yw4Q2a/vHbG1t8eqrr1h9/Bgnyp7RcBKczbVr16jcvs3i4iKlmZlYEwi+0TNKImq+7w/wGPZHsizL8kZGRvZnZ2f3L7rOuYIgl8v5QgjfIPYkWmnQEHg+nZMWnZNmSt2EHt5UPV59E9+XcWHGCK0UkQxNSvJUhumH17Btiw37lCAIODk5Iaq2DUTUNokiQksOXm3TPG0z9gcwPjZpyCTLedzxHJbrGHs2vrvQEh1B0PRpV1tYs0WEMLXh0gw8Ic7Blg/byvFE9xUP1VqAiAzVecGGTN+odY8dWEhJN68Zm65w+99+B3l5jK1/+Yrt7W2ykRmXKy2khuaXGzzb7RBZFrfK1wjHDRGLimmUpR52cvWMWTkUrkUp2lLhlosIN8d0cIswDFlZWaH++RpBEOA4sWaQXGZY05AahLpwMV4kkoZ9BAn+IplzLUz418amXqujtursfrnC5s+f4B0fIyJF1nbQliSMIro6YHJ0hPl/c587Dx5QvjVPu6hBChQqnQappbm30gOntsJod4lZICw5pFX11O6BcSRBsKHhK937vBACJRIkqPH9WF3oND0Of/yET3/+c7w3R7i+i21LLEyNgiAIENLGdbIUF2dY/t67jH24hJ4qEhKipUYo2+ypC+a5130TJZGYCtDKD4g8v5cESA99KITwC4VSdWJi4lyzAC4QBI7jJDq+1n28BL5vCpYeHx8z43kpT8CFfe2TSmm5at3jmZ+fn6fsuZycnFA6NKy5xyetgQm3LZvDw0Oigy3Gx8eRN6a4fPkylSlDbGJZFqT36NXlq9frVKtVnO5o6nXtz/r7TZoB9Ji8fTKZM9luw9GD8fFxZu+PGlzE6yOOjo6wFam3WGvN3t4ee3t76JsVrl69ShZTMaffPh1erMZXIc+8Z5yzglwuRzGbZWlpiZmuqWC0umrYpnUqAP/7YQaScGziQzk8POTw+SorKytsvnlDEAQUbKMJRLFGWMgWmJub48GDB7z77ruoSi7mwhQ9T7o4fzOn96S3Bvshxr/pGPo1quRvKSW+73Naa7G1tcXjx4958fEnOGFmAKeRMAeVRopMTk5yZXGRO3fukF2cN1iYhAuRwetf1Pr7EkURkR+aKNk5kScpZSefz3VKpVLnzD/jdq4gUMJEWpVC+3FZa1c6RF5Ic/VI1HP7tE6bF2RmxXHLNJoQAQIpndiWitlfpRl8NF1g/lu3Kbo5jrI+ftMkDUUtP95oEktIdGSx//INwf/pYX/wASP/9kNcmcUuCmReo7oQRRpLSyIvpLV+wmF+i8LSBA4WgQxJEtPApEjovnjy2TmIJ3HItk1yDrLZs2XKZZwfHoU+nU4TiGCmSFFVqDy4zoHo0Hl9QLVaJROXlHNjFuP6L17w8W6HK3/xIQt/OIk/YhlpT88p26/qJhtLCXN8JF7kpKrxqeyQnSpiP7xGRZwSdgLW1tZov9wxRK/xxpMm+JBGCQSW+YmZpb6uvOjNVy93Q2uNkLFpEzl02h2sky5bn79i87/+ks7+Pq4WOJaDJQw4rKs7TExMMPbuMot37zJya56okkc4NgEg0oWexNMD8xMLwkgbfoJEU9D0QnqJT0j3vn6maTFoEvXwAzFCIJ2PWO32Bd1qm+0fPuJXn35K7ekm0rORcYEcQ8hjahBorcncmuLB975H+YNl/Mt5bELjwFUxy7E+m40KPTxDOs9ohFYmm1RpIi9AdX3DQq0xPqaEsl2IyLatKJ/Pn4shgIt9BMp1M8q2bRUoJYUQIpV8h4fs7++bApO/xlvbb3P1JJgeKACSy+VYXFwk1CWOjo6w1uvs7OxQrRnNwLZcoxnYNjs7O2ztrZPNZhl/cA3f98lkTDaf8HonaBAEHB4eGu9949pApZ/fpiXjdRzH5MRfoBGEYUin0yEMQ/L5PLOzs0TLy7RaLdb2WhwfHqLswdj25ps3bL5+TefGGA8fPsTKFVPE3LBnuv9e5zWjGUGhUGCkOEWn02HixHxnbdPY4r1rXHyq/ibtvP4aE9PgR1obB7x48YIXjx4BUHKyA8/HsiwmJia4fe8eDx48wJ2bolAo4EVhnGzTa6kW1He/4VO/H0fwddt5c3Hee0EQ4LVC9vb2ePToEZ//8/9nhEB8P4MaNHgCJ2Nqfl67do2PPvqI7L15hBCEQ9Gbi/IleiZ4b6yGKayH70mqNQ03IYRvWZaXzWbP8BAk7VxBMFUun965fa9hCbuxc7A1HgSBQMZqjvIRodcjOe5L30oGZDa9wsx9IoIT77eMBx2risI4R4KpHJe+c5eM43L8s5/Bzj4qgtAj5XVHQBgqjl5u8Oj/+C8IIXCcEuXyHKetYzwvQloWQkqiaoN27pCg5aG9CJwoRrclFSneXrI7AQIpGFpcEstyEHlF5J4P9wyCAK/ZxWt2aakuVtGldG+Osqhy9OINbIREIaCNJ9m1TeGSIFJ4b07Y/MVzCg8vsbCwgMoLoshs7PNU237EpLH9jdNMkWgGbfJTJaz3rjKXbaObPhsbG3R2D+h2OwiZNd/V0vhXiGI7fzBq8OtamkUpDPNSj9vQIgoj7JM2G796xtYPf4W3tUVO9GDBURThRSHj4+MUl6eYv3OHiXeu4F4r42YzhCrCEoYRK+FEtEVvw6Sa5wUYBiGEod+Ug3P1VmHaFzEYdCLGcXvl0Kg3OPnpE559+SWNl1vg9UrGpdh/BRpJ6eEV3nvvPaY+Wia4UsT4mfv2Tl+fEh8Wg7cc/FwCrRc2KoKo6xN2vHML3AChm82GmUzmDDNR0s4VBGNjY3s3byzvNur1ncPq/mgQBDKVqKFOsQFKqZSYJJ0wfr1H3jy4wVYoFLh9+zbLuWm2traoZp6b2m6+DzEHQCLx19fXWd18zfRshUvXlxkbG6OzW09tb4BOu21OoFZLB0FAJONw52/R+n0EblYMYNz7T6YwDA0jcrtN0fcZHx/nypUr+L7P8cRjcGzwehGBBEEnhODg4IDHjx+zMCEMi7Hsoet+Xev3GCd9CsOQkZERxouTxlu9bZxW6wfHBuNu/3Z+k4vmKfHbaGUwHafVOk+ePOHJj34EmQzFWNNL+h1FEaVSiSu3bnH//n2mFxeZmpqiEwWxT+Cce9Dzmmut0X0+FdFnayea10XjHI6mJBv/ojlP1n+1WuWzzz7j5z/7GbnjMOU9cBxDQ5/4MhzH4fr163z/+9/Hujlh2KfjgjqDKexfL5qVrMOkxTwEOuEKGbqOlpZsu67dyfVVPx5u5wqC73//+0/+7u/+7oPym9Et27ZvJhc2E6NMHkEQGi+lHIzHn83uG3w/lXj0PTANgRWr9VNZlv/4PfJOji+++ILjXzxDq5AwELHz0KTRWtrGrwUcvN4xExEGJoJgm4qzMgARKoJWh26jSThigEUq5sT7TfPpE3ZZ6QL2Oaq6lvjdgPZRDa96ShgGCAGerchNjnD1Tz+gPpXh5F+fsLW2YbD2AqTl4LgS9mrs+c9xJ/LURypYi2UKhQLCtc6oxsNtYDHpQQHdFBGUcuRvVLBPt3Cf59D0gFh9UQ8jMPsB+edOxGAaeCLajRIY8xxqsGtdVh59ztE/PafzfB1XWTihQNjGlPMiYz7ZE2UqdxeZ+tZ18tdnEbkMrShAo9B9lp1MxzUogM8LH/bPx9tSx88zJ4Z9BMl4JRbVapXml+u8evaM2stt7KqP0JKM45qoBxodOwdH37/K7du3mf3ubfz5PBnXIhCYGpXEtr/SZ/AWFzXZ1+dE0wm1Iuh4BB0PHcaRvrj/SigU2nOcTHdpaenlRde9kMZnbm7uYHJy8jCumur2T2wSt/R9n8iVZ2L5b5O8/Q+r3+YBYx8ljMhy9g5BEPDTXzyLJX4Y87wbQaBi7sNao4607R7Nk+iL7WqN53mi1WpBlnMRhsN/f51Yu5H6MvX8D9uq3a7JtGw0GkyFPW1sfHycyocfMjc3x7/stdh6s5F+J+HVq1arHO7v410ucenSJcbL0jAyCStdoN8ED5CMT2lFoVAgNz/P9vY2B328dxfZ1sn9EpOv30nZe35DmmBynfjzrVaLR48e8fjvfwhSko1PTQ0ps1K2XKY8P8/169dZunOH2dlZ2sSaQB8sOO7ZQD+T7NPhZ9o/tmFWpuFxXjRvZhiD1xUY5OvjL7/kV7/6FeHGPmG3i+vkTRFeeid9EAZcv36dv/iLv0AsmtqdgdVHM/YNtYDhZ5WMLUH8Jn6p/u8ACClabiZ3BhfU3y4UBCMjI6eFQuFUStkBSv1YMqUMpiDwfFTBQVpOymnH0EPor/lnTo7Y3k09mkn8GdAa3zIhsLCS4cof3EPFNN21T18NDc7k+9NXWQmMRJWxrFUKglZIu9bBGXEHTq6epP96TrJ+nnshJdiQKeQpj0+aBKcgQCuFBQTNJicrWzTG5/A6XSSCAIUW4I1K7LkSUx/c5bLs4L/cZ29vj1xcEMYREmHZBK+OWVG/YtrvMPXtIlyKS8XJXn/MxksC32ahR0QD4RCpYj+GNLH8gJCA3mJR8d5NGYnSAcdhBHpUZW9topf9J6VEn0Zsbm5S/2yVzusjRBhh2wLpZoiEQAQaHWiQivGZCRb+6D7jdxaxixk8EaK1AqER8TjTvg2pcEIDynAqmpPQPPt40Gn2ocDq96Jf6J1PTuSU3zDOorSkpFar0X11wJvnz6k9XofNOngRGTuLsGRcacg4NUsPL/Hg2jUWPrqDmi9i520CW2HqgvRp0DFwQatBjSUVRHEUQ+LEiVXGtFMdz5h23ZCj9XX2P3kq6i/eaL/dSf0nSimEEkgtfdcSFzoK4S2CoFwut/L5fMuSsoU5ttMn0F8L0VIX50ef917i7DiDZGHQJsvlcrzzzju8P32Dv//7v+dfH60OcA8kEj7x//Q7WlK1KOZwa7VaFIJ8zF9wYQRl4Dr9msp5G8GyrLgu/RjVahUvrkMvpTQMMZtNdhYWWOx2B6S5m3Epl8vcvXsXx3F40fiYvY0NIstNswWllOzt7bG7u8viaMDS0hJjlbg0lxQD/RSi56Q9bz77T55+Xv+3+XMGnXDnx+gvkp9CGBRfy2ubCky/+oy9vb10zpJciyAwJz4WVCoV3n//fS5duoSXM5qCFkPz3xd96u93v48geb9f4J+nESQ29tt8AP2PO7lGrVbj1ZMnfPnllzRXN6geHZGTzgDzcILuW1pa4gc/+AH20gRjY2P4bqI19q4JcaSvv+9Dc5kgUaUwVa1UnNXYOT01bN31Fqurq7x58oT19XUhmgFSGiMvftZaoD3Lcs5lJkrahYLAdd2OY2XSgicijv8bnU6lSCYZZrEQRMLUntcMOZ+G6tELEoNv2MPbC6VJKfGkRo5kEU6G2e/c5t1mizdv3tB4umEq0wgbKYY3RXIaaLSOiKIA/7jF6c4J9nwRSwhDzqM1krNhmv4mdC/KYd4YHEcoITdaonh5hqoIEI0GWmtsaSjb8X2kF6JDDHFdnHUR2goyEvvaKOXcJSY3dijUtnEOuzSbTRxhVGe3a9K9oy+3eW3/nInjW9y+fRt9uRTDIQzxaTrTImXq740h1hiElJhoSX9UYLiZKIEpcBXHy6VAIlNIr9I9H4UUSS/MpkkEgGpFHNUOaT/d4uTxa05ebGDVOzhuFmnZII1Z54mAhaUrZN6ZY/Zb98hUSkQlC4xN2xcN0en0mw3eewbmfRHbxXrILxKhda/QjbAMujAdbYx8lEPPWcmEfTgBw0lOT09h65SD56scP3pF9/UuqtnB1b2wZBSZCFDp5hzz8/PMfvsW+RuziPEcnitin8BZTURIJ63ErbWGeKMrz7yKZmAozU46NBoNvJMGnU6HoNPF8zzCTsDB/j7NrRrWaYyhkFIoU/6cXCavxkbKvuNY5xKSJO1CQZDNZjuO7XQF4oynUWtNEATa930spUS/c+WbeqD7T6z+E12TeOct7t27x4PiPD/60Y/4xYvtuBKMfUYDSE7IpB9RFNFoGEaeTHtyAAn5dePmw/3r93EUi0VmZmao1+ucsgP0xYFVzxuulEq11WTBlMtlw2Z8/ZijoyNqwSa1ahVp2WnkQwjBxsYGJycnXBInVCoVyldGzvT9bbke/fbk2zznF35X9xCh581NIgSSU9MLumxubnLw7DkrKysc7+wgpezj4o8rDSnD1//uX/wp8/Pz6FJxSAM5S59+nmZ2UQZi/3i/KY4guZeUEktaNBoNdp6/4MmTJ+ysrHB0eEg+NLUTk/UXBAGu63L9+nW++93vUrx3mcnJSVpOTwPtn3vRW6hp38IwTHkHO4222fhHp2xublJd3WX03+pOAAAgAElEQVRnZ4ej9W2Ts6JifsrIrPNMJz5ELXO9MAgRQuh8Pt8aGxutF4vFxtvGe6EgePDgwerf/u3fNqUtB50MShMFId16h9ZJE10ZZUTbIBVSWr2y0emIB0Nrw5pA+sBSZpt44UqzCAMnIjdRQGSyTFaXWT46ZmNjA3/tOOWvGwz9BAhhKiwRgbd1zIG9ytjdOZxQ0h1eD6onTPqjHyo1xg0yMv6DBIcQEZHJZyjMjCL33DgTDiIhDUhMx9WK/IAoCIncuPSW0QXRloObL5C/Pc+8vIese6ytv0JH0nDSSwvLEahOQKt9QvvNAdXnm1DOMT4+jlUyCU9RLDSHt3eKNBRJv5ON3UOcndd60YNB7r+Lmo4dhCpQdFpNvNcH7H2+wt6nL9DbDWRgfAO4plCLpyIq8xXE0iQT31mmcHMWNVKMkYMaK8H0J74cFfs+LLOhrJQQK/ZBRRrCXhmzc8d0niCI8yl6Cmtf6FEIbGw6rQ7yqMHxsw0Of/mc01drBCct7K7xYyEkgTJO7JElQ6s+++1bTL17HXdqxJRWTzQqZV6jwDfAn3Zocg+aPq1Wi6hmNMKw3jKMUjEJqX/aNkV5d6u0q1Wiah2UQuOA1oTCmMoq1iSREhVFIEIc142mpip7Vy4t7ufz+YO3Pce3kv9nMpmWlLI1LMnCMKTRaHB8fIzolI1ksk1cnRhK2V9jbti7fG7cdvhzfbLEcRwyhSy3b9/mGqN8/PHHPN75FzqdTprj3d+/RJpHUcTe3h7dbpeJ49tnxjdsK74tBDX8PRCpjyCfz6f3S3gUgbRKke/76CH248SunZ+fp1Qq8cvPtge+I6UBpqgkq61WY2VlhYmKxZ07dxgdKw+chBdFEpK56J/nb9qGw5H97yex806nzeHhIUerqzx58oSj5y9RSg2cmsZ+NtTqN3/wXa5evUqmVMJxTHm84WsPPJfz+sSg3+Oivp8XNejXlAaff8yqJWyzxl9v8fTpUzaePOHg4IBMYHABVkyxFgQBmUyGGzdu8N577zHxYImFhQW8bAxBlrFfJAhT1iJTdLdFo9GgtXdiuCbXTM5J97huEvp0XN/AN/4U2TF9TLArIqa0i2IIupWEU/vG5jiON1OZWV1aXFz9y7/8y15VnnPaWwWB67odiegopeLr94qTdF7vib0wQ9BoEU3vGI+342BN5CmVSoS5OJznmmrG2IbDzXhw+9hY44cgB/xzokc2Ey/wICPIT4+RdTJM+sfMHxwTbWyg9hpGsqZqb5KnHWsmLQ9fnxI0u+huSJS52FkopTS+Dvqz0HqeZq1V6mZXRDgZG2ckh872k4D2EHlKKcKuZ3wpWZM7EImkirMByYhRl2JhjIl3l5g7eQ/1/1P3Xk2SJdmZ2OfuV4XMSC0rVVWW7mk1omcw4AAzs1wYbQCQMPIFeNofQNs1/gU8wBbGf0DbR/KN+wQjFiTE7Pb0zLSqFtXVJbNEVlZGytDiKnfng7vfuHEzMiuzunoAHLPq7MiIjOv3Xr9HfOec7zw6wO7uLlwhQJieWwcBWeth9+4TiJID35uGXfSUErQNp572qZgB0Mx6dCxsTjJJDyTEAxkFon6fcPsRle9n5v8z6TTJVSVluFXHzp2H2P/4Hnqbu4jbPX3fLXAhEEOgPDUBPl/E1FsXMfP2GuyxMVDHBicDS2+Em32h8QzK0+tDAu8LEMRCqhhcHFcYkjCAWqAUSDsFI+tdCAEDQ+iHIO0ARw9foPrbO2jcf4zeXgvoxJCOA0IoYhHDsiwUFiaxsLiIqXcvYvrdS/Cmy+giRFjzVYx/5KPb7SJu99Hr9dDvql6aqN1Ft9tF+6CGvd1dtKsN9Op19LvaAc90c3Ko/Sm0QmPEGAFtfEiGiFZS2MzpTkxWXswvzb84dmEycqoiyOVyHASx3gySUkocx1GVac+eoVqtQtx1kcvlAKh++Plrq7h06RK86XGMjY3BKTnI5XJw8gXkcjlYelx6QvtswoYhoGcYq1bvcziOg9y4h8uXL2O2a+Pzzz/Hg/ot9HqK7ixtcZN0on4goihSeVYmh2JwmepIzKLFacnWGgBKOxcKhcTqZSVdA24Ld+i9dE7YsizcvHkTlUoFX//N+zg4OIDkgylKtq0ISB8/foyjksDMzAzm5z3FkuQWEg8su87XJVk0O/kdIYgj1VfxYnsbH3/8MQ4/fYB+vw9He2rGagoAy8vLWHrvBq5du5Yw9IbnXHPiPaZev4yl6DSMIO0NMMZgUQu1Wg0H2zXcv38fDz/9FAcHB7BjcQwTKBQKWLt8Gd/5zncwe/MqFhYW0ODala81UK/XUX+4g62tLbT3a2i1Wog09RoNlYcg+4pLknTV/Uv20gjqtziOk34CIhX2l7R3O96xPgXLstpjY2OHMzNzhy+7rqcqAkqppMSGFEQaRiJCGYSQiI86CIUAXgA9AIiVC2/XfBRf+HBnxuCPj8Mu5JDP52HnPXieB7ugfpKiqvSTeV2bbWnQxGa6K8640sqyCx7DYQwyb2NsYRoecTBL+2gd1RE8o0C9n/EMoGM9AsIF+GEX7a0DxEtFjI+PI6Z6GCkzF08x+lIocpRBujph5dM3JgYIhRS6kCrvgrmjLyPnXNV/+yGYTntyYZReinmIEJDVccwuFLBf3cVY7SnwrIlutwsr0t17EYff8+E+PsBe+RFo3kXlig0UC0g/pkbxDc9vGojhXjxJTD7+xPdT2RlCKORuA7tPn+Lwwwfo3d5Gb/tQpTl12XRMJHLlIuJpD1M31rDwe9fgzE6DFXJqmrZ+iM05JDMChyGjgRAxuF+AqiHgaVxquEeCUAnKAEpVJ6tq1iQQcngQLQVDHHGwIMDR0yqaHz5C/fYmWs/2IPp9SMcbCrHMlGE75wEWg1+tY7sTo91ootVqoVdrodFooP54F7vPn6NfU/czNEOB9TWWMOSkeogrVV2INAWapw0Pco5qvy/kVFgmFbEPb/V0FWviGUhCSL9QyPUnJ8snlhYbOVURSLUSIYSQhlaZEt0+6zhD2hQ6Lbe3t4dWq4W4YKkH3VYnKC314HjlAiqVCsYWpjA3N4fi7DiKxSLyxZxSFHlPsRbbpo5/uC+fc45cLofKrIcrV65gvClQLBbx5NbXODw8TDyDdOzPueqBf/ToEcYKK5icnAQlZ2MNTotZT3LxLAuW5kRIsh0pjWw8gjiOYYnjIKnBQozVtywLly5dUsNefnMXX375pe4HsJKehHa7jS+++AJPaQvFYhHLKxUVIlivZ5JvNrOQjaGTjkmuYv7t7W388pe/ROPjTdTr9aQOwlhN6ViYnZ3F5M0VXLlyBUtra2qwTbaW4RxLT68xi0eN+my614CQYTzFvA/C0Ol00Dxs4969e3j0/m9wdHQEqTkT09fCeHFSShweHuLevXuof656S3iouwD7Kv1LmxF6vR6sSOj4Xj1yTIPO0oxvFyThLDDYFYChATyVSgWFqXHMzc1hamlBKVwJbG9v4/Htu6jVarDtgefJGOvncrm+4zj+y67py8DCxsTUWL18UKx3u91JLiJCoR9QZqvFck2qQAWkkAibPfh1xVXQAY7VaueKOXTLZXQvzIAs1tBdmES/XEa+VFQhREEpBMvT7cVF1e4rtacgWaw2fimHieUFMEJxmBdoNFpokAis3QfnEYjpbqMqrg236njhPoAsehBji4iKyoNRk5l0r7kcTPYZyOi0GacAbAbLc0GdwUYZfEgxJcVBjFjThKnQQ7MC6zy1MG49U6PA7Y0ZLIwBYcsHO9wCtlvKlRRquCfpBKjXXoAIieb4JmpjJczPzwNLxWRtp8mAnfh00awEilAmnQQyIF1NUWfXPn2Evd/eRfPRczV0xrKTRhrGGOIxG9OXFjD73lUULi8gPzWuXOIoRlqtntSrkhXzMJpZkURIzakw+g/NeQyUgfmsUUIWhJBwAonm80N0v3yG+iebOLyrGJ2Uyz0YwW68Amoxta+qLRwc+ahXD1Gr1ZTHCCRgXrLmzLSlgQekJ1jp92FZ8DwPIq/SyEKPxgOjmJieRnl+GnOLi5haXlTp9V6EuhvCuv8IXAq4QnkYXB1XWJYlSqXSSy3eqYpgZmZm+/r1mw/9fvDgydMnb3Y6nYJMMRapdIiqEDPkoQmqae6LqYQDSzR3q9VCa8vH4eEh8MRVIKOjLCJx1AVgroP5+XlUFtWMu/LUhAoxch7y+Txc3TuwtLQEzjnGmhL5fB47d+7j4OAAhJGkkg0A9vb2VG/CtIVisYjSqvJIKB1RZqot/0mby9xMS980K5URSCsDzrka7e378BJ+er0BRKY+QXs7hUIBi4uLoOt1VKtVNKPnqFarSSebkUajgY8++ghlHOEnP/kJVldunonR96xiFBdJXZ+0FX3+/Dl+/etfo/7RfTQajaS4y5w3pVTxSi5N4/Lly7hw8ybK5XIqxn21CU+jMkzZ8yZkeA5B1oPIfkcQBOjWfXz11Vd4+P/+Bvv7KtOW5ZtIe0eAwp3q9boC60KVPVBsusOKAABirtKGCQgqDd2/ug5m0nd5egLz8/MozqlmM3csD8/z4OZziqNzrIBCoQBWyqPX6yHcrx/jzkytN3QcJ3rnnXeevey6nqoIfv7znz/467/+69XDg6Ovd6vVlW67U7Co4kPjWh9Q1waRFijXbK50mGyTGBdIgzE8DhHGAUSnj75spMpHNNJu9oZjoXvhAmbWlxDMziJYmkGpVIJXKiPM5eAUi+rClFxU8jkEF5cx5bdR29oGPxykTIluDAoOG+jtHaE0OY5dWYbAFSzmpxGUdMEMBZC60YaRZmCzBlx8Zg6hZVlgeQri2QkzTrJRKEHEY/B2CN4OEQuulKLg6nspS5hyjGcgpQQpOihYeeSvzGG6fxGk28ez5gugE4ARANCpsGYPO18/RDvqwZ/dQPjGZaWQckRTXw2wgqGIP2PhB6I/KTkguZo7AKZiaQkQZuksjEAQ+Gh9/RxP3v8c/fsvwIIAhDqg1AbhAiKMEZUdlBamUH5rXRXXXFQKm8dcx+QqHDB9/yd1rZ4og4IP8Egg3WMwSrFLqvoVEvZi7Y/YPsFhtYHw/i4OP36AZ7/5UoW+tpoHcRITX8I34Cvwz5SHC61cWKreRBX6aIYuTVsvLJV2FUwDwqU8xmZmMHZhFlMXLmBibQnlchnuRBH5fB7lQlF5FI7ae0xQhAcH8JsthExKreyIGdUpCUAYFcxxTq+p13KqIgCA6emlrfGJyWe2bR8BWBA6LxVGCsWfnZtFqVRC46CuWIe5b+auqZsihrUxo5poRI+hSisCKdXADuN6NxoNNB/2sbOzA2tTpcuoqynCHAfFYhHl8QKKxSLGvQnYtqr7th0HVNAhzW9ZytOoVtXA1RXPh+d5yC9XFBciZUNxZjqOPGZt9HuMMTjagzlm3XSM3Gq10G63UUzx7JlQJH0spN6L4xgTExN444038OxFD/fv34ePTuKaMsbUkAzO0el0sL29jej+fcUBWRwHAAg+iOuz2ZCzWOLsuRvkfedgG5ubm3j+4IHCBKJIrUfn1YW2zoVCQc2j+L13sbCwcCKnwqt4BWkx1ytbU3GaZ5Sua+i3uvjss8/w+B8+wYsXL06do5hdM6VUlWNrrySKooSfw4CBQoOblYlxTE1NoThdUVWlZfWAWzk976OYQ7FYBK2o9DvGVDejyA28WiEEZKzCLipJkgnzfX/o+pqfjNK+67ovBQqBMyiCf/fv/vzef/gP/1vDc9xGMg1GCHAegVIH+ZUZzC8tIX6xh3bVAXpdRP0+oEEPiFihw7FuJtHxmiNYciGFEKDSxNnqhFgs4Te6iI/qaI9Yl5QqFChVSlheXob1xnWwOIZNGVzLBmKNRuuJyUJjGmH1CFvPqsjnPdSsCQhcxKw9jmhMTZTlQ2i+qicgSOfPjWegHkjiUQhb5+mFAJW6oIhTiH6McL+H6KAPhDFsSRAbhqTURgEGzymJVb8GncxhbmoFzSdVOF9NgTcCnYaUYLrjkocC6ATYe/oC9LMxLIgcsDgFSAzyzJlNnXTrSZ6ci9pYpqqQJqPa1d9TVe8QKqQ92jzA9q+/wtHXT0EPuoh10RADQxRF8C0Jt1CAtT6F6Xc3sPr964mCU6EGoOoGSepqJrxRw+vE6Z5BghdwDsmF7jxVsxU4GXyGUsUkTKUKySiloD5Fr9kB39zD/kdf4+7ffaCyXq5OEZq6DHOsZJx2rGYYaAMXEQCMgjMBgEI4ujWYahCSqgyAuzyFqbU1lC6qXoTcVBmlUgluSSkAK5/XBpIM0Z6bmQ3KYxSQgidgeMhDxM0eRNtX1ahCKu5iQkBkBEooz1unFM6k5KWKAAByxWJICTFmXhKtEm3bxvT0tLxy5QoublwjcRxD+EpDRVpTRYH62Wt2Ua/X0awpzyH0VVekeRAMbbfQpZ8MSlE4zBm66Vnpdrt4/vw5DiLV5dc/OFJg1Sj3UIcnjuOgWq3igw8+wCJrq1kLZFwRgLBhttp0vn/4+2jiaaSr1kw/OCEEQRBgf38f+/v7mNYcj1lEPv06fX4mvLpw4QJ++tOf4iCnat3bh7XkeJZlQUiJ58+fYy8XolQqQVwcRy6XQyHnDuL8ERmNtIx0pVOeAADUDms4ODjA07t38eDBA8T7h0lsSwiB4Ar/GZ8ax5tvvonZH17FysrKwAt6TdhFdp1pj8Ccy0meByGqGIxzjm67j08//RTP/uun2NzcTDxG8zmZ+i5liY1iNDT+utWXqOdgZmYGU1NTyE+UlEufzyGXy8H21OTu3EQJlUoFYkrF+Cgo75V6VsJroRTAMLcFEis/fC6U0ASjaLfbyb5LewWEkND27FPbj42cSREUPMeHQwNBhSmyBqBoz9lSGZM3l+FcmEGlUkEcqdAgrHfVyK2W+lnf3gfd2YF49AwHj31wqdenrriyxELoTj0CyhksywZsgw5rC2IsqE63+O0AvWYfYntfaX4NOhrw0jjhVDPCSFMSu32Ie5svAJuhXZgHsS2ML5Qgx9SkIeMBCFVecDyG1ak0ajFQi4FbFJwR2Lq6zRIA7wfo7xyiP3OIuB/BkgyBVOWjggmNQJgmJQFKyFDen1IKb2MWNxZ+hKe2hy8bzxDX6wAFXChFEEcC+893QBt11CvLmNlYQWF6GmIlDwECyc1gEySbe5Sk+QiEEHAIAZFqmjOlFPz5EXa/voe9L+/j6OtNkF6smqZ0Gi20Y3AqIVfGsP7Td7D+s7cVeMaUEmCGsCNj4rP1AidlDQzIxojJ+6t4n3ABGcUAFyBCgkui8KukiUBlCAjU9SURRRBEIFsNPP2vn+HT//vvdbZDV70y1T3KAAghwXWTVER18x7VXhbTPwlACza8q4uYWV/H+Oos5ubm4I2r4bZeWWXDpG3Cx0Eb+FARmIygCniNsci6QkJnA9SNzBML3I8h97rAfg8ijpWzJWKAECJhScAWlmWdSQOfSRFYlsWpnnaVtmrpfn+RilMo1aw6jKGcUxdkrjSJpaUlhGuXUa/XIRvdZLJyEAQIfTWrsN/sqsqs3YbKqwpdv5B1pcVggo2ZbaBCjdG+ZNbKm1qI3d1dvP/++5jjavZDiY0rJiNdaHSWeHFsbAzLy8uoVqvwj9qqJFdred/3VUlpFA39TXpdUspjLdXm+prqxaWlJbz11lvYjwt48eIF/GY7iWcZY4jiGPfu3cOT/9LDe++9h+sXvjeEkRz3aE4+L/N5SimanQ46nQ4e3r+PTz75BMF2dcgT4LpWYmxmHJcuXcL0967gwoULcF03uQbmPL+JDNY7jNeYWg3jEWTPy2AqpprU8AzufPA1Njc3k3M119JMII51aMkhMT4+jomFaZTLZeRLeVUhm1OW3nLV5C53fhITExOg4x6KxSJI3tb7iA099KZAbpTn8rJ7kj4nQHnD29vb2N/fJ6aYzqRuKbXguC63bftEwtK0nEkRuK4bMtghkSlyBwLEgiPs++h3urDCLgT3IQkHtSRIyUaOqHirAMXJNwdVICGlRByoriu/ozwG/7CLWq2G5tMDHH75JfrNNhBFQBQYpT4QU5hnWfAs5QFIYop69IaQTIP+WnGYZgb9PWZz9J/s4cv7z+EHEd4oXoAol+CMFSAKFEIqfkYAySi2rAhKUKyMYWJjCTXiw2+2wSMOZtnqIfFb6PtN8DiEFDEkg+63HyDclBDNgITEchkLSBwKL59HuDGHVfomXEnxPDhCdNAAJRYsi4FQAhpwPP3yPviTh7jpzMD64fdAKUNsK97fWArwoYt4LJ+g1kOJrmnQZblHfbSr+zi6tYnH/3QLTizhOg4os0BAEJIYsYgQL5aw/ofvYunHN5CfnISdV6EJ4uEUdvaI2TqTk7odk3eJgT3U+iWXiMMBWEhg0odG1CRqh2ieiJ0W7v7Dh7jzn3+ZPDCM2WB67gZnQBDFgAyUP84AMpVD5d0NrK6uorA4gfHxceTGCiiVSrCKriqcI0YxqtF9pu9BUI5AhqBiWPlTaavtmGBEpnJVh6YnXAemvSFbMvitHlqP99F/XgeHBBUWYoQghEjLcQPm2KFk7HWGBp6klB5bmRCCdLtd2Ww24YaTuqJMuT4Ew1YgoVmmg7jVdV1YUNZFWiq2EqU5zMzMwL/yXaXpw7Yi6AgUR2IUqO6tXlMpkE6jqfOzJkYy3VhaMVD9ABuPIWPlTVXf3t4efvWrX2Ei3MVbb72F8eXpoSq5kyyqEAL5fB7T09PY29tDe6iKTblxBqGO4zgZlYXU9VE/R2MFJnbM5XJYXFyEt9ZRmMh+BN9XjS1D3XVxjKdPn4K//z5WV1exeGlBK7DR9fajLKjppOx0Orh//z4+/PBDBE+ea+uqm7M0S+/Y9Bjmr17FzDsbWFlZQXFsLGFlNg/mtyXGgodheBKNd+LZtFotPHnyBDuf3sPe3l7iSVmWnXyPIsFV3ZGrl9eRz+dBcpaK/dcXUKlUgIrqrWE5zUykr2ni5mPYA8pa/WOZjWPJppd7TmZPxHEsNSMSMXUzXKhJVwtLK63LVzda4+Pjo7D2Y3ImReAVCtK4Vqo2msKWBDQWkLU+4oMOpB/DFqrFS0iesK1K0wVoePLkYJim5TDYdg5eMQc5BZSlhISFWXEF4KrBQkQx2u02gqavQJFmF7u7u2g93UPv6VP4/SZ46A88Bv2Ta9NhwVI1HpZiLho8oLpCTBd0hE928eWTXSw3a3gjPw85Pg4n74DnBq7csEuv0VxwuDkH5dkJuNuFxAVVJfsEEAxCUIgQECEgrRPCDZK1nNqiSKVEScnFRHkeshOitPsY3Rd1tHZ3EfUCvSFtdTxfYu/hFvy/kVj4iQWsXQBjDqiIFW6BwdzDYVE1+jYYbDB4PQB9H82P7uPOf/4H5ISFPGWQlkLUI0QIIx/e7BxWfngDsz+8hsL6AgqTFfVQRLp/gIjk29V5jRaSztaMEOMxGYxA2npqUczBw0j14EsJCgEi+RA4SQgB2evi+cd38ez9zxA/PUzCAeaqUvkIAhGPAfiYu3wB1//i32BmZgbWuEpbW1RltZKSYA1qC0iEfDAwxkyDNt4zOzZcUgO31HjsWjFoDIWeqDoHnJwQBDLmkDFHT/bhkwAe81RNCgfyXk6srSzu3by6sTs9Pn4qD4GRMymCVJ5cmhOWcpAn39vbw1hvdaj7KYNejtSQhKTaZYiOfXRpMBGW6meIOWzbBncVPz8qASYmJsCnl7G2tob+lTfQ6XQUdRrnCP1AMSx3A3Q6HbSPmmg2m7rHXw3CVO74cP5fSIU+v3jxAr/+9a8xyWu4fv06JlemEqsCIInBkusACdd1VbGTN2hMycb6URSp5hBdUCLl8Vx9+nqd9LpSqeD69euYOVJ55OpRM7G8iphCotVqofHsGZ49ewa2tYjJyUmMV8pnYulJPIEnm6hWq9i5dw8yDCF0rM01Sl8sFVFZWsLM1Q1sbGyguLCAXC434JV8jb5A2mPKWkzjEaTZe4EBP2KsPSS6V8WjR49wsKNGvtm2nShtzjk4BFZXVzFzaRFvvvkm5ubmlIea156UYbbSaxjVuJWuMTmtdyKdxUnbhFF/N8obVTULSPoS0n9PCJGO4/CpycndmdmZ3ffee+/rk1cykLN5BJ4nCbWUvtXUZGbqcLzbJH7hCGGnA1tKhNC8NiRzIlQDR4ZJFjEgZYqd1jxYprlJeQ3SAmzmgHkObKnanQtiBpAWZuMYIuwr7raOAi0DQ/FUbaNarQK3HuGg0wZEAHCZWCgGBza1YcFRDxEhACWIt47w5e77mD84wAapgExPwHEccA+pG6fqEygIJDhsh8ErF2DlXUgd39umC04KxWwb+BCBD8lzqkEIcqh2PX0z9f9pC6EeAcP+TKfyWH3nKgrCwmcHm5CPgJBI5KVKaTqWg367A7/ZQG1uC+O3FzC1YYOOVeAwBxFUR2a6S29IIQUC3Vobz//xM3z00Ucg3Qiu9MCIpSb/xhHiMIRcm8f89SuY+cFlTLy1huL8pMYEuJ5tMLyjzVm+tJcg+yAYD8B4ehojoJKAEKY6S4MwyaMbBiaSc1Q2oCuwffcpZBTj6M4zNKqHuoTdU6lEGYPLGMLysXRjGTf+559jenYWuZkxcErBJdfxvpk7IIfWyTLrNgVxysMhIIZxKaMXKRKwQz/MphvR3H39cwS/pBACUSAQh7FiTk6ukZSSAJZjhZWxysH0xPTB6Vd7IGfNGoSlYiH0XC8QiJlpSZZSotPp4OjoCL1eb4ibz8goq3cWySLeWa4BAhtSSljIq9i7qC1uL1RrqfiYm5tDrzCPS5cuIea+Hiumar5rLw6SGn7jGTDGEPIQ7XYb4bNn+PjjjzGf6+PixYuYXJ5J1jPk3ei/8zwvQdKzGjw9B4IIV2v+0XTao65dWhhjKBaLsBcWFIdBTWB3dxftg8ZQFyQA7OzsoPHppyCE4Mri2GCU/YjjGOv55MkT9Ho9vHjyBBB4ricAACAASURBVJ1aDS4ZoP8GmfY8DzMzM7h27RrKa8solUqgTKVdcc77/KpiztP06GcxAhNHN5tNbG5uAjFHo9FIDJPBBQgjWFhYQGllEjdu3MDKygry+Txkar+p65mpLRnh8YyK+c9+Lmf/rPKC+IAPMyOMWd1CodAYGxtrnHUNZ1IEtm13KuWJdqlY6rQ7jXwUc9XuSAj8VgfNgyNEPR+US3Aij/fAS5lwEhqU9KTzHrDKmr/VaLrkye+Ve65eR/osZJHByntglRwsUYJcAYp8CeHvXcFiGEJEmiSk0UKv18P9v/0Ijxu7oM0YNiVwqGoIssDUBOKtOr6uf4DqfhULv3Bhz82BEILI4oPGIZ0WYpongXiqR11KAikVazCguPbjkCMKYjBTCiukrhs4Ia9vrof+aZp0YkuCEAp6oYyL/92bqBRLqL//Pg53duFQFwyKGYoJhsMXVcS1Q6xiDMuXLsF1XYSQAKMghCUXmRAChzngIcfBx/dQYw8R9gK4xAWhFJZtIwqVAkXeVYNSLk1i/rsXUbg4B25ZQByfSQm8rIcgW1E4eC0S11l5pCKpkox1WKhib5VCprGaSs13fVSrR8qYSAmakKhyxHGI2AMW31jH6r/9HsZXVmBPlcApTaZQM83BqXojUtY3s97ITKVOzpPoOhFjNPSjJof3PzHjpaBDhVNnWanjiZhDauarUaEDY6xXyOe7hUKhd/rVHsiZFEGlUtlbXFyqLswv7Dx51pvyfT+pCI3jGEEQKGvMOcTx5MJrl1FW1CD8hqqM6qxBQiYRK4uGSVXpyJ510Gw20drcw/7+PiSPhyr2eMwVu/ATgtu3b6M1ZWNpaQnjC5PHcsCmJiHpvNT/shhBFEUgYnjW3XnPWwKJVV5cXMRU18b29jbI47pKx/Z6Se48DEP4geK9jz78ULEglwqD8lUyUAREcy12u11wzmFrDIWmagGEEJibmcH6+joWLl/G5OQk4HmvtevxrNfBrHtoRkJKBpmAOImlHT1D03iBMzMzyC9P4MqVK1i9ckV5NrpAKs1cdVrMn5z3t5kewTBWwDkHD1TJ+YgeDkko7dmW0y86xTP1GQBnVAQ/+tGP7v3H//i/P9/aubC9f1i93Gq1CtCbh4LoSTMCPI4BJo9VyL2aDGvGZL5AqgswLcpDIlDsbmbiD5IJMlJKwALiMgMtFzD548t4e62Ap3/3Cbbe3wfdVwCSYzmgVCAmIbgUoLttPPpvn6LdbmPqD/4AbG5WuaREYRlcSlDLAnU8UMsBKIckMQYxuKpFiIMQkR+A8YFnc9rDc5JdMNc7dghsOw+xNoHpt9chWwEePHiA6E5DNWfZlqozEED10RZqtQauXbsG9sO3IftU10cInf2gqmuOUbhwIdnAfRYEIJQiCmOVIbk+g2s/fw/lN5YQjdtgkisz9Zr1wCgsYVj5WgAISAyIgAOR6sijEkkVo1LsNgxrjwKzFfmHX6C4evMiZn/vGiauXoa3OAFOKaQIlTGAwWZOX5fBuE66X/KEd5K/S2UV1NSvYQYmYjAHAykQilhwcM18BWmmfA9CSUZpaDlWYBdOH2qSljMpAgCYm5uvzs9OV+96Xh9AXh13cBLG4nHDZvw7kFHZCJJ6wIwFTX/eeA4zMzOqX367j8PDQzTptsouhHFSbGRZlkLmq1XUcwKLi4vgenJNfiyXHMPMZBzZhYgBsu37PhzjEWT4Dka5eKMkHeNalgWnVMLq6iqmD9Ugju7DHRVCaBTdsBrV23VYloVgIq+483TX4FDcm8Fi1O9VlsBkRVZXFSclmR1Leh3MtU1nVL5tMevNegSj6j0MxqHCOIrx8XEUlqexsbGB5Zs3MT09Ddt4NmJAnfa79HKya05nlbISxzH8fl+xY6csYvIMgHQ8z+tcv3794VmPeeYndmpqqj0+PtFybacLISfTbpOUEogkwm4AbllwLHvII5BSJjP7XuZDnRxD6m+kJk9rNsMJMbbmDUiDckKo6UBCCMBjsN08xt69hBsVgr337+DDDz9EvFNT2QRqwbIpmIghQoHoRRPbtx4gsi28+eabqHz/snLLSASLUlgeA3WshBsvdUaQPELUiRF1YvA4Akmpp2T5Z3yA0ulYzjmES1C5MIui9JCvPUPh63E1cq3ZUVRqzAVlFixB0a0eYuuXH6qN1AvgWK6e2UeSw6fT3kIIiFhhA4XLM1i5dAmTN1eA+SKsnKO6Sg3bM86myF56fhlsYJA/V7+gRKhY3YRnMUfsBxBxCAqB432MAyUVhiHYZA7rV9cw+YMNzLxxGZWLc5Cabtzsq2z6FjBZCoI4Y30HtzKL95uXIvM5fVaZ10RPjgL0/iR6+jVR3ymkajSiYOCxRNQNJO9Hmt5iGNhkFutarntmfAA4hyKoVIpBuVwObNsOsjdcI8oyCAJIrt5MW2v1/6/HWpxVSw/FdxhUmMW6ApFR5RnMzc0hn89jqqZYjOoBUVkHQxpKWDJ95tmzZ9jLKetoratJRbm8rancacJjN7ROMsjNdzodlBKmoleTUTUGpVIJ7lwOa2trYJcP8PTpU+zUmonFN1a+1+uh0W0qTMNS2YCTwMokNNAh39TUFG7evIni0pKqF9DVh79LIUQ1MJlrYGZIGAwgnZdP5+pNmFAqlVCancTly5cxf/MGlpaWkC+XdTZJk4qOUAJDr78Fh0edz3CWTGZ+P/gcBrMRfH/oHuj9ICllPdd1T51+nJUzK4JcLhe6rhtSi4VKaw9q1aWUiEOOoB+CcEs17BhiDM3mQ83Mw+RCvry4ZaQcY9gdxg5EgoSr35LU79PrkIRACCDKA45XROnNZVx2foD9Shm3b99G8PxIE6FaoI4LV0j0am2E955jL/8AuYKHtbU1kDcugFIJ1wZsRrVmH1QjUs4gAonosIlgv444iGARhlhGANQ8ApNOPIuodv7BZw0rUr8AzN5YRZG52P8lh3z8FJxoC09IMladZEBUktnbiaWSigvQeHb2YgUzN9dgz44jtqQBZQa35YyhzcvkeB2B4TFQfAiGVdKWULMMpP4baQHSUrE0kDxIQqj0ojNewNzyIirvXMTsu1cwdXUFyOUQ6JSolaECN2zH6SxGuvLveFv1+c9d3Y/jJDXqOpp5Feb4imWJgSIKQxketcAb3SEPEQCEEJJQEnued6ZmIyNnVgS2XQo8zwsopccACJNj9n0fduwcWxwhw/MDXqe8ygZMr83wEywsLMB1XVS7Fg4PD3FYD/RkHg06QaLf7yM8VPMFmiVFVba8WlF957ZiTnIcJ0N7TZJJRbVaDdPBcfzmVWNRo0AMTrG4uAjPmVbzEqfv6Rz7gBlJeQgjvmPEa5MJyOVysMtlzM7OYmFhAeGYk7yfMBq/JiUwSobwngweIaVMsBfEJuuTUpJ6zzmOg0qlgo2NDczevI7V1VXkp6bUFCoR6SzTy+V3hX+MkgQbguK5qNXUnIS0N2Q+wwjhrmWdC68/syJ4442Nzf/0f/yngBDiA7odOMn1S/AwQtDrg8UFxfSjqGUHQZ/h6HtF4RpkMBZLpjwBtUGOhyvq77Qbeew9M6JauZdRyYLjjqP81jrWWRelUkkRcGjPgFAK22GgQqJVPYAf9jEv8yBFFysrK8DyMrxiGaXKGBrtFmRPseYwYiEOOXpbDTRzB+i3emDC1Au++sZKP4BSSsSW6oQMphhm3l7F292f4u7duzj8+KH6nOOd6TtN1yMXimS0cH1NDZS5uoq4NBhawnTn31kYkc8jWYwgS4LLpD5uFCMIQ/QPG2hVD2D7IZglAWpBUKKwgygCrbiYnp7GxFvrmP/BNUx+Zw1x2UPAwwTXOKlAKC0mhKIGRCTZ9/Uyz3ieL7v7A+CP6eutPCAHDFHbR7h1CLrfUZWcYkDgKpX7JCkd3VFykpwL3vdcr21ZVgcZJ99o5n6/DzvVd28e0JdV0P1zyBCACMUy43keiheUldvvWajX6zjcGzRvGUvfaDQQtQ5QLpfRnFGlrNPz83BdF+Pj44o1ptdMHtQ4jtGt13F0dIS+Zip6VR2Qjn2BYW/Csiy4xML6+jrWxASCIEDn9nODLid/f9L3GjFAJAAsLi7iBz/4AZzlGVVfQTESof8277GUg/SkOU69rpiu9vb24DcaEJHy7EwoKrXHUCgUsLKygsWrV3Hp0iUULyyq2hcevXItx7ctBiwc6a1JoN/Xma5mkxivx3hotm33HdfpE3J8ivlpci5F4Obdns3sXhI3yQGVU9Tuo3PYQH51ChaxEMEoBJFYXuBEbBWjRjyl5bh+O5vnQ0/Q1UloYDQ8jyGlQFQkKCyNo/LWOpZEA57tYHt7G8GLmioY0qlFKima2wcIfvkZ5vsOtvITEJ0YheVpeEED/UYHYRzAsTz1/SKCkDGEJmIyNNbZ9ZyFqy/tiivyZTUrUnKBgBDYpQKsS3mM76/hwvY+Xrx4gXBrX6HQljfyATbuNriAFAKxUMrRmS1j8tIi5EQOMRWp6cHDktB0n+munH5uAJBAYAnGoTGeUCLo+6h98DU+/vhjHN3ZghXZClEnlmrPjSIwz0J5bAxj15ax8sPvYObdixCzeQQygiACzPBVSH6qQuDkbPflpeedZA9Ox7gADYJmFJ+kRPFJcIGw76PVaMLv9aHZigHO4eU8OTs9c7h6YflobGys9rIlpeVciiCXy4UWowEAaUprAaXBej3V7FPq94/lyVUhx3mO9LuTtGXlnCf8cxXuIY5j7Hct9Ho9VLePkg1j6iQODg4Q7T9HsVgElqYRxzHGx8dRqVTQtnaS2JwQAvAB2y3nHHJE2vMsoOGoeDxdL2GsYCVfwPr6OnI3OojjGM+39nVt/TAHY9azUMS0PJnZMDExgQsXLqBuB5p89ncrWU/D99VglS+++AIf/u3fgcaupqajyfWNogheKYfp6Wksra+rnozLFyCEQJ+bASRasZygBNJZH7MOAJC/oyuQre8wg3CEEPB91ZIfBAFc3UXJOZee54n5+fmd5eXlnZ/97Gcfned451IElFLJGUVMAVuo/DMTFkhMER30Sf3JASbfWAGTRHf0UQjTZWfyuydoVJlh8z3JczCvDUvtSyOhjAY2s+YGLMLD38MhIXmMqMwwtj4LyTlmaRu2ZDg4OEC4p9Jvlm3DpqqduLG1h0f/5VdqMpPFEBx2wSUBYYojQIUCEkLEkD6H6MeQeZG0RQMD9P4kHv2sZAdeGrhLQPEtNqmP3EIFS+/dxOOwhvznW2j1W5AyAhiDSDj0DJGKuk+xjMFshsrba7hy5Qpmry2jbYdJl9uJ6znbso9JVh8aTyDpsYDeCzFFp91G7R+/wueff47Dzx+D+ipta2sq+igMwXkESA53bQqXf/gupn50BXwhj4DEimo85c2q65UhlD3B8p82L/Jc53vMQ824WHq/pAfgCM1nCY3FyXhQ0p0oSiHhOW5vZmrqxdz09EunH2flXIrAVixFAlIKKSU1LclSStRqNbiui+nmxrBHQAaxzb8EGRV3pR8oY1Ucx8HS0hIW7ArCMMR+08Jnn32GF1v7ipQTelY9pdjZ2cHWsycoTk5iem42wQHSqHr6u8MwBHd1xRsyN/QMiuC0eNy4+EJEmJ6exmR5CU+fPsVe7tYQykwtOuQZGOGcw/M8XLt2DT//+c8RrxT0sNjj9Qvfhpx0bkIINJtNfPLJJ/jgb/4f0MBK0qCmf0DN01Ax8+zsLN577z2U3l4FAESZmRXGgxh1Pun7MMpz+jazBwP8Z3AMg02ZLFC6tyPtdXqe15qZmtmbmp3dO+9xz6cIPK+3NL/YXZpf6jZbrTHf9wFKFANQx0f/oI64G4DFSOrVE+qml1y7AfJoaqxHdykmIPKrKpaMh0DEMJ2WmaMnqXpogwLD+KUl0Ihg2upDxKq1Nah1VTrOIrAoA5gDEsToHaUethTNOSQALsADHzzwIQquPk8dmxMCEHKM4i0r2U2Y2Bc5eC2lBKjyDlpOiKmrS/jO//IHuHPnDmofP0Sv1xt0yUldUssVvVyuUsLUzAy81Qqc5TJQchAyCcK1F0XOmAZ+CeaTfCxbSWisnzkvQdVU4V/dw+3bt7H31UMgHBCPANAlxhEAgdIbq7h+/ToWfu8q4gtFBEzT5SffZx4gAROJZQ3V0L5Ne12vQQGkew+UQkrO1FwArQxTa5GK8UjEEnE/ggw5iFRsSOmvtiyrURgrnRsfAM6pCEqlUm1+fv5wYWH+0A+CcrfbJa7rglKKXr+fdK+poZ769HT1178WSVuAOFYDVy9cuIBVZwq9Xg+FvT42NzdRrSoPyDDdGKvUaDR0LpcmGIoR851hGIIKO9lw59lgWSUhM79PUmKp36+srODGf6/qJH7z9Q663e6xnHwcRaCUYqw4jtnZWczOzmJ6ehp1pqY5mxLbb9OxO8naNptN/Pa3v8WH//iPoG2VtmaMwbbthI9A6B6B9fV1/OIXv0Du+iwcx0GY8ciymMA3ufavQ04656wnYjIDIgiOsTEZsSyrUalUmn/yJ39y57zrOFdo984773wyNze3Nz+/uFfIewKSQ2qmGFsIsDiGjCPwMIDkmqlGqPjlzELES60I8OpZePKSf9mbzamAYBL+OMPEjQtY/f23Mf6ddUwuzoAVHMXWw1UHH0AHlW4jREoJGXOIaDCQI/t5Na3n7GeW5SI2r02vfkQ4rLwDvpRD/toMln5wGZUbaqR2HKt5AFQCkRSwPBeFK3OY++4GSjPTCCgBEarOPntfBvxGJ8hL7mP6vKWU4EJZS/O9FAy9Th97H2/iyX+9jdajXaARg3AGh+VALaLwEBFDiBiFG0t4+3/6KZb/8A3I9TJk0UbkEVAhweQIBUqAlDl+KQby7cloNun0/ibaUxScIw5CtX+k1FWWTHtfQloWbVmu23yVVZy7TXBubn53bn6umn+Q9wkhxaQ22qR9dAwsHO26aRdZ/gusJThNsmk1y7KwurqKDXdWudZPjrC7u4uani9gMzs1ensY8TUipUxmOTipYqDXLSrGHQBNjDHkci4WFxdRfPddMMawuX8H7XYbzHGTv3NdVRx148YN2JOTKsRJsU6/7rWm15n9PWUUzWYTX3/xBW7duoVgdxcgBBazFOcjeIKiCyFw6dIl/PEf/zGsK2r+AM8wDBH90BsQblBINMAEzlJY9DrFPOCn1XiYa288gljzM2YxAgCglHbz52w2MnJuRTA5WTmcnKwcOp7blQQFQQQxY8qklJChQNQLEbkDclAV46iusYS78EQZRlWJjjW5JjxhxxLZNPPzJTGp+fQJ6DA1G167kVIq+i1JlWLjczlMfmcF60GIzpdfotPsaOKRQANXdvL9Ug5/v6m5EEJAtfFTSMJ1PEqG1nPuNtgsC3IydluAUMXkZBfzcJZnQPbGwWxLZXQMhKFMP2TJgTVRAHUYYv2wjdqg37ReAMBQqEGoahiyQdHtddHd2sPOw4do3N5E8GgHUc8HoxaIxdRk40hNIspdncfFhQXM/+ganCszYBMFhIwkPYgC0rh66jjm4BobSt5Pf/4V5MyVhSY7JmmSEZH6tXo82HBdR+paxXEM3vOBIFu0B0hCJbWc2LKsc/UYGDm3IiiOFxuV8YmG6zodADPZ96Mokr7vQ/AcycaU33aM+bpF5ecHrLTGul68eBFX8wsIggD9r7bRbrfR7/qa68Bc0uEuMqMQNR89nMxDno0JX8fajRjlY9s2ymU1fDOLX5g1GLwj8W7wetd1bI2Z4iZGmZpBcPcubt++jfrjx6jXavCEpbM1g3oBzjk2Njbw85//HPYVxS8RWCfPeSREDSQdwqz+WcIBJen6DyNG8Y7KCnDOk1kWZiq5+SoAYIzA87xXulHnVgQFp9Av5ot9x3J0haGK6pIpuzFH5AegoQsmKKQlIIUyjerBSKYRZlznrCXXWYPEEzCViYYFWUuWN/8b7tfsBiKSKndSq/rIknDG8rC8AqbfvoSNWgMPHz5EdOuhGgkexYrIk9FjllRKCdmTQD91wwkB5wKWGAb5TPfbyyzUyywRS7otAVACaqksj2ASGEkrZzLEw+7qIO9++vHOKlID9URzN1Iw9Lt9+EddHDzcQu3WI3Tub8E/6sIKKSijauKybhLy1iYwPT2Nqe9voPTmMlglh8ghyZpNu3JS1KbPIdbXgfBv1gSXxYGMWj3OtXj632X38chUJgBLMoiAw6/3JO+EgBCSpv6cCkgLlszlcq/0BJz7fr7zzjtfu67bIYSYnoMhMfz96ems2eq1f22SLd4xv7t8+TJ+8Ytf4Nq1a2qWveYmzPLNm2tg3u/1eqrKjww2rvnctyHZOHMEz93QZ0Um5/46sz4nIeSMMbTbbTx48AC3b9/GvXv3VGl0GCaZGVP1CAAbGxv4oz/6I1y/fh3lchm2bQ+tOf0zi9t827UAryJmjSdNoyKEwPd9tNpNU6eS1N7pc5HMotJxnFc6/itxinme12SMNdUiFVuvgGYqDgWibgASBoppVmPgCRsxZKI+CIyHoM9o6AYN+uWNi66Ol7XY6U8fl2zlYHKsc+4DdZ6aZVlKcIujNFWCMz6G6doGVrf3sLW1heDpLriMVcWljsFVOlF3IT7ZQ72wBWuuDDZJQGxltWWqpp0QApGYlFHXZiAnTw5Kr30AHELjH2wE7C+lVMNlBdH3ix77UBaJOXb8xHMbXcOfNgzKVVckq3Gjj6PNKg4/fIj63cfovjgCaQWAbcNiDLGIQRmFPTeGyclJVL63gcn3roJO5hDlGahRWBrbIalZioMalaFEgVrDCfti1PTrsyiPYxb/hJmORBpPdhhsH3mPKYUtgajfQ+/FHkStCRFLQKj+AyEFJFH4guM4v5vQAAA8L9exbXvIIzAnEEUR+v0+GC9nLN6g22+Uy3zcKp79fM5akXfazRxVYXjajTfvU0px9epVXP4fp/DBBx/g8/1/QrvdHlhSHSLYto0wDPHo0SP4vo83LlWwuroKTkVSGJO1Vun1jPJKXibpwpjs950mBk0f+p7z/G3KAmffSwulFIwoT6D2pIo7d+5g+6uvsLOzAyuMFOuwPu84VmPY1y5dwptvvomxa5cwNTWFvmcmKw3W+rLj/kuSUc/CKKGUotPpqFkVjUbipRmsBBp3/J16BPm8GzLGIgCSCAlKB3lr0Y3Rr3VhR7EkzCLElmounUZpzWCShMUHKtJR3gNRw4hImhlmGDlNSzrFd5KkGXeI+XmWzWKAPvMy47kIffyQCYwvTMOamMG0PMJMdRvB8+fAXg8x57CFAqgooRAxh79ziINejMatZzhyF0CvVDA7O4vAgL2UgI9o8Tu/ElB4dNLXD6HmKepJQAMxKLb2voSZzHx6pcCJnoieOv2yQhlIiijkkGGMw+e7OPr4Pupfb6LxpIq41QbVBC9cfw+bzGFsakoxDH3/OvJL4yAVB54OF45dn6SyMXP8k9onk/dTX5E6h0Q5n+AxHJeXZLFS2TOlsA32lSmFloCMOSBj9BottLYPSFzr6vsoJUQMm1FYttsvFj3fcRz/ZSsbJa8aGkjLskzmIxEhRDL5yAvnVH+4pZprEhdfGlRX3TxDIUYSF0lf9EEf5sg1JOnKjAeRtl4GlR5VUXYeybpt6WMYD8eyLGxsbGDxf3Bw69Yt3P2nT1Cr1cAskiDwpi6+3+/jk08+wcHBAa7+8fcxMTEBoac2v+6c/ajN/LuQk44lpdQTl1V2oL1Xw/379/Hs009RrVZBo0hTxKlrEYah4hRYX8O1a9cwefUqFhcXERXpEDvPvwZJe3Xpe2IUAdEGw5yTsfZxHKMbRWg2mzg8PFR1LFTxY8Y8gud5Ympioj41NVP3PK/+Kmt7JUXgOE7EmBUKgZBD2tAxCghB1Ojh8FkVpQcTaORmpPBUVJY0h+geBK5jZz12AJwOl7Am3Yq6b59TZDa0+pfdbxIA0Q+ecZ9M4cZ5hCTH0Zx5SgMn7xvuQDP5JnKA8aUZTFSm8MKNUX2xi8bTGKThI+YxHKpcNpvaiMMYna+e4OmTfUzOjqNbXgFfLmBychK+dmEo/WYgnYQmUiXxkFWUJFvboLsQSV8V6VABQYWqJkSaZ/9skp4BmFwn814Kq7AijtbuERqfbqL+2SMcfv0UYbcL17ZhM6a6NwkFKbvIT1VQeeci5t6+gdLlJbDZMkisRqETOSAcHXrIXoMyHenRpDAcQggkxxDAl3TRmpmH2gBCEMSxmqOoXitDyDR4a3HdahwotmUZKNA51uPn+0GMYHMPnVYfcSTh2cp3ED6H57jB/Oz8k/nZ+Sc/+tGPztV+bOSVFAFjrCcl+oSQXhzHeUIIMQ/6wcEB6ff78kFrG7du3SJOJY9CoYBCoYB8Pg+74KqpwY6aL89cezCQg1JQncdmZlox01N+baYtCR3Oc2f+mbw9MLhBpkAouVlnzGKo90d/JnEVYfjilOfjuDbW19cx+bOf4fbt23j8289xeHiISETJJCTLssCFRBAEuHXrFur1Oi7/2+/ixz/+cUJm+k09g2OIeeJgnawSR8arr8GJSFJ4+v61Wi00Gz7u37+Ph7/6LXZ2dgDNgWB6U8KIo1gsYmF1HhsbG1i4fh1ra2sISoonwoyAGwWKfpuS3lvGuxlC+81PYXgVdRwfKbZlHqrK0ihQE5iE76Pf7yPuBmi32+jVlUfdPqrr+g+1v+wgRrVahZTS7COpjyvz+Xxndm7u2czc3NarntcrKQJKaT1nuzXXdusxlVOG0INaFsJaG4fVQ8IeEOwBKFfGMDExAW+yhLGxMThjORSLRVgFD/l8HiznaoWgRoYx29KdZYomnFrW0O+5xSC0ImCMgVqandew9HpUje+iZlKPSDwPQgYR2EnYg2BkCKPIBsPGAzCxK4TaEExKxb9QIJhYmcbYWAlH4wSHe7vYi9twelIj35YqatEEGsFnm7jz1RYq5TGI2RsIFh2USiXEpjDGhDYn3YsTuBrVF2ThZgAAIABJREFUtCUg+yQPavxF6p9yTSXUpCA69P75xPT3M339Yq2BLP2AsJCic9BGfH8fhx8/QvXDuwiDAI6dh01dSMIhAHAPcCfyKL61jJk3r2L6xhoKy7NwogBRFIISnY0iJ4CZJAaQVuTHC6iGPm68lVTXoRqHbiy/SEDUtIdITGgi9YCXWKVopR5HJnzluUR+oNrP+yGCIEDoB/B9H3G7q0hGam1FcbdbU4Dg7pFaT9ImSmHbNizXGVqvJJC5fO5odm72+ezs7PNz3zAtr6QIvv/973/+7//Xf//jleULu9Xa4Xqr1WKWZRGjrSiloLG6cIbBV4ZK00lPnRBcXTNuKw9AMqo9AKNh9SxDbUVgQgdGh70B/dq2lULxxnLI5XKwPOV5MEdNKk48j0SxDMftxsuQlnptM30eGY/DrCMpbNb5bSoGIY/jOLDLjpqi/Id/iJmZGTz99GtUq1XYtlqv8Q6iSIUAd+7cQRzHWPrpG/jud78Lag3y4sqifzPPIK0QXsVynjl9NgLQNb8LggD9bg93797Fk7//FC9eKP4Mcy2UJxCgUChgam4Cly5dwoU33sDly5dB9PyBZJR8BtQbtd6zrC+7RkqzGJPiARAx1z+VJY/1NOI4ULM//U4PvV4P/VYfzWYT/XYbnU4HNBYJBVwcxyDaMzDfRwPlIaCrFIRoKwVhrolkxqOjAwr64ayMtBxnb3x8fP/P//zPv3zpDTpBXnk22ez87OMLqxc2+2H/WrtemwJ3wSwG2KrOW1oKzY1iiSDsQzT0wMaTOtKyPAFGy2e53lK12kYYY3CtAorFInLTOVQqFdiVPIrFIpyih0KhALuQUwxCeReu6yYDMS1n4HEkIYptAylvhFIKaEYfSdTGlUyHHVR1WUpQSCkgqYBFKWiOYXZ5DpOFIrpTDo5e7OP5QRWW2aAWA2UUVE/gaX/6AJ9/8Ri04MFe+g7CRXVsQXVhVsYzoGJ4UydxPz1uHRVYmlRm6H+ju95OEjUN+Oz1F+nPEUJgRwztZgtsq4vDjx/j3t/+BoQQuK4LizFIxJDgiEgMt5zD2PULmP/OFVx48wqmVpYRCfXgaGQIpknoWCVe8r92gpEMeVTa1aYyFTYSJG3WhCvFbMcUccyBKAb0OD8ZhuB+gMD3EfUVjXrQVQqgd9RAvV5H70Ud+/v7aB3UUK/VEgVu2I+Hrp8GswG1n5WBUT0t1Fb7U9LhVOyIsFZ4nlufqFTOzUGQlldWBCsrKw/X1tYeVKvV5wAmkfFBjbUl2sWFpdFQcrx8FcAxRTD4Iv35EYogjRhLqeYO+HVf9dvXdW26ozwQ4qpQg+uuSBOvEqbXaTwNHWpQNsAkKKUJWEkthnw+D69YgOd5cPOKM49Zis2YuqpP3rYV34AXKBLQ5eVl+L6P5s4hWq1WsgZTQ0C42mxPnjzBBx98gPF31rC+vg4rbw2Bnhh17V4iiRt5jlqAbyJpTAC6BiDs9PHFF1/g+X+7g83NzaFeB845Yh4il8uhPD6By5cvY+Xtt3DlyhXY5XJSCWlA4jSGYi5DghGZ7KQYUONxziFiHaNHqntPaMts+CF4EKPf7yPoaote66Df70ME6vNJRWakY3vtEQgd84uujyAIQBqKzTsOQ1i2nZDLGpDxJEVqDBsxlp8Ng57HMj8y+W/Pcd2jfzZF8Bd/8RcP/+qv/mrzzp2vNwF6GRAFQJAktiIa5GOanCR1KBVjvXwzm3oDJdlJNAp15VJ39MUx/DAEPzCjojX7HdUPT9ZDPufrBDOwLUxMTGBsZhJjY2PwJhUQ6pXyahhIMQ/P82DlXORyObBcHiVhYWF1Gb6Isdno4OhgD4Tk1fVxLFg2Q+gLxEGM3r1t3O/8Bmu2xPWpFYico+orMKAQT1uWk/LahqnIMhkUSSEJU17LKbl0Lon+nPEaBtObT5N0bX36vrqCIQhiOFUfe7+9j4/+r79RilLXCRCiYuqARyjkKshdnMX0mxex9qMbmF9ZQQQOISLNyAMQwz5s9oU+LpNaceuFUq4L2DgD5wD3YwQBR9xXAB3vB4iDAGHPR6fTQdhqo1arwd9tYnt7G/XHu+h0Ouj2O5BCjNgfej8bLEY/yKbj1rJteLYHSYlel74vqftmFERSL5BS8qYnVTEWAYRk9j9hIEQICPncs5ytytTUuXkK0/KNxhZfv379/r17D+4+fbp1s9fvXen3+8S40Ekhjo79CFMnYurt5RmaPrKKIC1EP+iGRpsJdSom3idEp8+ocb30d2YenJe95toFtYT6yamq+Y6PjtDtdoGm8gCsnAI7oT0PokMO21YEIOKwj0ajgX6vB9t1By3aBkzTnkG/38fOzg7C+/dRLpdRubaIhYUFODnVyzCIDE++biofTYYKbbI/T7v2WY/gvNmLRFlJiU6ngy+++ALVX93D/fv3h7I+Zm6hbdtwx/K4dOkSLv3wbVy7dg3F8XH1PUImPQbKopv8epT0dZhY3fd9+L2+8gzbyrJHqlMPJFaxvgyVRZeRjvlD5RHIvkLvSTNEu92G8H1IKZMeEgPKJg+w0PuLaY8uS5Kr8bFsibt5LSCH6mssMqghUQZ0mE8hfcM55zKOYzE7N7e7vvrOrd///d//4s/+7M++OvMNGiHfSBH86Z/+6Zd/+Zd/ufrgwb21Z1vb5Xq9Pu/CVoSrhA1tCNNlFsoYYeQDMsZQ6V5WjmngEQUDgAa9Vc06pRTMAE90kOYhhCRcdVyHFiZGPOlGDV5rt1ToCT9CIPYjBF0fHR3qJG7pCEAt7ZYTQsBsF47jgRCmvHypHm7GbDBmg3f6OKq3YH3qYbvnICISq6V52HkLsYxTGItpjz4OBgIA0d5A2k1XG1r9O/HBTpiFBAhRHAFSyiQyG1iuTLbCfE55s7BjdWx338fT97/AZ//n/6eOz2wQOgAHoyhS2aO5IhZuruLGH34Pq6urMKzKJGKIIgHuAzLgkH6AKAjA++qn31cPPj/qotFooH2gBp80tg5QrVYRdHtD55r8v1QPsjAYgg41DScj1elrajmwKAUjxj6fjquYOoEo4loRBNDNtsduU3qGbMQpwBgoLNiEwk4iJ4r0lmIg4FzIwO/uzc1MfPqTn/zk73/wgx+8Mkho5BspAgD47ne/+yXnfO7v/+Gf5qvVapFzXo6iiBA2eAgBJIjv1NwUVlZWUBjL6fdoEn+l/xlQh0sdn+m0TGIFIsVVx/1QNa30lYaPuY4BMyALSyy8vtGnKAKjuEz6EYBqxiFqhiOApBsu8SCGkdxjkmAmp3zOvMeYqrrb3NxEbdZGqVTCJJ9HpVKB46lsglnHSd8z7EZm4sszyKtkFtIeTqfTwYMHD7D3yQM8fPgQYRiqMe0GfNUihIDneRibmkIURfjqq6/w6NEjdDotPe1Xj/MKlfeAmGvgTu2LKFT3n7ZUbB62FHgX15SCkJmJzenzSmeDBopA/x6aDVoa8lOdhj5BEZjrzfST7v3/7b35cx3HlSb6ZWZV3bo7LlaC4CqSEkWJoiiRBEHSVrvdm7vHKyVa7o6eiWjPPL8OT0zM0vMn9E+vJ8LuaMd0z2u/Xjx+fnZ4nmbaliVapCy1LMm0NpIgwAUkSBALgYsL3H2pJTPnh8yquwDgoo2U7MNAXN6tblVm5cmzfOc7tg5ax6jKYkVNFRi1IuE4GEaQKjfAHdW9qZhTQcdyuRhat8G5cs7BfS76+vqWN27Yc3Z4ePj43r173/jMZz5z7Y4nq0PesyL4zGc+c+3tt98+df36zMBrr77WzTnfxTmPWCYhhmWFO4XQCzc21IODn/kUUruGQCmFS5RpFqRjoOmafSHbgjl+QzVZ9euOKuOtOKhUKnC0CUgWqqgVi3DqNYC7K3gSvTULxdcIDgTviyCyywBCwNBMOdIWE67zBgOaVkC7Oa7iF4Z2efyWLUJKCcJMGMyEyFdwI1eENBlyMg0KiYGdKRhxQ40LIQpB2eJbBtIaXAtKC6Tkqmg96JhzC2lFIKqo++qKIaiSZDqGY3BlmfkLNVx66S2cf/bnKJfLAAQYI2CWGgMEwV4iYUQjGOjug1dzMHvibSwtLaE0kw+Lt4JzCB47/y9b8vmKUEpdu6GzPaqJranPt/MKItpaCrIzKrjIuLr/PEWFBBjB/dOSxZISnWWtniQKVNRlo2sgBXt9Br29vbB7kujq6gJL2bBtG1FbBZtjVlQFtZcbSnGemUB1vA4/twhqWZD6dxkkPN+RnuPnh9avO/vEp554/sC+Az///Oc/f/GWk3kb8p4VAQA89thjZ779D//QXa1W0+fGR42xc+e2c85jvu8DLXl/QPUNHB8fx/oEx/bt25Hp7dF5VW0K+iJUBFI2GX2kp9JswlF8B6ir/K1XdVCv14FlF7VaDQ2nDM/zwmBi8Ce4XiCafksGz2VgjQRMPoEFInV0uZk3dl0XvuPC0+kktchXByatnXfX5aehhdLuCwa7QNDZZnl5GePj48glfRVVZ30KkGWZKxRAq4TuSseifzc7/c2vp7mDAkCtVsPs7Cxy71zB1atXVQoNgKWzKK2KkTEGChONRiPEFNTLZQWwWaypKPwqLlfneUjZpPZu9dVVtkXo2Ip6f6UiaC8O4lIXw3GpLJW46nbNYoqx2tQUfAazwmB4MGcBQxVjDPHeBLq6ukB6YkilUjA0vgVxlVGyTBuRSASEQyMtC1hYWMDCwgLq9XpoLQA668F92d/fX+zvHRjbv3//C48fePyVL3zuC6O3P4M3l/dFEQDAV//Vv/rZK6+8wv72b/82NjZ6zuS+e7/gHjUtm5iRCEBNMAbUr8zjnfmXsFhcwtZ4P8yhfpiRCDyDd2h6hP8HoKri2nYAtaN40EAN3RGWC0crFBoGmVSaxw+DUypopP7vcbXwpRNYJmqRexr55ZUbygLJq5ZuteUyqoUC/Lxujtp02TtE7xhrQRSD7xHd00CD84lpwqBWeGPJXBnTufPwhIdNSAEGQ3pjHMaAsgxWcxFWWyiBxXO79Qvh4gvSXhL6GHJVi4cIRSzqZpcx9YsxXH/pDGpT8yCOokgzbFt/R6UABQHAKGxmolIqojZaDIPJUkpAENhGJHTxSMs4tv4+W7HAAwBPkJYMLAjN6RlGsVsmQruoCILThIAziXhXErFtgwoZO9CNdDoNllCI2EjUVlgUW6WpDVthU4il0sWGYWkAm25Hr4FBlDQDgoZhwFkoYWFxDsujlzH19jnMj09BSgnTVqSyTBBwz5ee4+U3rd80Pnz40PFDBw+ePPq5o2/f1kTeprxvigAAPvGJT5z49re/bS4vL8vLly/j0qVLm4UQMVWhp25s162jVqvBnZzEO++8gw0xFxs2bECyPx0eZ7VgFGmBiKodQJ067whiSd18lXLWxsYjtcsR1m/r6LMv1PMA8RXGHnR+mGvEF0qOTjPVUSqV4JQLbWZqENMIf0+S0MIInre+TzTy0pdKQTmVhnJ9tM8b3Cyedo3m5+dx7tw59CcUJj8T64dlWTB0OeutrIN3Qxa5WpxhtWMzxtAoNbC8vIzcpWu4dOkSFqenUa1WQ194te+3d/DxwuuglILqduABcQchwTV2WCYdQd6gSMpk2iePKHyHYansDrPMEJqudnCEO7nCjOjzohKZTAbRTQPKpO9OqqBmQikAM6IXusaNUEtjR7QikAE1XwBxD4rXdKzBcRzkcjnkrs5ifHwc+fNXVGfnRqONkUlIKfv6+oo9Xenxxx57/Kcjh4dPHv3C0TfufDZvLu+rIgCAr371q8+dPHkS//2//4N99eoV4gp5vy8FNaTy2aTBVOXVlSLO104hv7yMdb/922C9XTqKKwEpQ8x6MzjTpD4DAF/q/G3HBhdixaGbrDC9w5gEqtKOgUkJCAkqJRiCarB2iyN4HixkIkjYUUfRSmsLRvihqxFAR1V6NAhqijYFFNJteSq95GmoaeNqDvPz86jPZFFcWIDBGSxqqIh1JAKyWMX14jgaroMtSMGKWoj29oJ2W8qiCXf69gUX1g4I2gJcf2+i0mYUQkiYUOQiTq6B6TMTyL5+CeWxG6gt5mEQAmLZKqsTLNigdZqkYdKIMROEsDayDcHVzh5kecBaMyQtEmZR2gFnIsoQy8RhD3Qjk8kg0ptEMpmEkdY4j2AHtxUE3TRVW3VoxCmlVCkQOxIGOFVcqCUTRSlAgywDAYcPRhg87rXMQ3t2RzIKgxngS0XMTUxh4Y0JTL09htL5WUjP0xklNV6+50sheWnrlk3jw8MjLwwP7//pk1948tT7Mokd8r4rAgD49Kc//dzf/M3f0OvXp3F15kZk/saNTdKXLBhAxhgajQamp6dR7BbYtGkTqoMmMpkM4qlEOHBqhw8mvz1o1Pn/8LVwHaz0KQkhN8EV0LbPB5BPEgbDmgTZ6iGgaW+POXAdU5BaYXBPhIu/9RGeDoZylULzUnmsX78eN6xLKkBabiiXR5uSAdehMz2NsbEx9CV97Ny5E92xAb2TBeby6nNyp7GB28F4MMbgNFTwNjt1HRcuXMDSxBUsLS2Ba3xAkLbkwSIPp3MlEUeQUmSMIaKj60zXpBCrGWEPFqFChAZVjep1ohF5sYTy0a2+LhW971YQdJLQNSjaUkBELXjTVDs7NNApBDuR5nkF6cW2e5A0G9UE49IxUsrK0edcdxzk83ksXJ3CuXPnsDh+BXNzc5DlsrYEzKAFnuzp6an2dHdd3Lt374sjI0de+NKXPvuBKAHgA1IEAPC1r33t2e9973vW8eees3/8ox+j5NQ3g5qUMBMGNQCfw/Ud1KaXMfnGOGqUY+/evUg+kg6pp6SUILrBRliEpR/5mtZu567Xwl2nASoAIDuQYWGrMMk7XHu1ILjUwcEWH1NC9UhEwAoMQEYoIE0QmKBCgOjgkxkEm0MzXgNqoCwLf8c6pL3tMLttzNsNOBdvIJvNQrhS+ZyUgpomaLaKydfOoFCqYL2TQDyVVjd4UtN8h+kufZqt13I7IikIWPN7pLmzBeMISDCYMJkJb6mA+clJ5E5NYOnNS8hfm4Ph+2B6Z5Pw4HMPnq/Hf0W/407AGIcVi4H1JtCVySDSl0IqlQJJqdoRZgdpOG2a20o5MMtsq1JlEbsN8s2CXd1oKhG12JUrIiiBRwkk8Zvp5dXGTYbTrzeMlQpTSmAFt6bGuMi5JdyYnETu1GXMvTmK4tUsrIYLYersBThc35WGYZV3bL/v4uOPP37i4MGDP/3Slz77+h3M4h3LB6YIAOArX/nKM9/61rfI5OQkpmbmaD6f3+gJTgNNzjlHtVrF5OQklhI+MpkMxGAUsVgMsVjsloGtO0W8taWiZLulEWjuZvpQP2jFsWrRiPqWer+DfZZ0LCAiScf5BjuOWiAMyme151QePFszUKlU4PNG+B1KKVzXxcLCApZtib6+PhT7GLZs2YKeeO+KdOW7kVtZAkHkP+g+PH/jBs6fP4/8pUlks1l4tZqOeOudDVIVfVm22s1DxiZd00HR9hxUIpFIINnfo4J0/Wmk02nQtOKzMKJWqAgsywKJqHoNo6OMXbIghqQUsQgtzCauQAbBQTQtQy6bsZ7getfCZKjxXnusgngHIQSu66JarWJ2ehrj4+NYOn8Fs7Oz8PIV5YLo8SKUyEwmU1vX3Xvp0Ucf/dmhQ4eOHz169JU7nMY7lg9UEQDA17/+9f//r/7qr4xXXnnFfPnll1m+UBpipkkEJaCWCXhAKZuHPEcwZ12EoBQ7duwAHkgChEBK5aNzvXCCvHVzgjp3mHYJFHObe0xICFFegR8IiwtWf3ctWbHrBkoncImh8OpSBjcTB2QAUyAQVMIXHOb2Puzo2Q9LmrjmFOFMLqBcLsP0FAGqQQwQRsByFUy+pkhNen+DItWdUHBYm7b9flPEil0KUPGD1e7lgJ2aSF+5aQHwiipz38uVkJ2fx+KblzF36jyKF+fAai6kYYWkHb7vg8cIhrZsQGrnRpX2zMQ19Frv4DqIRyLa7GcGLMtCJBpXO7rd8lntowc+PHRxDicEYEqpSuKBEB8MrjphHU0OypfDBR5Mkw5CBunFEFgUTqO+32j7xiEDDRCmLYPjofk6ISDananO5DE1NYXcqQuYfmsUtWs5RKoc1LRBCQWED+55MsailYd2PHBp757HTo4cOvjc0aNH/3mV6Xnf5QNXBADwm7/5m6dc141fu3YtBjJj1+v1HiE4CSKjtVoNjUWOiYkJ5BJc5W2HkrosOCgXbT9m6+5+O/7su5F2INB7lyAb0pYmDRWa+o2uri50d3fDulZFNpvFYo0oCK3jhgxOlFI4joPr169j2isr8tOtUfT39yM9qC2D9+WMW3c+7SJpXMfi4iLOnz+PxYsXMTU1Bb5UCn3c4PPxeByR3ji2bduGDXsfQjKZhKkVlqVNe2YxRCIRUFub9KalXTAVk/FIOx6ks7VbUM0awtn1uIow/9ycx6AnQnBdrY/h/LwHa6p1vIL/u67Ct8zMzGB0dBRL5y7i2rVroLmGLoVXlgCjVKZSqfpAX//Enj17Xjp0ZOT5p5566uX3dDJ3IB+KIti1a9fUiRMnTlUqlfgbb78ZfevNt/YsLS11G4ZBDGKAGCbgAsvTC3CEi3mahBG1MDQ0hPjWnmaADQpBBjTZ6jtpvjtZanXaOkSeUW053E5d/e0pAJ3HXstmCO5HVY/a8nKQmw/y4uq8XcpBqYT14AB2do0gZli4UloAL1VBiASTKrVkSQtUUhj5BiZ//hbyxWUcPnwYyd/uVuaoKUNXRmiOXHWjU81SrPgIBFnZkan1+oXGDxCoherkK8jn81h68wqmfnEGhYkZmCUexgSI5PA9D6LLxuYdW9C1dws2PPgg+h6+T+/qpNkajlJICriUgBoAIQKEOBqgpBRBQHLbLFPvbMagH/S8M128E36KCEi0xJgCDAI6FIWaIKzgv+j4IaK5IMNbjpC2+UPQuYmqeapML+L69evIvXoBN06fRWl2GWYNKpuiEY2e58lkKl168MEHJ3bv3n3y0KFDx5966qmXVp2UD0g+FEUAAL/1W781/tprr0VAkZqZmY3UarU9nPO4FJIYhgFfCuTzeeT8EpLJJIoZ5TNuHkreErHXBLzcXN5tPv2DkJtZG1JK9Pf3o6+vD4npOi5evIiiRk5yzkPmJEopGo0GJi5dAkpzyGQyoA+vQzqdRjITD48XXPet8AZtn1/lHAOk49WrV3H94kWMjY0Bi8rHNYOej1Ll0e10Gjt27MCmxx9RtSWb1+l6k6ALVHNhBwqrLTofLrQwyorwB1Yf0fAxsAxWvU9uefU3HxcpVqdqD9isg9cDbMTs7CxGR0exPHYJlycmgAoPx0sfR0aj0VJfX9/4I4888tKRI0eOHzt27EOzBAK5OZHb+yzf/va35//zv/8PHgUxwUl3tVztKlcrBiGEMEJBQWAKAln30CiUkSE2rHQStjRhpmyNK1BOLdU9/Zo2sDb1NIeNJJ3Or36dKmvg3ZrOgYUR/t2mEClDlh8im/xARMrwPRocH7rqkQGuyWAOpBG3bMxVlsELdb0LKQODEQoIwHA4jKqH3PwiehFD8r71IGAq6SEBQgkaTgO8qOC8ubEpRZDCVIrU5xyxWAwDj2zD5s2bweIWYnYUglIQysCrPmqlGrKvjeGdF19D/tx1eMsVUElgUAOEK9IPnrQwuGUj+vY9gB2P70bfI5thpKOgzFABOwidcVE7tTY4dE+FljnrTHcQ9d21rbT2CVkxTXriif5D6187BSqadxE0EhAAWDg5bXBn3ccBhIBQooBJzED52iKmLlzB/CujuPLLUZSnchBVD4wYKmvGBbjny0w6tfzwrofGRkZGfjoyMvL8008//fPbv6veP/nQLIJAfv9zn/vFM888YwtJ04u5rL1UyN9PVGRKWwbK/5wrL6ruthuT2L59O9avSwBY6YOt7Cd778pqiMn299AMPundZWhoCOvWrcM0T2Jubg4LC/WwQjPgNFDZBAfjY2PAwmXFY3D4AeWLm2TVzsd3er6VSgXZbBYXL17EO6dOgS1xRDSvQqvEYjHcd999WP/Ibmzfvh2pQWUJeL5Ky90sl0n0YlrLcnm/YjW3I51Zn9sVKRVQbG5uDqdPn0bu3Bguj4/DaLCQHk8fXzLGSr29veN79+498cQTTxz/whe+8IHhBG4lH6pFEMj3v//9a//u3/176nM/JYXsaTQaqUq1SgkhYFShtAxBQV2Bci6PtLTAepIwJAO1LVDKQt8PCNwFINDM6t7t3BMCH2/Npagfb3Gzvet78dYmRGhayuZGxZkANyQcA5DdUSTtGBadEvzlql44mhmHqh1LCiBtROE1PKR8E9ZgFygzwAiB02hAFGuYm53B4tg1lEpFMMMCCAXnPuLxONbt3oqtWzaDpVSRjO8BjZqD3Cvn8fZPf47Fs5dRXSyBSQKDMvjw4fkuZDyC7sEBZPbeh/sP7EHf3m2w+1MwLEOV8q4CaAh9edIkgxW34+O9G2kCI27+MQgNHQlSyXT17xARXo8CMpkQEqhdX8T1i1ew8Mp5XD51FpXZHLyap9irGYMUPjzPlX3d3bndDz80evDgwZ8cOnToxNGjR99VP4L3Sz50iyCQr3zl2LN/93f/GOGcR4rF4kh2cXEzpZRS1mRrnZ6ehj93BdFoFGJnLzZu3IierpjiEFwjAvxB3UcftHT65SF2QCMxN2zYgN7eXtxgfZifn8fsZC78rmEYStVJCc49TE5O4ipX9ex79gwpBB3kmjtt52uBD6yi3qrGYnx8HD8/fhy0qn1czagUFHJFLRXcXb9zJ3bt2oX0tk26wMtru761fu89aNj3VW4HR7HaGAb35Pz8PM6ePYsbZ8Zx5exZMKmKknQTXcmFkJzzQiaTGd2/f/8LR44cOfn5z3/+zQ/mam5f7opFEMj/+l/PnP+3//briUajnvE8v9f3/WitXiWEKDZXCgopCSxBUVksIOlJil2bAAAgAElEQVQysO4UTBgg1soW0moSA+ugc0LbLQS5wmIw0ByOzve0SfsB36ttwSzt00qi7B6PcXBTwiEcbpwiaUZR4nU0lsrNMm9CwIhiY/JrDjJGDJwRRH0GOxMD930gX8eNmVlkx6ZQLpVgMFPh5H0f8VgMg4/swNYt94HE1esLr4zijedexMJbF1FYWIIBBoMaEFItcmYaSCQS6Hp4Ex4a3ov+/fcjMdgD0zZUHOAWKdg2e+1DMf1vkWoGAUhgBdzMEtBVhNQE5wKVqSxmJ67pmMBZ1GbyaFQdPb4M8IX0XU8O9PUuPrzrobOHRw785NDh4RNf+tKT72sV4buVu2YRBDIyMvJ6qVSi1WrDdBzn0dxSdj0hhDCNUzepiampKVyemQAhBI/uHIBhGEjEEytSh+8FUfdhSGu+e61sQUsitO31gPF4aGgItm0jT/pRKpUweWWhrR7e0JkEt17GxMQEsmnVnjx1X28YT2gLdnWcRwC9BYBGo4HR0VGc/B//A2bd0je+iktwXVwVtSPIZDLYsHkz9uzZg9SuLQAALvgdz829MH+3G4cIxpJR1lYdOnf6NCbOnIHJYyGTNSFE+pxL13XzPT0950ZGRp4/dGj/i1/84rHTH/Dl3LbcdUWwa9euiZdfftkgjKVAYLheI1atVrvq9TphjIEF9esOQ+HSDM7/6BUYu3ej78hD6OrqgrRWbyO+loQ9+Vakp27hWnTQqb8bWQ3E0vID6rwCBRCcR0iZRsCFhBejMGgS1kNDGKo9CsswMTs7i9rsklIGMEGYCeYT1HMl4MxVLLEMrnepMlrPF/ANE4KRsKFu6/j5vq9IVkcncOPGDSy+cQkoSBCmaOGlUBkGwTkkFzA3ZbBt3x4MHHoQcigByQKmoCBL014r0mSvDvAgzdeB28N3tA/QbX5hLbr8zlqU2wCREUJAiQXXccHns5ibm0P25+NYHDuP6mwe1LdAdaMeCF96vi8H+voX169fP/r4448/Ozw8/PIXv/jkPaMEgHtAEQDAE088cf7M+DgrFErGYm4hNjU1tbtQKKQjkQgJ+r1blGJqagoXFq/BcRzse6Bf0YebrA06GsidKIdA7oUdaTVpBbAYhjLFUxsVcUUJGbz00ku4dG0eQECCykLew8XqImKxGKr9JoaGhtDT3b8i0t86VkFnqtOnTuGXp04hWuBhvIBSGubHhQb69Pf3Y3h4GJm922BZFvwAB9AC+VYB0NUXWKgcwxea13w3ZC0F0IpsDMqSfd/HzPQ0RkdHMffOKC5fuICIr8qadTWr9H1fuq67PDAwcHZkZOT4yMjIS08+eW8pAeAuxwha5a+/9a3sf/qP/4Gbtp1cypd6Z27M9XE12soEIxa4L8CrLhLSBHdcxBuA6I7DjkRVFSBR+XIN5AXa/po33GrRgs6dZe0Yf/u3BVFHIE0I47scgdXy2c3XqSQgAhBUglACYRDAZpC2hZysgzkcDhXg5Zq6JqrJVX0BSzKQsg9vvoTGjTKWJmaRm5qF13DD3pEAAWMGLFC4uRJyYzNYnspCCgmDmWCqqQC48MG5j+i2Aezcvwebn9iNLXseQLyvC5I2EZZqVJr4CMhm1+LW62petfLLA+Y2Eubt1/gL4kCSdry+1vivscMTDhCVKSAByKMluyCI7ucI5TYZzIDTcODPFzA3cRXzr45j6vQFlK/nUCtUwaihYgJcSN/z5EB/3+L2bdvOHDx48NlDhw69+OUvf/nMre6EuyH3hEUQyGc/+9lfvvL6G6mZ6dnUL99+IyU43+x6nkor6nw4kwzT09O4+NMbKJfL2HtfCslkEow1q/tai0iaGv7OLYS7ITernVDXJwJsOtLpNNIbI9izZw82Nmy89dZbuDaTU9x6hs5ZU1PVv5fyClcQiSs24Go1xCEQojo0e56HCxdU/wGjKHRcQsUmpMYuBOO7ZcsW/P7v/z5SezcinU6D63MP1tud5vxDk7zj+YchqyFOO92EQBEoli0X81NTGBsbw+yZc5iYmEDcVcVS+rql7/vScZzi0NDQ2MGDB18YHh5+6emnn74nlQBwD1kEgfzdt//vya//6f9pEdCk8Hl6aTGbAgmGVzWa4J4Pnq8gwRmYpEg6FCJpI27Hw+7Hq4Ti0MwoSDTLcoKdROB28sydstJyWCXbcEfHY+1H7DgvqfsggFBQg0FYBDxCYMaiyPlVuMUGPEYgq47ajZkB7nOg7kE2PIiqA9JQpj1jDIIKvcHqwGvNgag6kDJga6YaWqtIVawtGWx+eDs2/sZu7BjejdhgBjKiGJ6DjZoAIGSlT65qERCef9Mea73eIMUZaJSOeWnJ3zfHG23fVwPVYSmsOd7NTQMtn5baMpD6nmGEwXEc8Pky5i5fx/zrFzF15hIKk3Oo58sgRDfxlVxKwWVvb3duy9Yto4dGRn4yMjLy4tNPP33PuQOtcs8pAgD40Y9+dOEbf/lNZLO51LnRM2kJpAUXRHU9VtVtXHDUajVMLM7CdV2ktq5DT09P08YJg1IrhRDSogiCF+8w+HS7cseuwi3Oq8WZDphvotEoeu0UOOeINVS1YuHGoga6qIVsBB2gdJETDSyogPORBMAkEvIJqOIgzT+gYwP3P/4wfud3fgdbHnsQfX19QCQoDrqNK2tR0K2VA4FVoualg3JtxfV3/tB7m0e6xsdCsBqUJWAaJkqlEmYvXcPY2Bgu/fIsLl++rBQupWCK/0D6qrdi6aGHHh795Cc/8cLhQ4dPfvnLX74nUoQ3k3tSEQDAd7/znfN/+rX/Q9Zr1SQBUoVCIUUICNPtwgkIPNeHlysi5jMku9LI0Ci8GEPEjKiIuK5LCHY8NDPWTSRip2XwnqX9d1bsUGspBrkGgq3jvEj4j4JItZBNywJsCw6TMCwDS34VzmIBggHE99XNzkxVeUd11yJKAEpAhYo/BAsyyKMT3T5ZCl9ZDwMp9G8dwobf2I2HjjyO5IYeENsA6Ujhtp93y7MgIIkAEdqJAVEW24r06Z0qgjucx869QhJ9FtIAIQyMUHiOB5mrY+7ydWR/cR7TZy+hcGkWjaUSQLQS4EISQPZkMssbN2w8N3xg+LlPfuKTJ5566qm3bvtk7qLcs4oAAH7yk5+c/8u//AZKpVLq/PmLKSllmhBKgh2OEAJfKAz7oqjC931E1qXR3d29gqck2IukbBaurGoZvGfp2PNueSN3fu8Of4cgLK+2bRvr4hk0Gg3QfB2+76NSUDThlAU57XZLKQjgdXZsCmv4fcXmvOORXXjiiSewae8DGBoaAo2p47VCgtvjG2tZY8Fv0HYAVSsHWNv13akiuDNZoQjCjYLpGAlDPp/H7GXFMXjp1GlcvXoVqHqtEG/JPV9SSiu7Htw5dujQoROHDx9+4dixY3cdMXi7ck8rAgD43ve+f/7f/JuvYXl5OUkISdVq9ZSUkjDGNAmFgOAcvNyA7QCJri70mEl4FkHEjEAgYKQJSkRb6xO0h9gKsMHt3VqCtFcxBt8TRHXvaR5DMf20572bf01XOlBOQYwg+HyHhRGKjnmoQQAIQcSOgKUTKEkXnBAUqAev1IBHCZjHm1HxFktIYmXunhCiWr5JgHZHkejpwqZP7ZG7P7kfXZv7SbQrERYHtZbeqjbo2mIha2RjwgsOLAB1vZTcXBEE4xowKtEgwHerGoJbxX5CQ4xq90YpKUYJPNcBXXZw48p1LJ66gOmzF5E9fw21pSIIdL8CCEkJZDqVzK9fPzh+6NCh55944okTx44du6u1A3cq97wiAIDnnnvu/J//+Z9Tx3G6rkxe7XJdN0kIIYqxR01w3Vc9D0uGalhi9SgW21YqqlaOuQA912kR3O7+Eu6gHd/rfH2FhRA8C6sNO33a5ufV+dKO5yvPMNhhAUAKSNu2sTmzDkIIGBUfnHPSKJZV/wYWLNy1jqPGiXuKpn3zA/fJ/fv3Y+u+h+T9999PdDk46SRiCc9rhYseWGJroCk7SUzXUAStarHteJ2fX3FRt4oZrEQyqU5GDEtLS5i5dBWjo6O4eOo0rl+/rgOpqm+ClFJ6visjkUhp14O7xkZGRk4cOXLkxFNPPfWLNX7snpWPhCIAgGeeeWb8T/7kT6zZ2RtdnPOMz/24EIIQRlWdu6MaY8q6D9sBoj1dGEj2wDNUHlwGO0MYFtY3U5DkvsMdZS3LYeXrwQ68+udEsLGFO1tA893cIZvmNIGkyhyVhIIyAwhSer6QvufBd30YzJDRRFQulvPSWSihUCmhvpgnQghQwwQhNNxZW62BUDlKCd+vAxBycM/94pH9j/Hk1gGZ6umCJIJ4rgtwSaiOUaj0m+oZAQoQquv+oS6OAEAHtDr0xXX35RXrX+MQCKiKiBAVE2nOIekY6LUW+i1svBZFEdS4+J4Ps+hhdmIK2VMXMHXmAubHJpUlQBgYM0AASQiR8Vh0aXDd4Lnh4eHnPvGJT7xw7Nixu1ZK/F7knsIR3EoeffTRU0Ig9eqrryVeffXnkXyhkDF0rzkKVQmXy6k8emMsCcYYuh9Yj/Xr1wOypZ2WlsBHvRtVi83dcfWdNXBlgmAcIURSSiGUUpAAA+eKit1xHHgN5cs7DU/WajUpKnU5OzuLUqlEHcch7b+5uqzGGi2E4K7rcrdQAKXUoFFGGGPENC2p6MINmKYpg34DYdt2IYk+nnrs9MVbOSXWGPzWebkVrqBzXteS1RCnwe+o2JOBbDaL0tUbGB0dxezbo8hms5Cct/ZpkL7ny2QyWd61a+f5PXv2nDx06NDJY8eOve8diD4s+Ugpgk996lOXR0dHY67bSE1OXolzzh92fSchpSTSUB1/3KUScg0OOxFFrmHBjEXAkgNoxBRCUQpFh0WFppoObrS1fnRNjPrNpbPdeiA0NHX1AhfNQiC1YILef1JKKUE1lJdKSCElDIdI3/cBh4ft0er1OvErDur1unRrVRSLRfjLVeLPzqKezYNUHCi2opaGq/TmtOcEJiAhRdGV1fkiaKMml6MFsKgpI5EIjFiMRCIRaUUtiEhEUisiDMOQiEAyxghnlBACyqkglFIS4BJ8wsM0Yqsi1mlNEnAUyiCH3xIUBZq1CUbYZ4bqcW0HJYXgshYOwptdr0EouM/BGkDh6jyyr49jcfwibpy7AsdxYFl2QMwqKaXSjkaWB/p7z+/Z8/DzR44c+UgrAeAjpggAYPfu3WePHz+eqFRqibfeess8ffadnYVCIUE1X75pmuCcY2ZmBpxzLPcpOuzY5i709/eD+wHrbfOYH0Y9fKsFEPjoWgHI4D3GmFS8fkL6jgvXdYNHuLU6yuUy6jnFFFTOFYjjOHBd1Z0ZDR+cC0jPheu6hFV91Go14ucbcBwHlFIVWgtc+TUYgALz3TAMCYDMzs7SRqNB/JiUlmURYUAFajXFODVVtaIViyOZTMp4d1xmMhkZ60ohGo0KKx6BaZrEMCNtvQJN0yQa50CklIRISgLKca0ISGts52ayOr/Bzeag1SLRiEEwLCwsoDiV07UDZ7C4qLAYQRWhEEL6vi8zmUzpwR3bxx955JGTIyOHXvyoBQZXk4+cIgCA3/3d333t5MmThpQ8eX12Kloul3dSEAoJAk0P3ZjJYXapilg6iWU/DmbtRCy1HjXTU/6qpjxUjL7NG0ToHYSFlsLanZPQ8s02rJtO06kbWb8WkF5KfVSpFAAVugmYIyTnHMR1pPQ8KaoO3FoNTqWGWq0ma0tFsrS0hOpklkxMTJDizCJpNBrE4Y46vmw7HQBBr76gCIkAgAzYfqnu9CTCzj6GBmEpIhGhiUeqMwtGfnJaBi3hJFG2jn5Ogh03Gk/S7u5upIa6xfr162ViqBddXWkZ7UkjYtvSjsUAOwIatyWNRGBEbckMAzAIGKWQhqQUoD4VAcpBKQGqkA3BuAdszKI109NS1BSIlNry0JaAhGxzC0IXTBJAEEQcgtL1HLKvjyE3el7eOH1ZQbkjFgzDUvMHSEplvi+THn/00UePHz58+COXHVhLPpKKAAA+/elP//MPf/jDaLFUip7JnIlenpjcVCgUDKKLaAzDgBACU1NT8DwPm1K+qlbsjSGdToe8f4HczFddSzpNXP2a1IpAmfZCSs45XMclruuGXZbdBkej0UC9XJLlchnFbB65XA6E66aqjm6m6vpwXZeg7pFarQa6WKfFYhGCq74QFrPaXJymBGQlqvjIdT29gLSi04qM6+7RDKa+AN0YhKrFQimFbdskWFBC+zosWGDqeERKScrlMqnMNVipVBJkPipt25Ykbqn4gcFgmqbkFoNhGJKZBqLRqLRiEZlOpxHvSol4PE6shE101Sk1DIMwixHTNGFYNgyDBVYU0ahzIqWyHBA8NmcHAMLaiNVmljEGSImFhQVUri/h9OnTuPH2qFxaWmryMhDV1Ul4vujt7S1v3bJxfM+eR04cPHjw5MdFCQAfYUUAAE8++eTxH/7wh1FKSHRxYQnLS0ubDUopY5QwywbnHOWJWUxeyyKaTqISW4/4QxsRiw+gZqhWYgIcQdEJJSRsbRbISl9fNJ+HKUBIxjU2XykCaXAqOeeScAHH4UDZIX69TtxKDY1qFY1CCaVSCcWZeczPzyM7Pk2mJifV0QDZwn+g72idTSCK/p2yCEzTQiRAWgoVXGyer16oukmr7zkAIEGJQwgpCenkAJQoIQ0AVArHBkGSQ3YBSFLiRwkh1DRNErgJrceXMlho6vjEk6jXq8TPeyhhkcqgk1QAV9BluZrPQUJSmUgmRaw7KQcHB0X31gHZ19cnrXUZmUwmiUjEEYvFCItZhNk2zBhFJBIRxBJKoTBKpZSEU8mkBPFACaQkQUszCkqk9i1UcFWNq9TzTWGBEQPRusDV60vIvn4B2Xcu4OovR1UnpkhUW0qAFFIK6eW6Mqnzjz229/gnP3n4Z08++ZWPZHZgLflIKwIAePLJJ//nd77zHdRqdZJIxMjM7NymYrHIiGxaBoQQTE5OgnOOzWKv6jXXbSEajYaWQ2uEoA15F3RwhrqvAIQtzj3Pg+d50vM8CIfLRqMBp16XpXIZ1aWSrFarcKo1NBoNwPHhOA6kp74nqnU0HAe8UCGVSgWiXCfMssBUmpC0mOIaOdjejVkCqk275+kbVi98DZ6nTcUhGWPo6upyenp65vsG+ia70pnLiXj8RjQaLVFKG4QQ6jmO7ThOcjGfzywvLz+wsJDdvphd3Oh5HmvlhxTh0AQofX1+PkImJcYYIcTQTT0VSocqZ4sI1Q+Z6OAdq9VqmL8xL3NeUczMTAuejspIJAJmmcSyLEIsSphhSGqq3oYwJZhhINXTI7q6ukgkYctYLEaZHSWRSIQYJoXBGDGYoXoiWmYb61KABBSelLOzs6QytUDOnj1Lbrx9nmSzWd2tiYXBW19ZAoVNm4fOPfroYydGRg6fePLJr3xkEIO3Kx95RQAAf/zHf/w//9t/+7bl+9wqFgtWbnFh0KBRapomJLEgpURlbAbnzk0jYsckz2wFaA9ss4t4Eb+t4WVgYlPVFl1SnQ83pQUppSTch+cLiTpBreaDV2rgtZr0Kw0Ul5dlPbtMZmdnZeHSPMlmsygu5Ui9XtcR8TYDte25YRiwDAOMmhovoMguA1MkOC8uBXzfJ8Ln8H1fgnsBUMEF4ACoAXAhUQXggKDc1dVVTXZ3FTbv2Db3yK5dV7Zs2nKlt7f3xh/+4R+OBb//7LPPbl5aWkpeuX6la2Ji8gH/zbe3z8/NbpIA9UEMCWkBiAOIAIgBsABECZAAEPcJswkhlDBGiGnAYloRBPaMTpYIokhkDEj4vk/8Yh35fJV4Mx7VO3c7BZ1so1aTlHBpmqZYt32T3LJ1s7SH+tHX1yftnjTMVEryhE1M25ZG1EY0aoBxKiOWJWGq4IxgVFLKJMoOmbw6T+dePcdmTp/BtbfGiGmaYLorMZWA7/nCcxtLPd1d54b3jzx3ZPjQz44+ffSeLyB6N/KxUAQA8NBDe08JIaxGo2aZprk/u5wfLJfLNGiYGbAYXb16FSdOnMD6+i756KOPwsxYMAyDQLPzcM+H7/vSq7vwfB+Neh2NRkPWiw3k83nUSkX43AdpCHiehyCqj4aK0stSDYVCgcqFOqlWqyToTLRWbjvYeQKaMA7dppuoIGIQjAubuUJCCCFtKyIGBgZKvZn0dDKVmkkmE7lIJOpEImbNsmzXMoyqZVmObdtlO2ZX7WS80N+77saf/ut/vapf+wd/8AdTLU9//hd/8Rf7Z2dnNxAhKAcM122YruvGfV9EXNeNua5rua4bq5er8VKltCGXL2zLZhc3Veq1BOecuFwQQogMLAimr4DrR5/7REoppfqc4jyQklBKg6imUoiiHQIOqRTg0vKS9AWXyGdlIpEASdiw7SikrbIShm6TTkwDhmnAsJlMJpOCxSJSSill3iETExO0cu46crkcCViHiI4J+D4X/f39+fWDA6P79u376fDw/o+tEgA+Rorg8OHHpsbHx616vWL5rk/cs6f3FXKLgywSpZRQEF2GWzw3Sd48Nyn3UoFHujdLwnoQT8UkEZLUaj7cigu3XodXqslyuQw3V8TCwgLK17K4fPkylq7PQzYDUzL4P5EhgEZz9qk0GwwDlm2B6hZXnb37hCSgUoI7DbiuCyrVDi8JhH7bAeARtcN7kqAGglokEVvevHnDjW3bdkxu2bx5dsPg4GIymXRTPalqPB53o7F0rSeZdHbs2HHl3Yznn/3Zn70BYNXc+PPPP7+9VCpZtVotOpfNJuZmZ4euXLiwrVGr7ayUi72+72U4IRaAFNQ9ZnrqwikAgxBiSSktAEyCUtM0CTOttnQqlcpiEhpCTnVyRXADQgjSWCyR2kJBEmaEqEsFaNLZAA3Agk4O2emYGBwcpHYqJn3fBy+5dH5+nuaXliljjBiWrX4HApx7wnWcbH9fz+iRI0eeGxkZ+eejRz++SgD4GCkCICRCBTioL3zquu6+SrU+UK/XQ8tAcLWTX7lyBS+99BLkhZiMxWIEXEjXdYlouHBcV/Kai0ajAVGokmKxCH+hjFwuh1ql0lpoE2YHV8COpNpZgrQVCUlPm8oCaKYn7UhExuNx0dOVXuju7pmJxqPT0WjUMSzDiVgR12BG1bIsz7CMOiGsmkol8hvWb7jRv6H/2r98+l+e/4CHtk1+7/d+73Lna//1m//14d0PP3z/UqHQTQjJcM4tz/PSnHPmeZ7pOI4UQlDXdY1qtWrV6/XBfD6/aWm5sNH3/ZiQkvi+T8ICJqmyLkKoBAHlmrBESlUzQZqoxVbOymCUpWyCp6WUqAtHCiGkkbck5xy0Lkm1WiVCKJ6LwBIQwhe9fX1Lg/0DZ4aHh3+6b9++nx09evSeZRZ6v+SDRdHcJXnzzTd3/vjHP/mtF1988XNXpyYfn52dzVimTSzLgi8BIYQ0TZXOCoBIwc7Og+IeX4QpRs45ZNCRWer23XrlizA4F+S3m00/hBCA8PVWJgXUTi8JIZJIeFJKXxI0KCWN7p6efCbTndu+4/5LD+zccXWwt3cm09vbSCaTbtyOu4lEoppKpTzbtuskGq3uuu++qTUu/67LhQvXtgINq1QqpWq1mlF1qmatVJP1ep2WajVjaWHBupHLDV6euLhp7NLFbflCoZeXa2nOeRqALaW0ibIoIoAwAVAdnFQhG4CYRkQBmphuLiLby6dbEZ2ccyBII7bEZSilkAFxC6HSdV3pOvXs8PDwmcOHDz974MCBl48dOzb6IQ7dXZOPlUUQyL59+y786EfPR3zfj7DXaaRUKu3mvuzyPA9gBqGUEtd1Ua1WIaBuEqJ803AfoaIFpirVvh1AYQFAappxHn6uXREIIRCNRkUmncwnk8npeDQ2Y9t2xTBNYURMWNTwTNP0mGk2LMtyksnkcrqrKze0YcPEug0brn3li1+8drfG773Kzp1brt7O5/6vb3zjkQce3Lm1VK70+tV62vO8lBAi6rpuhHMe8Twv4vue6XkeaTScWLVa3VCqVjZWyuUe7kvGOSdC80sItMdhWmsUlAJvKoJWV4Joa8Lnvuzr71vu7c6cffzxx3/6q6QEgI+pRRDIq6++uv8HP/zBv3j2x8/+3lJu6eFSqRQ1LRumaZJg5+8oPpG6NRVaTXghBIhQwTwRpNJo+MVgx5fKR1WBAylldXDd4OyDD+4c3bL1vtGBgYHpvp6eSjwVl4lEQsbtuBdLxvxYIlZPRBKOZVn5Xbt2TXxIQ3PPydvj45t5tZqsVCp2o1G2CxUn4tXrkUqjYdSqJbq4uBxbnM8OXbt29f6pqes784XlDYVioYdIRAAQPV9ENve20G3TaU0SkI8SQhCYdAwEnucJKcTigQMHRg8c2PfjAwcOvHwvE41+EPKxVgQA8J3vfOcTL5w8+dmzp0//7unTp3cYZsQ2TZME+faWXUJj/jvq4/VnqFS1ABHLEolEohhL2LOWZc1ZZqTELEOYRLkaukOTJETW+vvXzdy/ffu5wc2D5776x1+9+OFf/cdL/v7v/37b1NTs9rm52Z3FcmFDsVjslpxHfN8nnDvE9zk8TgnnPnzfj3qOm6nV60PVSrWn4TTirutSzrkqgtLzb1ImutJdS319Pe988pNPHD98eORnx47dOx2IPiz52CsCADh+/Phv/z//+PdHv///fu9TlNDthBAimaI8U56BlPrGkFR1vJEBB5em8xPMNKs9PT1Lg/39M5s2bbq+aeOmK93d3bPpdLqUSCREJKIajyQSaalprauxWGxu//795+7qxX9M5fXXXx/mnHfX3brVcBq0XqujWm0Qx6mhXq+jWqpGC4VCZn5+fsP09PTm2Rs3Ni0uZofK5XIagE1V2ZkXte3sgf3Do/sO7Hth//79rzz55JNn7/a13Q35lVAEAPBfvvFf/sUP/r8fHJ2ZnvmNubm5jVLV5JKYHZfxeFxEYtGSZVmLlslmDMqKpmE4jDFJDUMajEorFq309vQtr0yNGTgAAAEjSURBVBsYmNm6adP1oaGhK08//fSHGq3/tdy5/PVf//W+6enpzXNzc5uyuexQsVBMCSls4QsipfRsy1o8cuTIueGRkbc/97nPjd36iB9P+ZVRBADw3X/87pee+adnvvRP//RPI57nbZJSYuPmTZVt27ZPrxscON/b0zPRleqajcfjhXg87sTjcWlZlozH4zIWi1VN01z+9Kc//bHOJ39c5dVXX91cr9fX1+v1pOu6tud5xHVdjzGW+6M/+qOPTfHQu5VfKUUAAN/85je/+N3vfveg67obpZRky/b7yg8+8MD00IZNFwYGByeOffGLv3L+4a/l1/IrpwgA4Ac/+MEBzvkQIYSkUqlKd3f3zMGDB8fv9nn9Wn4tv5Zfy6/l13LX5H8Dtd1YNs+gPoMAAAAASUVORK5CYII=;" vertex="1" parent="3">
                    <mxGeometry x="75.85" y="116" width="28.3" height="34" as="geometry"/>
                </mxCell>
                <mxCell id="29" value="" style="rounded=1;whiteSpace=wrap;html=1;strokeColor=default;align=center;verticalAlign=middle;fontFamily=Helvetica;fontSize=12;fontColor=default;fillColor=default;" vertex="1" parent="3">
                    <mxGeometry x="210" y="180" width="630" height="560" as="geometry"/>
                </mxCell>
                <mxCell id="96" value="Visuals" style="rounded=1;whiteSpace=wrap;html=1;strokeColor=default;align=center;verticalAlign=middle;fontFamily=Helvetica;fontSize=12;fontColor=default;fillColor=default;" vertex="1" parent="3">
                    <mxGeometry x="890" y="180" width="540" height="560" as="geometry"/>
                </mxCell>
                <mxCell id="99" value="Task form&lt;div&gt;- duration&lt;/div&gt;&lt;div&gt;- Task Description&lt;/div&gt;" style="rounded=1;whiteSpace=wrap;html=1;strokeColor=default;align=center;verticalAlign=middle;fontFamily=Helvetica;fontSize=12;fontColor=default;fillColor=default;" vertex="1" parent="3">
                    <mxGeometry x="270" y="240" width="210" height="150" as="geometry"/>
                </mxCell>
                <mxCell id="120" value="Add" style="rounded=1;html=1;shadow=0;dashed=0;whiteSpace=wrap;fontSize=10;fillColor=#666666;align=center;strokeColor=#4D4D4D;fontColor=#ffffff;verticalAlign=middle;fontFamily=Helvetica;" vertex="1" parent="3">
                    <mxGeometry x="322.25" y="350" width="105.5" height="16.88" as="geometry"/>
                </mxCell>
                <mxCell id="121" value="Todays Tasks" style="rounded=1;whiteSpace=wrap;html=1;strokeColor=default;align=center;verticalAlign=middle;fontFamily=Helvetica;fontSize=12;fontColor=default;fillColor=default;" vertex="1" parent="3">
                    <mxGeometry x="570" y="240" width="210" height="430" as="geometry"/>
                </mxCell>
                <mxCell id="122" value="" style="rounded=1;whiteSpace=wrap;html=1;strokeColor=default;align=center;verticalAlign=middle;fontFamily=Helvetica;fontSize=12;fontColor=default;fillColor=default;" vertex="1" parent="3">
                    <mxGeometry x="270" y="430" width="210" height="210" as="geometry"/>
                </mxCell>
            </root>
        </mxGraphModel>
    </diagram>
</mxfile>